{
  "accessors": [
    {
      "bufferView": 2,
      "componentType": 5126,
      "count": 24,
      "max": [
        1.0200001001358032,
        2.0,
        1.1920928955078125e-07
      ],
      "min": [
        -1.4984612464904785,
        -2.0,
        -0.08983564376831055
      ],
      "type": "VEC3"
    },
    {
      "bufferView": 2,
      "byteOffset": 288,
      "componentType": 5126,
      "count": 24,
      "max": [
        1.0,
        1.0,
        1.0
      ],
      "min": [
        -1.0,
        -1.0,
        -1.0
      ],
      "type": "VEC3"
    },
    {
      "bufferView": 1,
      "componentType": 5126,
      "count": 24,
      "max": [
        0.9950979948043823,
        0.790419340133667
      ],
      "min": [
        0.0049070133827626705,
        0.004904268775135279
      ],
      "type": "VEC2"
    },
    {
      "bufferView": 1,
      "byteOffset": 192,
      "componentType": 5126,
      "count": 24,
      "max": [
        0.9950979948043823,
        0.790419340133667
      ],
      "min": [
        0.0049070133827626705,
        0.004904268775135279
      ],
      "type": "VEC2"
    },
    {
      "bufferView": 1,
      "byteOffset": 384,
      "componentType": 5126,
      "count": 24,
      "max": [
        0.9950979948043823,
        0.790419340133667
      ],
      "min": [
        0.0049070133827626705,
        0.004904268775135279
      ],
      "type": "VEC2"
    },
    {
      "bufferView": 1,
      "byteOffset": 576,
      "componentType": 5126,
      "count": 24,
      "max": [
        0.9950979948043823,
        0.790419340133667
      ],
      "min": [
        0.0049070133827626705,
        0.004904268775135279
      ],
      "type": "VEC2"
    },
    {
      "bufferView": 1,
      "byteOffset": 768,
      "componentType": 5126,
      "count": 24,
      "max": [
        0.9950979948043823,
        0.790419340133667
      ],
      "min": [
        0.0049070133827626705,
        0.004904268775135279
      ],
      "type": "VEC2"
    },
    {
      "bufferView": 1,
      "byteOffset": 960,
      "componentType": 5126,
      "count": 24,
      "max": [
        0.9950979948043823,
        0.790419340133667
      ],
      "min": [
        0.0049070133827626705,
        0.004904268775135279
      ],
      "type": "VEC2"
    },
    {
      "bufferView": 1,
      "byteOffset": 1152,
      "componentType": 5126,
      "count": 24,
      "max": [
        0.9950979948043823,
        0.790419340133667
      ],
      "min": [
        0.0049070133827626705,
        0.004904268775135279
      ],
      "type": "VEC2"
    },
    {
      "bufferView": 1,
      "byteOffset": 1344,
      "componentType": 5126,
      "count": 24,
      "max": [
        0.9950979948043823,
        0.790419340133667
      ],
      "min": [
        0.0049070133827626705,
        0.004904268775135279
      ],
      "type": "VEC2"
    },
    {
      "bufferView": 1,
      "byteOffset": 1536,
      "componentType": 5126,
      "count": 24,
      "max": [
        0.9950979948043823,
        0.790419340133667
      ],
      "min": [
        0.0049070133827626705,
        0.004904268775135279
      ],
      "type": "VEC2"
    },
    {
      "bufferView": 1,
      "byteOffset": 1728,
      "componentType": 5126,
      "count": 24,
      "max": [
        0.9950979948043823,
        0.790419340133667
      ],
      "min": [
        0.0049070133827626705,
        0.004904268775135279
      ],
      "type": "VEC2"
    },
    {
      "bufferView": 0,
      "componentType": 5125,
      "count": 36,
      "type": "SCALAR"
    },
    {
      "bufferView": 2,
      "byteOffset": 576,
      "componentType": 5126,
      "count": 2632,
      "max": [
        1.3732514381408691,
        3.816732406616211,
        2.020920753479004
      ],
      "min": [
        -0.04479590058326721,
        -0.044796109199523926,
        -0.036620378494262695
      ],
      "type": "VEC3"
    },
    {
      "bufferView": 2,
      "byteOffset": 32160,
      "componentType": 5126,
      "count": 2632,
      "max": [
        1.0,
        1.0,
        1.0
      ],
      "min": [
        -1.0,
        -1.0,
        -1.0
      ],
      "type": "VEC3"
    },
    {
      "bufferView": 1,
      "byteOffset": 1920,
      "componentType": 5126,
      "count": 2632,
      "max": [
        0.9855351448059082,
        0.8011320233345032
      ],
      "min": [
        0.0034578393679112196,
        0.0034588496200740337
      ],
      "type": "VEC2"
    },
    {
      "bufferView": 1,
      "byteOffset": 22976,
      "componentType": 5126,
      "count": 2632,
      "max": [
        0.9855351448059082,
        0.8011320233345032
      ],
      "min": [
        0.0034578393679112196,
        0.0034588496200740337
      ],
      "type": "VEC2"
    },
    {
      "bufferView": 1,
      "byteOffset": 44032,
      "componentType": 5126,
      "count": 2632,
      "max": [
        0.9855351448059082,
        0.8011320233345032
      ],
      "min": [
        0.0034578393679112196,
        0.0034588496200740337
      ],
      "type": "VEC2"
    },
    {
      "bufferView": 1,
      "byteOffset": 65088,
      "componentType": 5126,
      "count": 2632,
      "max": [
        0.9855351448059082,
        0.8011320233345032
      ],
      "min": [
        0.0034578393679112196,
        0.0034588496200740337
      ],
      "type": "VEC2"
    },
    {
      "bufferView": 1,
      "byteOffset": 86144,
      "componentType": 5126,
      "count": 2632,
      "max": [
        0.9855351448059082,
        0.8011320233345032
      ],
      "min": [
        0.0034578393679112196,
        0.0034588496200740337
      ],
      "type": "VEC2"
    },
    {
      "bufferView": 1,
      "byteOffset": 107200,
      "componentType": 5126,
      "count": 2632,
      "max": [
        0.9855351448059082,
        0.8011320233345032
      ],
      "min": [
        0.0034578393679112196,
        0.0034588496200740337
      ],
      "type": "VEC2"
    },
    {
      "bufferView": 1,
      "byteOffset": 128256,
      "componentType": 5126,
      "count": 2632,
      "max": [
        0.9855351448059082,
        0.8011320233345032
      ],
      "min": [
        0.0034578393679112196,
        0.0034588496200740337
      ],
      "type": "VEC2"
    },
    {
      "bufferView": 1,
      "byteOffset": 149312,
      "componentType": 5126,
      "count": 2632,
      "max": [
        0.9855351448059082,
        0.8011320233345032
      ],
      "min": [
        0.0034578393679112196,
        0.0034588496200740337
      ],
      "type": "VEC2"
    },
    {
      "bufferView": 1,
      "byteOffset": 170368,
      "componentType": 5126,
      "count": 2632,
      "max": [
        0.9855351448059082,
        0.8011320233345032
      ],
      "min": [
        0.0034578393679112196,
        0.0034588496200740337
      ],
      "type": "VEC2"
    },
    {
      "bufferView": 1,
      "byteOffset": 191424,
      "componentType": 5126,
      "count": 2632,
      "max": [
        0.9855351448059082,
        0.8011320233345032
      ],
      "min": [
        0.0034578393679112196,
        0.0034588496200740337
      ],
      "type": "VEC2"
    },
    {
      "bufferView": 0,
      "byteOffset": 144,
      "componentType": 5125,
      "count": 7632,
      "type": "SCALAR"
    },
    {
      "bufferView": 2,
      "byteOffset": 63744,
      "componentType": 5126,
      "count": 1316,
      "max": [
        0.044795989990234375,
        2.003032684326172,
        2.020920753479004
      ],
      "min": [
        -0.04479581117630005,
        -0.044796109199523926,
        -0.036620378494262695
      ],
      "type": "VEC3"
    },
    {
      "bufferView": 2,
      "byteOffset": 79536,
      "componentType": 5126,
      "count": 1316,
      "max": [
        1.0,
        1.0,
        1.0
      ],
      "min": [
        -1.0,
        -1.0,
        -1.0
      ],
      "type": "VEC3"
    },
    {
      "bufferView": 1,
      "byteOffset": 212480,
      "componentType": 5126,
      "count": 1316,
      "max": [
        0.9945226907730103,
        0.9744622111320496
      ],
      "min": [
        0.06206031143665314,
        0.0034592633601278067
      ],
      "type": "VEC2"
    },
    {
      "bufferView": 1,
      "byteOffset": 223008,
      "componentType": 5126,
      "count": 1316,
      "max": [
        0.9945226907730103,
        0.9744622111320496
      ],
      "min": [
        0.06206031143665314,
        0.0034592633601278067
      ],
      "type": "VEC2"
    },
    {
      "bufferView": 1,
      "byteOffset": 233536,
      "componentType": 5126,
      "count": 1316,
      "max": [
        0.9945226907730103,
        0.9744622111320496
      ],
      "min": [
        0.06206031143665314,
        0.0034592633601278067
      ],
      "type": "VEC2"
    },
    {
      "bufferView": 1,
      "byteOffset": 244064,
      "componentType": 5126,
      "count": 1316,
      "max": [
        0.9945226907730103,
        0.9744622111320496
      ],
      "min": [
        0.06206031143665314,
        0.0034592633601278067
      ],
      "type": "VEC2"
    },
    {
      "bufferView": 1,
      "byteOffset": 254592,
      "componentType": 5126,
      "count": 1316,
      "max": [
        0.9945226907730103,
        0.9744622111320496
      ],
      "min": [
        0.06206031143665314,
        0.0034592633601278067
      ],
      "type": "VEC2"
    },
    {
      "bufferView": 1,
      "byteOffset": 265120,
      "componentType": 5126,
      "count": 1316,
      "max": [
        0.9945226907730103,
        0.9744622111320496
      ],
      "min": [
        0.06206031143665314,
        0.0034592633601278067
      ],
      "type": "VEC2"
    },
    {
      "bufferView": 1,
      "byteOffset": 275648,
      "componentType": 5126,
      "count": 1316,
      "max": [
        0.9945226907730103,
        0.9744622111320496
      ],
      "min": [
        0.06206031143665314,
        0.0034592633601278067
      ],
      "type": "VEC2"
    },
    {
      "bufferView": 1,
      "byteOffset": 286176,
      "componentType": 5126,
      "count": 1316,
      "max": [
        0.9945226907730103,
        0.9744622111320496
      ],
      "min": [
        0.06206031143665314,
        0.0034592633601278067
      ],
      "type": "VEC2"
    },
    {
      "bufferView": 1,
      "byteOffset": 296704,
      "componentType": 5126,
      "count": 1316,
      "max": [
        0.9945226907730103,
        0.9744622111320496
      ],
      "min": [
        0.06206031143665314,
        0.0034592633601278067
      ],
      "type": "VEC2"
    },
    {
      "bufferView": 1,
      "byteOffset": 307232,
      "componentType": 5126,
      "count": 1316,
      "max": [
        0.9945226907730103,
        0.9744622111320496
      ],
      "min": [
        0.06206031143665314,
        0.0034592633601278067
      ],
      "type": "VEC2"
    },
    {
      "bufferView": 0,
      "byteOffset": 30672,
      "componentType": 5125,
      "count": 3816,
      "type": "SCALAR"
    },
    {
      "bufferView": 2,
      "byteOffset": 95328,
      "componentType": 5126,
      "count": 522,
      "max": [
        0.8783407211303711,
        0.18342357873916626,
        1.866733193397522
      ],
      "min": [
        -0.8783407211303711,
        -0.6744037866592407,
        -1.866733193397522
      ],
      "type": "VEC3"
    },
    {
      "bufferView": 2,
      "byteOffset": 101592,
      "componentType": 5126,
      "count": 522,
      "max": [
        1.0,
        1.0,
        1.0
      ],
      "min": [
        -1.0,
        -1.0,
        -1.0
      ],
      "type": "VEC3"
    },
    {
      "bufferView": 1,
      "byteOffset": 317760,
      "componentType": 5126,
      "count": 522,
      "max": [
        0.9850242137908936,
        0.9960859417915344
      ],
      "min": [
        0.0038986247964203358,
        0.003898043418303132
      ],
      "type": "VEC2"
    },
    {
      "bufferView": 1,
      "byteOffset": 321936,
      "componentType": 5126,
      "count": 522,
      "max": [
        0.9850242137908936,
        0.9960859417915344
      ],
      "min": [
        0.0038986247964203358,
        0.003898043418303132
      ],
      "type": "VEC2"
    },
    {
      "bufferView": 1,
      "byteOffset": 326112,
      "componentType": 5126,
      "count": 522,
      "max": [
        0.9850242137908936,
        0.9960859417915344
      ],
      "min": [
        0.0038986247964203358,
        0.003898043418303132
      ],
      "type": "VEC2"
    },
    {
      "bufferView": 1,
      "byteOffset": 330288,
      "componentType": 5126,
      "count": 522,
      "max": [
        0.9850242137908936,
        0.9960859417915344
      ],
      "min": [
        0.0038986247964203358,
        0.003898043418303132
      ],
      "type": "VEC2"
    },
    {
      "bufferView": 1,
      "byteOffset": 334464,
      "componentType": 5126,
      "count": 522,
      "max": [
        0.9850242137908936,
        0.9960859417915344
      ],
      "min": [
        0.0038986247964203358,
        0.003898043418303132
      ],
      "type": "VEC2"
    },
    {
      "bufferView": 1,
      "byteOffset": 338640,
      "componentType": 5126,
      "count": 522,
      "max": [
        0.9850242137908936,
        0.9960859417915344
      ],
      "min": [
        0.0038986247964203358,
        0.003898043418303132
      ],
      "type": "VEC2"
    },
    {
      "bufferView": 1,
      "byteOffset": 342816,
      "componentType": 5126,
      "count": 522,
      "max": [
        0.9850242137908936,
        0.9960859417915344
      ],
      "min": [
        0.0038986247964203358,
        0.003898043418303132
      ],
      "type": "VEC2"
    },
    {
      "bufferView": 1,
      "byteOffset": 346992,
      "componentType": 5126,
      "count": 522,
      "max": [
        0.9850242137908936,
        0.9960859417915344
      ],
      "min": [
        0.0038986247964203358,
        0.003898043418303132
      ],
      "type": "VEC2"
    },
    {
      "bufferView": 1,
      "byteOffset": 351168,
      "componentType": 5126,
      "count": 522,
      "max": [
        0.9850242137908936,
        0.9960859417915344
      ],
      "min": [
        0.0038986247964203358,
        0.003898043418303132
      ],
      "type": "VEC2"
    },
    {
      "bufferView": 1,
      "byteOffset": 355344,
      "componentType": 5126,
      "count": 522,
      "max": [
        0.9850242137908936,
        0.9960859417915344
      ],
      "min": [
        0.0038986247964203358,
        0.003898043418303132
      ],
      "type": "VEC2"
    },
    {
      "bufferView": 0,
      "byteOffset": 45936,
      "componentType": 5125,
      "count": 1362,
      "type": "SCALAR"
    },
    {
      "bufferView": 2,
      "byteOffset": 107856,
      "componentType": 5126,
      "count": 72,
      "max": [
        0.03210604190826416,
        0.9476547837257385,
        0.7241843938827515
      ],
      "min": [
        -0.032106101512908936,
        -0.9476547241210938,
        -0.7241843342781067
      ],
      "type": "VEC3"
    },
    {
      "bufferView": 2,
      "byteOffset": 108720,
      "componentType": 5126,
      "count": 72,
      "max": [
        1.0,
        1.0,
        1.0
      ],
      "min": [
        -1.0,
        -1.0,
        -1.0
      ],
      "type": "VEC3"
    },
    {
      "bufferView": 1,
      "byteOffset": 359520,
      "componentType": 5126,
      "count": 72,
      "max": [
        0.9986339211463928,
        0.9111677408218384
      ],
      "min": [
        0.0013585510896518826,
        0.0013593860203400254
      ],
      "type": "VEC2"
    },
    {
      "bufferView": 1,
      "byteOffset": 360096,
      "componentType": 5126,
      "count": 72,
      "max": [
        0.9986339211463928,
        0.9111677408218384
      ],
      "min": [
        0.0013585510896518826,
        0.0013593860203400254
      ],
      "type": "VEC2"
    },
    {
      "bufferView": 1,
      "byteOffset": 360672,
      "componentType": 5126,
      "count": 72,
      "max": [
        0.9986339211463928,
        0.9111677408218384
      ],
      "min": [
        0.0013585510896518826,
        0.0013593860203400254
      ],
      "type": "VEC2"
    },
    {
      "bufferView": 1,
      "byteOffset": 361248,
      "componentType": 5126,
      "count": 72,
      "max": [
        0.9986339211463928,
        0.9111677408218384
      ],
      "min": [
        0.0013585510896518826,
        0.0013593860203400254
      ],
      "type": "VEC2"
    },
    {
      "bufferView": 1,
      "byteOffset": 361824,
      "componentType": 5126,
      "count": 72,
      "max": [
        0.9986339211463928,
        0.9111677408218384
      ],
      "min": [
        0.0013585510896518826,
        0.0013593860203400254
      ],
      "type": "VEC2"
    },
    {
      "bufferView": 1,
      "byteOffset": 362400,
      "componentType": 5126,
      "count": 72,
      "max": [
        0.9986339211463928,
        0.9111677408218384
      ],
      "min": [
        0.0013585510896518826,
        0.0013593860203400254
      ],
      "type": "VEC2"
    },
    {
      "bufferView": 1,
      "byteOffset": 362976,
      "componentType": 5126,
      "count": 72,
      "max": [
        0.9986339211463928,
        0.9111677408218384
      ],
      "min": [
        0.0013585510896518826,
        0.0013593860203400254
      ],
      "type": "VEC2"
    },
    {
      "bufferView": 1,
      "byteOffset": 363552,
      "componentType": 5126,
      "count": 72,
      "max": [
        0.9986339211463928,
        0.9111677408218384
      ],
      "min": [
        0.0013585510896518826,
        0.0013593860203400254
      ],
      "type": "VEC2"
    },
    {
      "bufferView": 1,
      "byteOffset": 364128,
      "componentType": 5126,
      "count": 72,
      "max": [
        0.9986339211463928,
        0.9111677408218384
      ],
      "min": [
        0.0013585510896518826,
        0.0013593860203400254
      ],
      "type": "VEC2"
    },
    {
      "bufferView": 1,
      "byteOffset": 364704,
      "componentType": 5126,
      "count": 72,
      "max": [
        0.9986339211463928,
        0.9111677408218384
      ],
      "min": [
        0.0013585510896518826,
        0.0013593860203400254
      ],
      "type": "VEC2"
    },
    {
      "bufferView": 0,
      "byteOffset": 51384,
      "componentType": 5125,
      "count": 132,
      "type": "SCALAR"
    },
    {
      "bufferView": 2,
      "byteOffset": 109584,
      "componentType": 5126,
      "count": 88,
      "max": [
        0.21881234645843506,
        1.5905370712280273,
        0.0424572229385376
      ],
      "min": [
        -0.21881234645843506,
        -1.5905370712280273,
        -0.04245710372924805
      ],
      "type": "VEC3"
    },
    {
      "bufferView": 2,
      "byteOffset": 110640,
      "componentType": 5126,
      "count": 88,
      "max": [
        1.0,
        1.0,
        1.0
      ],
      "min": [
        -1.0,
        -1.0,
        -1.0
      ],
      "type": "VEC3"
    },
    {
      "bufferView": 1,
      "byteOffset": 365280,
      "componentType": 5126,
      "count": 88,
      "max": [
        0.9496972560882568,
        0.749474823474884
      ],
      "min": [
        0.004723054822534323,
        0.32986798882484436
      ],
      "type": "VEC2"
    },
    {
      "bufferView": 1,
      "byteOffset": 365984,
      "componentType": 5126,
      "count": 88,
      "max": [
        0.9496972560882568,
        0.749474823474884
      ],
      "min": [
        0.004723054822534323,
        0.32986798882484436
      ],
      "type": "VEC2"
    },
    {
      "bufferView": 1,
      "byteOffset": 366688,
      "componentType": 5126,
      "count": 88,
      "max": [
        0.9496972560882568,
        0.749474823474884
      ],
      "min": [
        0.004723054822534323,
        0.32986798882484436
      ],
      "type": "VEC2"
    },
    {
      "bufferView": 1,
      "byteOffset": 367392,
      "componentType": 5126,
      "count": 88,
      "max": [
        0.9496972560882568,
        0.749474823474884
      ],
      "min": [
        0.004723054822534323,
        0.32986798882484436
      ],
      "type": "VEC2"
    },
    {
      "bufferView": 1,
      "byteOffset": 368096,
      "componentType": 5126,
      "count": 88,
      "max": [
        0.9496972560882568,
        0.749474823474884
      ],
      "min": [
        0.004723054822534323,
        0.32986798882484436
      ],
      "type": "VEC2"
    },
    {
      "bufferView": 1,
      "byteOffset": 368800,
      "componentType": 5126,
      "count": 88,
      "max": [
        0.9496972560882568,
        0.749474823474884
      ],
      "min": [
        0.004723054822534323,
        0.32986798882484436
      ],
      "type": "VEC2"
    },
    {
      "bufferView": 1,
      "byteOffset": 369504,
      "componentType": 5126,
      "count": 88,
      "max": [
        0.9496972560882568,
        0.749474823474884
      ],
      "min": [
        0.004723054822534323,
        0.32986798882484436
      ],
      "type": "VEC2"
    },
    {
      "bufferView": 1,
      "byteOffset": 370208,
      "componentType": 5126,
      "count": 88,
      "max": [
        0.9496972560882568,
        0.749474823474884
      ],
      "min": [
        0.004723054822534323,
        0.32986798882484436
      ],
      "type": "VEC2"
    },
    {
      "bufferView": 1,
      "byteOffset": 370912,
      "componentType": 5126,
      "count": 88,
      "max": [
        0.9496972560882568,
        0.749474823474884
      ],
      "min": [
        0.004723054822534323,
        0.32986798882484436
      ],
      "type": "VEC2"
    },
    {
      "bufferView": 1,
      "byteOffset": 371616,
      "componentType": 5126,
      "count": 88,
      "max": [
        0.9496972560882568,
        0.749474823474884
      ],
      "min": [
        0.004723054822534323,
        0.32986798882484436
      ],
      "type": "VEC2"
    },
    {
      "bufferView": 0,
      "byteOffset": 51912,
      "componentType": 5125,
      "count": 180,
      "type": "SCALAR"
    },
    {
      "bufferView": 2,
      "byteOffset": 111696,
      "componentType": 5126,
      "count": 260,
      "max": [
        0.03486913442611694,
        2.9096484184265137,
        0.644226610660553
      ],
      "min": [
        -0.03486913442611694,
        -0.03486907482147217,
        -0.011673808097839355
      ],
      "type": "VEC3"
    },
    {
      "bufferView": 2,
      "byteOffset": 114816,
      "componentType": 5126,
      "count": 260,
      "max": [
        1.0,
        1.0,
        1.0
      ],
      "min": [
        -1.0,
        -1.0,
        -1.0
      ],
      "type": "VEC3"
    },
    {
      "bufferView": 1,
      "byteOffset": 372320,
      "componentType": 5126,
      "count": 260,
      "max": [
        0.9497552514076233,
        0.8589710593223572
      ],
      "min": [
        0.004724846221506596,
        0.004724906291812658
      ],
      "type": "VEC2"
    },
    {
      "bufferView": 1,
      "byteOffset": 374400,
      "componentType": 5126,
      "count": 260,
      "max": [
        0.9497552514076233,
        0.8589710593223572
      ],
      "min": [
        0.004724846221506596,
        0.004724906291812658
      ],
      "type": "VEC2"
    },
    {
      "bufferView": 1,
      "byteOffset": 376480,
      "componentType": 5126,
      "count": 260,
      "max": [
        0.9497552514076233,
        0.8589710593223572
      ],
      "min": [
        0.004724846221506596,
        0.004724906291812658
      ],
      "type": "VEC2"
    },
    {
      "bufferView": 1,
      "byteOffset": 378560,
      "componentType": 5126,
      "count": 260,
      "max": [
        0.9497552514076233,
        0.8589710593223572
      ],
      "min": [
        0.004724846221506596,
        0.004724906291812658
      ],
      "type": "VEC2"
    },
    {
      "bufferView": 1,
      "byteOffset": 380640,
      "componentType": 5126,
      "count": 260,
      "max": [
        0.9497552514076233,
        0.8589710593223572
      ],
      "min": [
        0.004724846221506596,
        0.004724906291812658
      ],
      "type": "VEC2"
    },
    {
      "bufferView": 1,
      "byteOffset": 382720,
      "componentType": 5126,
      "count": 260,
      "max": [
        0.9497552514076233,
        0.8589710593223572
      ],
      "min": [
        0.004724846221506596,
        0.004724906291812658
      ],
      "type": "VEC2"
    },
    {
      "bufferView": 1,
      "byteOffset": 384800,
      "componentType": 5126,
      "count": 260,
      "max": [
        0.9497552514076233,
        0.8589710593223572
      ],
      "min": [
        0.004724846221506596,
        0.004724906291812658
      ],
      "type": "VEC2"
    },
    {
      "bufferView": 1,
      "byteOffset": 386880,
      "componentType": 5126,
      "count": 260,
      "max": [
        0.9497552514076233,
        0.8589710593223572
      ],
      "min": [
        0.004724846221506596,
        0.004724906291812658
      ],
      "type": "VEC2"
    },
    {
      "bufferView": 1,
      "byteOffset": 388960,
      "componentType": 5126,
      "count": 260,
      "max": [
        0.9497552514076233,
        0.8589710593223572
      ],
      "min": [
        0.004724846221506596,
        0.004724906291812658
      ],
      "type": "VEC2"
    },
    {
      "bufferView": 1,
      "byteOffset": 391040,
      "componentType": 5126,
      "count": 260,
      "max": [
        0.9497552514076233,
        0.8589710593223572
      ],
      "min": [
        0.004724846221506596,
        0.004724906291812658
      ],
      "type": "VEC2"
    },
    {
      "bufferView": 0,
      "byteOffset": 52632,
      "componentType": 5125,
      "count": 744,
      "type": "SCALAR"
    },
    {
      "bufferView": 2,
      "byteOffset": 117936,
      "componentType": 5126,
      "count": 236,
      "max": [
        0.9999998807907104,
        108.06965637207031,
        1.000000238418579
      ],
      "min": [
        -1.0,
        -1.2465400695800781,
        -1.0
      ],
      "type": "VEC3"
    },
    {
      "bufferView": 2,
      "byteOffset": 120768,
      "componentType": 5126,
      "count": 236,
      "max": [
        1.0,
        1.0,
        1.0
      ],
      "min": [
        -1.0,
        -1.0,
        -1.0
      ],
      "type": "VEC3"
    },
    {
      "bufferView": 1,
      "byteOffset": 393120,
      "componentType": 5126,
      "count": 236,
      "max": [
        0.9980939626693726,
        0.9949662089347839
      ],
      "min": [
        0.0013614430790767074,
        0.0019273745128884912
      ],
      "type": "VEC2"
    },
    {
      "bufferView": 1,
      "byteOffset": 395008,
      "componentType": 5126,
      "count": 236,
      "max": [
        0.9980939626693726,
        0.9949662089347839
      ],
      "min": [
        0.0013614430790767074,
        0.0019273745128884912
      ],
      "type": "VEC2"
    },
    {
      "bufferView": 1,
      "byteOffset": 396896,
      "componentType": 5126,
      "count": 236,
      "max": [
        0.9980939626693726,
        0.9949662089347839
      ],
      "min": [
        0.0013614430790767074,
        0.0019273745128884912
      ],
      "type": "VEC2"
    },
    {
      "bufferView": 1,
      "byteOffset": 398784,
      "componentType": 5126,
      "count": 236,
      "max": [
        0.9980939626693726,
        0.9949662089347839
      ],
      "min": [
        0.0013614430790767074,
        0.0019273745128884912
      ],
      "type": "VEC2"
    },
    {
      "bufferView": 1,
      "byteOffset": 400672,
      "componentType": 5126,
      "count": 236,
      "max": [
        0.9980939626693726,
        0.9949662089347839
      ],
      "min": [
        0.0013614430790767074,
        0.0019273745128884912
      ],
      "type": "VEC2"
    },
    {
      "bufferView": 1,
      "byteOffset": 402560,
      "componentType": 5126,
      "count": 236,
      "max": [
        0.9980939626693726,
        0.9949662089347839
      ],
      "min": [
        0.0013614430790767074,
        0.0019273745128884912
      ],
      "type": "VEC2"
    },
    {
      "bufferView": 1,
      "byteOffset": 404448,
      "componentType": 5126,
      "count": 236,
      "max": [
        0.9980939626693726,
        0.9949662089347839
      ],
      "min": [
        0.0013614430790767074,
        0.0019273745128884912
      ],
      "type": "VEC2"
    },
    {
      "bufferView": 1,
      "byteOffset": 406336,
      "componentType": 5126,
      "count": 236,
      "max": [
        0.9980939626693726,
        0.9949662089347839
      ],
      "min": [
        0.0013614430790767074,
        0.0019273745128884912
      ],
      "type": "VEC2"
    },
    {
      "bufferView": 1,
      "byteOffset": 408224,
      "componentType": 5126,
      "count": 236,
      "max": [
        0.9980939626693726,
        0.9949662089347839
      ],
      "min": [
        0.0013614430790767074,
        0.0019273745128884912
      ],
      "type": "VEC2"
    },
    {
      "bufferView": 1,
      "byteOffset": 410112,
      "componentType": 5126,
      "count": 236,
      "max": [
        0.9980939626693726,
        0.9949662089347839
      ],
      "min": [
        0.0013614430790767074,
        0.0019273745128884912
      ],
      "type": "VEC2"
    },
    {
      "bufferView": 0,
      "byteOffset": 55608,
      "componentType": 5125,
      "count": 408,
      "type": "SCALAR"
    },
    {
      "bufferView": 2,
      "byteOffset": 123600,
      "componentType": 5126,
      "count": 678,
      "max": [
        0.8783414363861084,
        0.18342351913452148,
        1.9881495237350464
      ],
      "min": [
        -0.8783412575721741,
        -0.6958950757980347,
        -1.9881495237350464
      ],
      "type": "VEC3"
    },
    {
      "bufferView": 2,
      "byteOffset": 131736,
      "componentType": 5126,
      "count": 678,
      "max": [
        1.0,
        1.0,
        1.0
      ],
      "min": [
        -1.0,
        -1.0,
        -1.0
      ],
      "type": "VEC3"
    },
    {
      "bufferView": 1,
      "byteOffset": 412000,
      "componentType": 5126,
      "count": 678,
      "max": [
        0.9919108152389526,
        0.9165850877761841
      ],
      "min": [
        0.0043051582761108875,
        0.003902443451806903
      ],
      "type": "VEC2"
    },
    {
      "bufferView": 1,
      "byteOffset": 417424,
      "componentType": 5126,
      "count": 678,
      "max": [
        0.9919108152389526,
        0.9165850877761841
      ],
      "min": [
        0.0043051582761108875,
        0.003902443451806903
      ],
      "type": "VEC2"
    },
    {
      "bufferView": 1,
      "byteOffset": 422848,
      "componentType": 5126,
      "count": 678,
      "max": [
        0.9919108152389526,
        0.9165850877761841
      ],
      "min": [
        0.0043051582761108875,
        0.003902443451806903
      ],
      "type": "VEC2"
    },
    {
      "bufferView": 1,
      "byteOffset": 428272,
      "componentType": 5126,
      "count": 678,
      "max": [
        0.9919108152389526,
        0.9165850877761841
      ],
      "min": [
        0.0043051582761108875,
        0.003902443451806903
      ],
      "type": "VEC2"
    },
    {
      "bufferView": 1,
      "byteOffset": 433696,
      "componentType": 5126,
      "count": 678,
      "max": [
        0.9919108152389526,
        0.9165850877761841
      ],
      "min": [
        0.0043051582761108875,
        0.003902443451806903
      ],
      "type": "VEC2"
    },
    {
      "bufferView": 1,
      "byteOffset": 439120,
      "componentType": 5126,
      "count": 678,
      "max": [
        0.9919108152389526,
        0.9165850877761841
      ],
      "min": [
        0.0043051582761108875,
        0.003902443451806903
      ],
      "type": "VEC2"
    },
    {
      "bufferView": 1,
      "byteOffset": 444544,
      "componentType": 5126,
      "count": 678,
      "max": [
        0.9919108152389526,
        0.9165850877761841
      ],
      "min": [
        0.0043051582761108875,
        0.003902443451806903
      ],
      "type": "VEC2"
    },
    {
      "bufferView": 1,
      "byteOffset": 449968,
      "componentType": 5126,
      "count": 678,
      "max": [
        0.9919108152389526,
        0.9165850877761841
      ],
      "min": [
        0.0043051582761108875,
        0.003902443451806903
      ],
      "type": "VEC2"
    },
    {
      "bufferView": 1,
      "byteOffset": 455392,
      "componentType": 5126,
      "count": 678,
      "max": [
        0.9919108152389526,
        0.9165850877761841
      ],
      "min": [
        0.0043051582761108875,
        0.003902443451806903
      ],
      "type": "VEC2"
    },
    {
      "bufferView": 1,
      "byteOffset": 460816,
      "componentType": 5126,
      "count": 678,
      "max": [
        0.9919108152389526,
        0.9165850877761841
      ],
      "min": [
        0.0043051582761108875,
        0.003902443451806903
      ],
      "type": "VEC2"
    },
    {
      "bufferView": 0,
      "byteOffset": 57240,
      "componentType": 5125,
      "count": 1842,
      "type": "SCALAR"
    },
    {
      "bufferView": 2,
      "byteOffset": 139872,
      "componentType": 5126,
      "count": 352,
      "max": [
        1.371903896331787,
        3.8076131343841553,
        0.05764955282211304
      ],
      "min": [
        -0.05289590358734131,
        -0.07756280899047852,
        -0.0725281834602356
      ],
      "type": "VEC3"
    },
    {
      "bufferView": 2,
      "byteOffset": 144096,
      "componentType": 5126,
      "count": 352,
      "max": [
        1.0,
        1.0,
        1.0
      ],
      "min": [
        -1.0,
        -1.0,
        -1.0
      ],
      "type": "VEC3"
    },
    {
      "bufferView": 1,
      "byteOffset": 466240,
      "componentType": 5126,
      "count": 352,
      "max": [
        0.9965382814407349,
        0.9693397283554077
      ],
      "min": [
        0.0034594833850860596,
        0.0034605704713612795
      ],
      "type": "VEC2"
    },
    {
      "bufferView": 1,
      "byteOffset": 469056,
      "componentType": 5126,
      "count": 352,
      "max": [
        0.9965382814407349,
        0.9693397283554077
      ],
      "min": [
        0.0034594833850860596,
        0.0034605704713612795
      ],
      "type": "VEC2"
    },
    {
      "bufferView": 1,
      "byteOffset": 471872,
      "componentType": 5126,
      "count": 352,
      "max": [
        0.9965382814407349,
        0.9693397283554077
      ],
      "min": [
        0.0034594833850860596,
        0.0034605704713612795
      ],
      "type": "VEC2"
    },
    {
      "bufferView": 1,
      "byteOffset": 474688,
      "componentType": 5126,
      "count": 352,
      "max": [
        0.9965382814407349,
        0.9693397283554077
      ],
      "min": [
        0.0034594833850860596,
        0.0034605704713612795
      ],
      "type": "VEC2"
    },
    {
      "bufferView": 1,
      "byteOffset": 477504,
      "componentType": 5126,
      "count": 352,
      "max": [
        0.9965382814407349,
        0.9693397283554077
      ],
      "min": [
        0.0034594833850860596,
        0.0034605704713612795
      ],
      "type": "VEC2"
    },
    {
      "bufferView": 1,
      "byteOffset": 480320,
      "componentType": 5126,
      "count": 352,
      "max": [
        0.9965382814407349,
        0.9693397283554077
      ],
      "min": [
        0.0034594833850860596,
        0.0034605704713612795
      ],
      "type": "VEC2"
    },
    {
      "bufferView": 1,
      "byteOffset": 483136,
      "componentType": 5126,
      "count": 352,
      "max": [
        0.9965382814407349,
        0.9693397283554077
      ],
      "min": [
        0.0034594833850860596,
        0.0034605704713612795
      ],
      "type": "VEC2"
    },
    {
      "bufferView": 1,
      "byteOffset": 485952,
      "componentType": 5126,
      "count": 352,
      "max": [
        0.9965382814407349,
        0.9693397283554077
      ],
      "min": [
        0.0034594833850860596,
        0.0034605704713612795
      ],
      "type": "VEC2"
    },
    {
      "bufferView": 1,
      "byteOffset": 488768,
      "componentType": 5126,
      "count": 352,
      "max": [
        0.9965382814407349,
        0.9693397283554077
      ],
      "min": [
        0.0034594833850860596,
        0.0034605704713612795
      ],
      "type": "VEC2"
    },
    {
      "bufferView": 1,
      "byteOffset": 491584,
      "componentType": 5126,
      "count": 352,
      "max": [
        0.9965382814407349,
        0.9693397283554077
      ],
      "min": [
        0.0034594833850860596,
        0.0034605704713612795
      ],
      "type": "VEC2"
    },
    {
      "bufferView": 0,
      "byteOffset": 64608,
      "componentType": 5125,
      "count": 816,
      "type": "SCALAR"
    },
    {
      "bufferView": 2,
      "byteOffset": 148320,
      "componentType": 5126,
      "count": 176,
      "max": [
        1.990112543106079,
        0.10914736986160278,
        0.05764955282211304
      ],
      "min": [
        -0.052896082401275635,
        -0.07756268978118896,
        -0.0725281834602356
      ],
      "type": "VEC3"
    },
    {
      "bufferView": 2,
      "byteOffset": 150432,
      "componentType": 5126,
      "count": 176,
      "max": [
        1.0,
        1.0,
        1.0
      ],
      "min": [
        -1.0,
        -1.0,
        -1.0
      ],
      "type": "VEC3"
    },
    {
      "bufferView": 1,
      "byteOffset": 494400,
      "componentType": 5126,
      "count": 176,
      "max": [
        0.9965382814407349,
        0.9693397283554077
      ],
      "min": [
        0.0034594833850860596,
        0.0034605704713612795
      ],
      "type": "VEC2"
    },
    {
      "bufferView": 1,
      "byteOffset": 495808,
      "componentType": 5126,
      "count": 176,
      "max": [
        0.9965382814407349,
        0.9693397283554077
      ],
      "min": [
        0.0034594833850860596,
        0.0034605704713612795
      ],
      "type": "VEC2"
    },
    {
      "bufferView": 1,
      "byteOffset": 497216,
      "componentType": 5126,
      "count": 176,
      "max": [
        0.9965382814407349,
        0.9693397283554077
      ],
      "min": [
        0.0034594833850860596,
        0.0034605704713612795
      ],
      "type": "VEC2"
    },
    {
      "bufferView": 1,
      "byteOffset": 498624,
      "componentType": 5126,
      "count": 176,
      "max": [
        0.9965382814407349,
        0.9693397283554077
      ],
      "min": [
        0.0034594833850860596,
        0.0034605704713612795
      ],
      "type": "VEC2"
    },
    {
      "bufferView": 1,
      "byteOffset": 500032,
      "componentType": 5126,
      "count": 176,
      "max": [
        0.9965382814407349,
        0.9693397283554077
      ],
      "min": [
        0.0034594833850860596,
        0.0034605704713612795
      ],
      "type": "VEC2"
    },
    {
      "bufferView": 1,
      "byteOffset": 501440,
      "componentType": 5126,
      "count": 176,
      "max": [
        0.9965382814407349,
        0.9693397283554077
      ],
      "min": [
        0.0034594833850860596,
        0.0034605704713612795
      ],
      "type": "VEC2"
    },
    {
      "bufferView": 1,
      "byteOffset": 502848,
      "componentType": 5126,
      "count": 176,
      "max": [
        0.9965382814407349,
        0.9693397283554077
      ],
      "min": [
        0.0034594833850860596,
        0.0034605704713612795
      ],
      "type": "VEC2"
    },
    {
      "bufferView": 1,
      "byteOffset": 504256,
      "componentType": 5126,
      "count": 176,
      "max": [
        0.9965382814407349,
        0.9693397283554077
      ],
      "min": [
        0.0034594833850860596,
        0.0034605704713612795
      ],
      "type": "VEC2"
    },
    {
      "bufferView": 1,
      "byteOffset": 505664,
      "componentType": 5126,
      "count": 176,
      "max": [
        0.9965382814407349,
        0.9693397283554077
      ],
      "min": [
        0.0034594833850860596,
        0.0034605704713612795
      ],
      "type": "VEC2"
    },
    {
      "bufferView": 1,
      "byteOffset": 507072,
      "componentType": 5126,
      "count": 176,
      "max": [
        0.9965382814407349,
        0.9693397283554077
      ],
      "min": [
        0.0034594833850860596,
        0.0034605704713612795
      ],
      "type": "VEC2"
    },
    {
      "bufferView": 0,
      "byteOffset": 67872,
      "componentType": 5125,
      "count": 408,
      "type": "SCALAR"
    },
    {
      "bufferView": 2,
      "byteOffset": 152544,
      "componentType": 5126,
      "count": 56,
      "max": [
        0.7890106439590454,
        0.18342351913452148,
        1.9881495237350464
      ],
      "min": [
        -0.7900511622428894,
        0.10538733005523682,
        -1.9881494045257568
      ],
      "type": "VEC3"
    },
    {
      "bufferView": 2,
      "byteOffset": 153216,
      "componentType": 5126,
      "count": 56,
      "max": [
        0.0,
        1.0,
        1.0
      ],
      "min": [
        0.0,
        -1.0,
        -1.0
      ],
      "type": "VEC3"
    },
    {
      "bufferView": 1,
      "byteOffset": 508480,
      "componentType": 5126,
      "count": 56,
      "max": [
        0.6029036641120911,
        0.7838535308837891
      ],
      "min": [
        0.4107764959335327,
        0.0038999151438474655
      ],
      "type": "VEC2"
    },
    {
      "bufferView": 1,
      "byteOffset": 508928,
      "componentType": 5126,
      "count": 56,
      "max": [
        0.6029036641120911,
        0.7838535308837891
      ],
      "min": [
        0.4107764959335327,
        0.0038999151438474655
      ],
      "type": "VEC2"
    },
    {
      "bufferView": 1,
      "byteOffset": 509376,
      "componentType": 5126,
      "count": 56,
      "max": [
        0.6029036641120911,
        0.7838535308837891
      ],
      "min": [
        0.4107764959335327,
        0.0038999151438474655
      ],
      "type": "VEC2"
    },
    {
      "bufferView": 1,
      "byteOffset": 509824,
      "componentType": 5126,
      "count": 56,
      "max": [
        0.6029036641120911,
        0.7838535308837891
      ],
      "min": [
        0.4107764959335327,
        0.0038999151438474655
      ],
      "type": "VEC2"
    },
    {
      "bufferView": 1,
      "byteOffset": 510272,
      "componentType": 5126,
      "count": 56,
      "max": [
        0.6029036641120911,
        0.7838535308837891
      ],
      "min": [
        0.4107764959335327,
        0.0038999151438474655
      ],
      "type": "VEC2"
    },
    {
      "bufferView": 1,
      "byteOffset": 510720,
      "componentType": 5126,
      "count": 56,
      "max": [
        0.6029036641120911,
        0.7838535308837891
      ],
      "min": [
        0.4107764959335327,
        0.0038999151438474655
      ],
      "type": "VEC2"
    },
    {
      "bufferView": 1,
      "byteOffset": 511168,
      "componentType": 5126,
      "count": 56,
      "max": [
        0.6029036641120911,
        0.7838535308837891
      ],
      "min": [
        0.4107764959335327,
        0.0038999151438474655
      ],
      "type": "VEC2"
    },
    {
      "bufferView": 1,
      "byteOffset": 511616,
      "componentType": 5126,
      "count": 56,
      "max": [
        0.6029036641120911,
        0.7838535308837891
      ],
      "min": [
        0.4107764959335327,
        0.0038999151438474655
      ],
      "type": "VEC2"
    },
    {
      "bufferView": 1,
      "byteOffset": 512064,
      "componentType": 5126,
      "count": 56,
      "max": [
        0.6029036641120911,
        0.7838535308837891
      ],
      "min": [
        0.4107764959335327,
        0.0038999151438474655
      ],
      "type": "VEC2"
    },
    {
      "bufferView": 1,
      "byteOffset": 512512,
      "componentType": 5126,
      "count": 56,
      "max": [
        0.6029036641120911,
        0.7838535308837891
      ],
      "min": [
        0.4107764959335327,
        0.0038999151438474655
      ],
      "type": "VEC2"
    },
    {
      "bufferView": 0,
      "byteOffset": 69504,
      "componentType": 5125,
      "count": 84,
      "type": "SCALAR"
    },
    {
      "bufferView": 2,
      "byteOffset": 153888,
      "componentType": 5126,
      "count": 608,
      "max": [
        1.4143470525741577,
        3.859793186187744,
        0.047139883041381836
      ],
      "min": [
        -0.08603084087371826,
        -0.08603084087371826,
        -0.0398716926574707
      ],
      "type": "VEC3"
    },
    {
      "bufferView": 2,
      "byteOffset": 161184,
      "componentType": 5126,
      "count": 608,
      "max": [
        1.0,
        1.0,
        0.998333215713501
      ],
      "min": [
        -0.9239083528518677,
        -1.0,
        -1.0
      ],
      "type": "VEC3"
    },
    {
      "bufferView": 1,
      "byteOffset": 512960,
      "componentType": 5126,
      "count": 608,
      "max": [
        0.9453322291374207,
        0.9201085567474365
      ],
      "min": [
        0.003463087137788534,
        0.003461912041530013
      ],
      "type": "VEC2"
    },
    {
      "bufferView": 1,
      "byteOffset": 517824,
      "componentType": 5126,
      "count": 608,
      "max": [
        0.9453322291374207,
        0.9201085567474365
      ],
      "min": [
        0.003463087137788534,
        0.003461912041530013
      ],
      "type": "VEC2"
    },
    {
      "bufferView": 1,
      "byteOffset": 522688,
      "componentType": 5126,
      "count": 608,
      "max": [
        0.9453322291374207,
        0.9201085567474365
      ],
      "min": [
        0.003463087137788534,
        0.003461912041530013
      ],
      "type": "VEC2"
    },
    {
      "bufferView": 1,
      "byteOffset": 527552,
      "componentType": 5126,
      "count": 608,
      "max": [
        0.9453322291374207,
        0.9201085567474365
      ],
      "min": [
        0.003463087137788534,
        0.003461912041530013
      ],
      "type": "VEC2"
    },
    {
      "bufferView": 1,
      "byteOffset": 532416,
      "componentType": 5126,
      "count": 608,
      "max": [
        0.9453322291374207,
        0.9201085567474365
      ],
      "min": [
        0.003463087137788534,
        0.003461912041530013
      ],
      "type": "VEC2"
    },
    {
      "bufferView": 1,
      "byteOffset": 537280,
      "componentType": 5126,
      "count": 608,
      "max": [
        0.9453322291374207,
        0.9201085567474365
      ],
      "min": [
        0.003463087137788534,
        0.003461912041530013
      ],
      "type": "VEC2"
    },
    {
      "bufferView": 1,
      "byteOffset": 542144,
      "componentType": 5126,
      "count": 608,
      "max": [
        0.9453322291374207,
        0.9201085567474365
      ],
      "min": [
        0.003463087137788534,
        0.003461912041530013
      ],
      "type": "VEC2"
    },
    {
      "bufferView": 1,
      "byteOffset": 547008,
      "componentType": 5126,
      "count": 608,
      "max": [
        0.9453322291374207,
        0.9201085567474365
      ],
      "min": [
        0.003463087137788534,
        0.003461912041530013
      ],
      "type": "VEC2"
    },
    {
      "bufferView": 1,
      "byteOffset": 551872,
      "componentType": 5126,
      "count": 608,
      "max": [
        0.9453322291374207,
        0.9201085567474365
      ],
      "min": [
        0.003463087137788534,
        0.003461912041530013
      ],
      "type": "VEC2"
    },
    {
      "bufferView": 1,
      "byteOffset": 556736,
      "componentType": 5126,
      "count": 608,
      "max": [
        0.9453322291374207,
        0.9201085567474365
      ],
      "min": [
        0.003463087137788534,
        0.003461912041530013
      ],
      "type": "VEC2"
    },
    {
      "bufferView": 0,
      "byteOffset": 69840,
      "componentType": 5125,
      "count": 1488,
      "type": "SCALAR"
    },
    {
      "bufferView": 2,
      "byteOffset": 168480,
      "componentType": 5126,
      "count": 304,
      "max": [
        0.08603084087371826,
        2.042372226715088,
        0.047139883041381836
      ],
      "min": [
        -0.08603078126907349,
        -0.08603096008300781,
        -0.0398716926574707
      ],
      "type": "VEC3"
    },
    {
      "bufferView": 2,
      "byteOffset": 172128,
      "componentType": 5126,
      "count": 304,
      "max": [
        1.0,
        0.9239064455032349,
        0.9983331561088562
      ],
      "min": [
        -0.9239033460617065,
        -1.0,
        -1.0
      ],
      "type": "VEC3"
    },
    {
      "bufferView": 1,
      "byteOffset": 561600,
      "componentType": 5126,
      "count": 304,
      "max": [
        0.9453322291374207,
        0.9201085567474365
      ],
      "min": [
        0.003463087137788534,
        0.003461912041530013
      ],
      "type": "VEC2"
    },
    {
      "bufferView": 1,
      "byteOffset": 564032,
      "componentType": 5126,
      "count": 304,
      "max": [
        0.9453322291374207,
        0.9201085567474365
      ],
      "min": [
        0.003463087137788534,
        0.003461912041530013
      ],
      "type": "VEC2"
    },
    {
      "bufferView": 1,
      "byteOffset": 566464,
      "componentType": 5126,
      "count": 304,
      "max": [
        0.9453322291374207,
        0.9201085567474365
      ],
      "min": [
        0.003463087137788534,
        0.003461912041530013
      ],
      "type": "VEC2"
    },
    {
      "bufferView": 1,
      "byteOffset": 568896,
      "componentType": 5126,
      "count": 304,
      "max": [
        0.9453322291374207,
        0.9201085567474365
      ],
      "min": [
        0.003463087137788534,
        0.003461912041530013
      ],
      "type": "VEC2"
    },
    {
      "bufferView": 1,
      "byteOffset": 571328,
      "componentType": 5126,
      "count": 304,
      "max": [
        0.9453322291374207,
        0.9201085567474365
      ],
      "min": [
        0.003463087137788534,
        0.003461912041530013
      ],
      "type": "VEC2"
    },
    {
      "bufferView": 1,
      "byteOffset": 573760,
      "componentType": 5126,
      "count": 304,
      "max": [
        0.9453322291374207,
        0.9201085567474365
      ],
      "min": [
        0.003463087137788534,
        0.003461912041530013
      ],
      "type": "VEC2"
    },
    {
      "bufferView": 1,
      "byteOffset": 576192,
      "componentType": 5126,
      "count": 304,
      "max": [
        0.9453322291374207,
        0.9201085567474365
      ],
      "min": [
        0.003463087137788534,
        0.003461912041530013
      ],
      "type": "VEC2"
    },
    {
      "bufferView": 1,
      "byteOffset": 578624,
      "componentType": 5126,
      "count": 304,
      "max": [
        0.9453322291374207,
        0.9201085567474365
      ],
      "min": [
        0.003463087137788534,
        0.003461912041530013
      ],
      "type": "VEC2"
    },
    {
      "bufferView": 1,
      "byteOffset": 581056,
      "componentType": 5126,
      "count": 304,
      "max": [
        0.9453322291374207,
        0.9201085567474365
      ],
      "min": [
        0.003463087137788534,
        0.003461912041530013
      ],
      "type": "VEC2"
    },
    {
      "bufferView": 1,
      "byteOffset": 583488,
      "componentType": 5126,
      "count": 304,
      "max": [
        0.9453322291374207,
        0.9201085567474365
      ],
      "min": [
        0.003463087137788534,
        0.003461912041530013
      ],
      "type": "VEC2"
    },
    {
      "bufferView": 0,
      "byteOffset": 75792,
      "componentType": 5125,
      "count": 744,
      "type": "SCALAR"
    },
    {
      "bufferView": 2,
      "byteOffset": 175776,
      "componentType": 5126,
      "count": 280,
      "max": [
        0.08949995040893555,
        2.961513042449951,
        0.05328512191772461
      ],
      "min": [
        -0.08949998021125793,
        -0.08949995040893555,
        -0.0033762454986572266
      ],
      "type": "VEC3"
    },
    {
      "bufferView": 2,
      "byteOffset": 179136,
      "componentType": 5126,
      "count": 280,
      "max": [
        0.9780585765838623,
        0.9780711531639099,
        1.0
      ],
      "min": [
        -0.9780575037002563,
        -0.9780318140983582,
        -1.4210854715202004e-14
      ],
      "type": "VEC3"
    },
    {
      "bufferView": 1,
      "byteOffset": 585920,
      "componentType": 5126,
      "count": 280,
      "max": [
        0.9636581540107727,
        0.9944051504135132
      ],
      "min": [
        0.004726879298686981,
        0.004725694190710783
      ],
      "type": "VEC2"
    },
    {
      "bufferView": 1,
      "byteOffset": 588160,
      "componentType": 5126,
      "count": 280,
      "max": [
        0.9636581540107727,
        0.9944051504135132
      ],
      "min": [
        0.004726879298686981,
        0.004725694190710783
      ],
      "type": "VEC2"
    },
    {
      "bufferView": 1,
      "byteOffset": 590400,
      "componentType": 5126,
      "count": 280,
      "max": [
        0.9636581540107727,
        0.9944051504135132
      ],
      "min": [
        0.004726879298686981,
        0.004725694190710783
      ],
      "type": "VEC2"
    },
    {
      "bufferView": 1,
      "byteOffset": 592640,
      "componentType": 5126,
      "count": 280,
      "max": [
        0.9636581540107727,
        0.9944051504135132
      ],
      "min": [
        0.004726879298686981,
        0.004725694190710783
      ],
      "type": "VEC2"
    },
    {
      "bufferView": 1,
      "byteOffset": 594880,
      "componentType": 5126,
      "count": 280,
      "max": [
        0.9636581540107727,
        0.9944051504135132
      ],
      "min": [
        0.004726879298686981,
        0.004725694190710783
      ],
      "type": "VEC2"
    },
    {
      "bufferView": 1,
      "byteOffset": 597120,
      "componentType": 5126,
      "count": 280,
      "max": [
        0.9636581540107727,
        0.9944051504135132
      ],
      "min": [
        0.004726879298686981,
        0.004725694190710783
      ],
      "type": "VEC2"
    },
    {
      "bufferView": 1,
      "byteOffset": 599360,
      "componentType": 5126,
      "count": 280,
      "max": [
        0.9636581540107727,
        0.9944051504135132
      ],
      "min": [
        0.004726879298686981,
        0.004725694190710783
      ],
      "type": "VEC2"
    },
    {
      "bufferView": 1,
      "byteOffset": 601600,
      "componentType": 5126,
      "count": 280,
      "max": [
        0.9636581540107727,
        0.9944051504135132
      ],
      "min": [
        0.004726879298686981,
        0.004725694190710783
      ],
      "type": "VEC2"
    },
    {
      "bufferView": 1,
      "byteOffset": 603840,
      "componentType": 5126,
      "count": 280,
      "max": [
        0.9636581540107727,
        0.9944051504135132
      ],
      "min": [
        0.004726879298686981,
        0.004725694190710783
      ],
      "type": "VEC2"
    },
    {
      "bufferView": 1,
      "byteOffset": 606080,
      "componentType": 5126,
      "count": 280,
      "max": [
        0.9636581540107727,
        0.9944051504135132
      ],
      "min": [
        0.004726879298686981,
        0.004725694190710783
      ],
      "type": "VEC2"
    },
    {
      "bufferView": 0,
      "byteOffset": 78768,
      "componentType": 5125,
      "count": 1224,
      "type": "SCALAR"
    },
    {
      "bufferView": 2,
      "byteOffset": 182496,
      "componentType": 5126,
      "count": 1332,
      "max": [
        0.86990886926651,
        0.5012739896774292,
        1.2973428964614868
      ],
      "min": [
        -0.8611854910850525,
        -0.29003024101257324,
        -1.9319137334823608
      ],
      "type": "VEC3"
    },
    {
      "bufferView": 2,
      "byteOffset": 198480,
      "componentType": 5126,
      "count": 1332,
      "max": [
        0.9963558316230774,
        0.9774450063705444,
        1.0
      ],
      "min": [
        -0.9926192164421082,
        -1.0,
        -1.0
      ],
      "type": "VEC3"
    },
    {
      "bufferView": 1,
      "byteOffset": 608320,
      "componentType": 5126,
      "count": 1332,
      "max": [
        0.7836436629295349,
        0.9862919449806213
      ],
      "min": [
        0.004053392447531223,
        0.06088712066411972
      ],
      "type": "VEC2"
    },
    {
      "bufferView": 1,
      "byteOffset": 618976,
      "componentType": 5126,
      "count": 1332,
      "max": [
        0.7836436629295349,
        0.9862919449806213
      ],
      "min": [
        0.004053392447531223,
        0.06088712066411972
      ],
      "type": "VEC2"
    },
    {
      "bufferView": 1,
      "byteOffset": 629632,
      "componentType": 5126,
      "count": 1332,
      "max": [
        0.7836436629295349,
        0.9862919449806213
      ],
      "min": [
        0.004053392447531223,
        0.06088712066411972
      ],
      "type": "VEC2"
    },
    {
      "bufferView": 1,
      "byteOffset": 640288,
      "componentType": 5126,
      "count": 1332,
      "max": [
        0.7836436629295349,
        0.9862919449806213
      ],
      "min": [
        0.004053392447531223,
        0.06088712066411972
      ],
      "type": "VEC2"
    },
    {
      "bufferView": 1,
      "byteOffset": 650944,
      "componentType": 5126,
      "count": 1332,
      "max": [
        0.7836436629295349,
        0.9862919449806213
      ],
      "min": [
        0.004053392447531223,
        0.06088712066411972
      ],
      "type": "VEC2"
    },
    {
      "bufferView": 1,
      "byteOffset": 661600,
      "componentType": 5126,
      "count": 1332,
      "max": [
        0.7836436629295349,
        0.9862919449806213
      ],
      "min": [
        0.004053392447531223,
        0.06088712066411972
      ],
      "type": "VEC2"
    },
    {
      "bufferView": 1,
      "byteOffset": 672256,
      "componentType": 5126,
      "count": 1332,
      "max": [
        0.7836436629295349,
        0.9862919449806213
      ],
      "min": [
        0.004053392447531223,
        0.06088712066411972
      ],
      "type": "VEC2"
    },
    {
      "bufferView": 1,
      "byteOffset": 682912,
      "componentType": 5126,
      "count": 1332,
      "max": [
        0.7836436629295349,
        0.9862919449806213
      ],
      "min": [
        0.004053392447531223,
        0.06088712066411972
      ],
      "type": "VEC2"
    },
    {
      "bufferView": 1,
      "byteOffset": 693568,
      "componentType": 5126,
      "count": 1332,
      "max": [
        0.7836436629295349,
        0.9862919449806213
      ],
      "min": [
        0.004053392447531223,
        0.06088712066411972
      ],
      "type": "VEC2"
    },
    {
      "bufferView": 1,
      "byteOffset": 704224,
      "componentType": 5126,
      "count": 1332,
      "max": [
        0.7836436629295349,
        0.9862919449806213
      ],
      "min": [
        0.004053392447531223,
        0.06088712066411972
      ],
      "type": "VEC2"
    },
    {
      "bufferView": 0,
      "byteOffset": 83664,
      "componentType": 5125,
      "count": 3384,
      "type": "SCALAR"
    }
  ],
  "asset": {
    "extras": {
      "author": "davidtsoenyane (https://sketchfab.com/davidtsoenyane)",
      "license": "SKETCHFAB Standard (https://sketchfab.com/licenses)",
      "source": "https://sketchfab.com/3d-models/stylized-bus-stop-fortnite-f9d348c318544d9daab9d488b77d2668",
      "title": "Stylized Bus Stop - Fortnite"
    },
    "generator": "Sketchfab-16.68.0",
    "version": "2.0"
  },
  "bufferViews": [
    {
      "buffer": 0,
      "byteLength": 97200,
      "name": "floatBufferViews",
      "target": 34963
    },
    {
      "buffer": 0,
      "byteLength": 714880,
      "byteOffset": 97200,
      "byteStride": 8,
      "name": "floatBufferViews",
      "target": 34962
    },
    {
      "buffer": 0,
      "byteLength": 214464,
      "byteOffset": 812080,
      "byteStride": 12,
      "name": "floatBufferViews",
      "target": 34962
    }
  ],
  "buffers": [
    {
      "byteLength": 1026544,
      "uri": "scene.bin"
    }
  ],
  "extensionsUsed": [
    "KHR_materials_specular"
  ],
  "images": [
    {
      "uri": "textures/fLOOR_baseColor.png"
    },
    {
      "uri": "textures/fLOOR_metallicRoughness.png"
    },
    {
      "uri": "textures/Poles_baseColor.png"
    },
    {
      "uri": "textures/Poles_metallicRoughness.png"
    },
    {
      "uri": "textures/Roof_baseColor.png"
    },
    {
      "uri": "textures/Roof_metallicRoughness.png"
    },
    {
      "uri": "textures/Boards_baseColor.png"
    },
    {
      "uri": "textures/Boards_metallicRoughness.png"
    },
    {
      "uri": "textures/Bench_baseColor.png"
    },
    {
      "uri": "textures/Bench_metallicRoughness.png"
    }
  ],
  "materials": [
    {
      "doubleSided": true,
      "extensions": {
        "KHR_materials_specular": {
          "specularColorFactor": [
            1.0,
            1.0,
            1.0
          ],
          "specularFactor": 0.0
        }
      },
      "name": "fLOOR",
      "occlusionTexture": {
        "index": 1
      },
      "pbrMetallicRoughness": {
        "baseColorTexture": {
          "index": 0
        },
        "metallicFactor": 0.0,
        "metallicRoughnessTexture": {
          "index": 1
        }
      }
    },
    {
      "doubleSided": true,
      "extensions": {
        "KHR_materials_specular": {
          "specularColorFactor": [
            1.0,
            1.0,
            1.0
          ],
          "specularFactor": 0.0
        }
      },
      "name": "Poles",
      "occlusionTexture": {
        "index": 3
      },
      "pbrMetallicRoughness": {
        "baseColorTexture": {
          "index": 2
        },
        "metallicFactor": 0.0,
        "metallicRoughnessTexture": {
          "index": 3
        }
      }
    },
    {
      "doubleSided": true,
      "extensions": {
        "KHR_materials_specular": {
          "specularColorFactor": [
            1.0,
            1.0,
            1.0
          ],
          "specularFactor": 0.0
        }
      },
      "name": "Roof",
      "occlusionTexture": {
        "index": 5
      },
      "pbrMetallicRoughness": {
        "baseColorTexture": {
          "index": 4
        },
        "metallicFactor": 0.0,
        "metallicRoughnessTexture": {
          "index": 5
        },
        "roughnessFactor": 0.9577051494623774
      }
    },
    {
      "doubleSided": true,
      "extensions": {
        "KHR_materials_specular": {
          "specularColorFactor": [
            1.0,
            1.0,
            1.0
          ],
          "specularFactor": 0.0
        }
      },
      "name": "Boards",
      "occlusionTexture": {
        "index": 7
      },
      "pbrMetallicRoughness": {
        "baseColorTexture": {
          "index": 6
        },
        "metallicFactor": 0.0,
        "metallicRoughnessTexture": {
          "index": 7
        },
        "roughnessFactor": 0.0
      }
    },
    {
      "doubleSided": true,
      "extensions": {
        "KHR_materials_specular": {
          "specularColorFactor": [
            1.0,
            1.0,
            1.0
          ],
          "specularFactor": 0.0
        }
      },
      "name": "Bench",
      "occlusionTexture": {
        "index": 9
      },
      "pbrMetallicRoughness": {
        "baseColorTexture": {
          "index": 8
        },
        "metallicFactor": 0.0,
        "metallicRoughnessTexture": {
          "index": 9
        },
        "roughnessFactor": 0.0
      }
    }
  ],
  "meshes": [
    {
      "name": "Floor_fLOOR_0",
      "primitives": [
        {
          "attributes": {
            "NORMAL": 1,
            "POSITION": 0,
            "TEXCOORD_0": 2,
            "TEXCOORD_1": 3,
            "TEXCOORD_2": 4,
            "TEXCOORD_3": 5,
            "TEXCOORD_4": 6,
            "TEXCOORD_5": 7,
            "TEXCOORD_6": 8,
            "TEXCOORD_7": 9,
            "TEXCOORD_8": 10,
            "TEXCOORD_9": 11
          },
          "indices": 12,
          "material": 0,
          "mode": 4
        }
      ]
    },
    {
      "name": "Side_Poles_Poles_0",
      "primitives": [
        {
          "attributes": {
            "NORMAL": 14,
            "POSITION": 13,
            "TEXCOORD_0": 15,
            "TEXCOORD_1": 16,
            "TEXCOORD_2": 17,
            "TEXCOORD_3": 18,
            "TEXCOORD_4": 19,
            "TEXCOORD_5": 20,
            "TEXCOORD_6": 21,
            "TEXCOORD_7": 22,
            "TEXCOORD_8": 23,
            "TEXCOORD_9": 24
          },
          "indices": 25,
          "material": 1,
          "mode": 4
        }
      ]
    },
    {
      "name": "Center_Poles_Poles_0",
      "primitives": [
        {
          "attributes": {
            "NORMAL": 27,
            "POSITION": 26,
            "TEXCOORD_0": 28,
            "TEXCOORD_1": 29,
            "TEXCOORD_2": 30,
            "TEXCOORD_3": 31,
            "TEXCOORD_4": 32,
            "TEXCOORD_5": 33,
            "TEXCOORD_6": 34,
            "TEXCOORD_7": 35,
            "TEXCOORD_8": 36,
            "TEXCOORD_9": 37
          },
          "indices": 38,
          "material": 1,
          "mode": 4
        }
      ]
    },
    {
      "name": "Roof_Roof_0",
      "primitives": [
        {
          "attributes": {
            "NORMAL": 40,
            "POSITION": 39,
            "TEXCOORD_0": 41,
            "TEXCOORD_1": 42,
            "TEXCOORD_2": 43,
            "TEXCOORD_3": 44,
            "TEXCOORD_4": 45,
            "TEXCOORD_5": 46,
            "TEXCOORD_6": 47,
            "TEXCOORD_7": 48,
            "TEXCOORD_8": 49,
            "TEXCOORD_9": 50
          },
          "indices": 51,
          "material": 2,
          "mode": 4
        }
      ]
    },
    {
      "name": "Board_center_Boards_0",
      "primitives": [
        {
          "attributes": {
            "NORMAL": 53,
            "POSITION": 52,
            "TEXCOORD_0": 54,
            "TEXCOORD_1": 55,
            "TEXCOORD_2": 56,
            "TEXCOORD_3": 57,
            "TEXCOORD_4": 58,
            "TEXCOORD_5": 59,
            "TEXCOORD_6": 60,
            "TEXCOORD_7": 61,
            "TEXCOORD_8": 62,
            "TEXCOORD_9": 63
          },
          "indices": 64,
          "material": 3,
          "mode": 4
        }
      ]
    },
    {
      "name": "bench_Bench_0",
      "primitives": [
        {
          "attributes": {
            "NORMAL": 66,
            "POSITION": 65,
            "TEXCOORD_0": 67,
            "TEXCOORD_1": 68,
            "TEXCOORD_2": 69,
            "TEXCOORD_3": 70,
            "TEXCOORD_4": 71,
            "TEXCOORD_5": 72,
            "TEXCOORD_6": 73,
            "TEXCOORD_7": 74,
            "TEXCOORD_8": 75,
            "TEXCOORD_9": 76
          },
          "indices": 77,
          "material": 4,
          "mode": 4
        }
      ]
    },
    {
      "name": "Cylinder.002_Bench_0",
      "primitives": [
        {
          "attributes": {
            "NORMAL": 79,
            "POSITION": 78,
            "TEXCOORD_0": 80,
            "TEXCOORD_1": 81,
            "TEXCOORD_2": 82,
            "TEXCOORD_3": 83,
            "TEXCOORD_4": 84,
            "TEXCOORD_5": 85,
            "TEXCOORD_6": 86,
            "TEXCOORD_7": 87,
            "TEXCOORD_8": 88,
            "TEXCOORD_9": 89
          },
          "indices": 90,
          "material": 4,
          "mode": 4
        }
      ]
    },
    {
      "name": "Board_sides_Boards_0",
      "primitives": [
        {
          "attributes": {
            "NORMAL": 92,
            "POSITION": 91,
            "TEXCOORD_0": 93,
            "TEXCOORD_1": 94,
            "TEXCOORD_2": 95,
            "TEXCOORD_3": 96,
            "TEXCOORD_4": 97,
            "TEXCOORD_5": 98,
            "TEXCOORD_6": 99,
            "TEXCOORD_7": 100,
            "TEXCOORD_8": 101,
            "TEXCOORD_9": 102
          },
          "indices": 103,
          "material": 3,
          "mode": 4
        }
      ]
    },
    {
      "name": "Roof.001_Roof_0",
      "primitives": [
        {
          "attributes": {
            "NORMAL": 105,
            "POSITION": 104,
            "TEXCOORD_0": 106,
            "TEXCOORD_1": 107,
            "TEXCOORD_2": 108,
            "TEXCOORD_3": 109,
            "TEXCOORD_4": 110,
            "TEXCOORD_5": 111,
            "TEXCOORD_6": 112,
            "TEXCOORD_7": 113,
            "TEXCOORD_8": 114,
            "TEXCOORD_9": 115
          },
          "indices": 116,
          "material": 2,
          "mode": 4
        }
      ]
    },
    {
      "name": "Cube_Poles_0",
      "primitives": [
        {
          "attributes": {
            "NORMAL": 118,
            "POSITION": 117,
            "TEXCOORD_0": 119,
            "TEXCOORD_1": 120,
            "TEXCOORD_2": 121,
            "TEXCOORD_3": 122,
            "TEXCOORD_4": 123,
            "TEXCOORD_5": 124,
            "TEXCOORD_6": 125,
            "TEXCOORD_7": 126,
            "TEXCOORD_8": 127,
            "TEXCOORD_9": 128
          },
          "indices": 129,
          "material": 1,
          "mode": 4
        }
      ]
    },
    {
      "name": "Cube.001_Poles_0",
      "primitives": [
        {
          "attributes": {
            "NORMAL": 131,
            "POSITION": 130,
            "TEXCOORD_0": 132,
            "TEXCOORD_1": 133,
            "TEXCOORD_2": 134,
            "TEXCOORD_3": 135,
            "TEXCOORD_4": 136,
            "TEXCOORD_5": 137,
            "TEXCOORD_6": 138,
            "TEXCOORD_7": 139,
            "TEXCOORD_8": 140,
            "TEXCOORD_9": 141
          },
          "indices": 142,
          "material": 1,
          "mode": 4
        }
      ]
    },
    {
      "name": "Roof.002_Roof_0",
      "primitives": [
        {
          "attributes": {
            "NORMAL": 144,
            "POSITION": 143,
            "TEXCOORD_0": 145,
            "TEXCOORD_1": 146,
            "TEXCOORD_2": 147,
            "TEXCOORD_3": 148,
            "TEXCOORD_4": 149,
            "TEXCOORD_5": 150,
            "TEXCOORD_6": 151,
            "TEXCOORD_7": 152,
            "TEXCOORD_8": 153,
            "TEXCOORD_9": 154
          },
          "indices": 155,
          "material": 2,
          "mode": 4
        }
      ]
    },
    {
      "name": "Cube.002_Poles_0",
      "primitives": [
        {
          "attributes": {
            "NORMAL": 157,
            "POSITION": 156,
            "TEXCOORD_0": 158,
            "TEXCOORD_1": 159,
            "TEXCOORD_2": 160,
            "TEXCOORD_3": 161,
            "TEXCOORD_4": 162,
            "TEXCOORD_5": 163,
            "TEXCOORD_6": 164,
            "TEXCOORD_7": 165,
            "TEXCOORD_8": 166,
            "TEXCOORD_9": 167
          },
          "indices": 168,
          "material": 1,
          "mode": 4
        }
      ]
    },
    {
      "name": "Cube.003_Poles_0",
      "primitives": [
        {
          "attributes": {
            "NORMAL": 170,
            "POSITION": 169,
            "TEXCOORD_0": 171,
            "TEXCOORD_1": 172,
            "TEXCOORD_2": 173,
            "TEXCOORD_3": 174,
            "TEXCOORD_4": 175,
            "TEXCOORD_5": 176,
            "TEXCOORD_6": 177,
            "TEXCOORD_7": 178,
            "TEXCOORD_8": 179,
            "TEXCOORD_9": 180
          },
          "indices": 181,
          "material": 1,
          "mode": 4
        }
      ]
    },
    {
      "name": "Plane_Bench_0",
      "primitives": [
        {
          "attributes": {
            "NORMAL": 183,
            "POSITION": 182,
            "TEXCOORD_0": 184,
            "TEXCOORD_1": 185,
            "TEXCOORD_2": 186,
            "TEXCOORD_3": 187,
            "TEXCOORD_4": 188,
            "TEXCOORD_5": 189,
            "TEXCOORD_6": 190,
            "TEXCOORD_7": 191,
            "TEXCOORD_8": 192,
            "TEXCOORD_9": 193
          },
          "indices": 194,
          "material": 4,
          "mode": 4
        }
      ]
    },
    {
      "name": "Roof.003_Roof_0",
      "primitives": [
        {
          "attributes": {
            "NORMAL": 196,
            "POSITION": 195,
            "TEXCOORD_0": 197,
            "TEXCOORD_1": 198,
            "TEXCOORD_2": 199,
            "TEXCOORD_3": 200,
            "TEXCOORD_4": 201,
            "TEXCOORD_5": 202,
            "TEXCOORD_6": 203,
            "TEXCOORD_7": 204,
            "TEXCOORD_8": 205,
            "TEXCOORD_9": 206
          },
          "indices": 207,
          "material": 2,
          "mode": 4
        }
      ]
    }
  ],
  "nodes": [
    {
      "children": [
        1
      ],
      "matrix": [
        0.9579132199287415,
        0.0,
        0.0,
        0.0,
        0.0,
        2.1269946247154202e-16,
        -0.9579132199287415,
        0.0,
        0.0,
        0.9579132199287415,
        2.1269946247154202e-16,
        0.0,
        0.0,
        0.0,
        0.0,
        1.0
      ],
      "name": "Sketchfab_model"
    },
    {
      "children": [
        2
      ],
      "matrix": [
        0.009999999776482582,
        0.0,
        0.0,
        0.0,
        0.0,
        0.0,
        0.009999999776482582,
        0.0,
        0.0,
        -0.009999999776482582,
        0.0,
        0.0,
        0.0,
        0.0,
        0.0,
        1.0
      ],
      "name": "5bc49abfb87749d0a80f15fc71a2493b.fbx"
    },
    {
      "children": [
        3,
        5,
        7,
        9,
        11,
        13,
        17,
        19,
        21,
        23,
        25,
        27,
        29,
        31,
        33
      ],
      "name": "RootNode"
    },
    {
      "children": [
        4
      ],
      "matrix": [
        100.0,
        0.0,
        0.0,
        0.0,
        0.0,
        -1.331580541386046e-05,
        -99.99999999999912,
        0.0,
        0.0,
        99.99999999999912,
        -1.331580541386046e-05,
        0.0,
        0.0,
        0.0,
        0.0,
        1.0
      ],
      "name": "Floor"
    },
    {
      "mesh": 0,
      "name": "Floor_fLOOR_0"
    },
    {
      "children": [
        6
      ],
      "matrix": [
        100.0,
        0.0,
        0.0,
        0.0,
        -0.0,
        -1.331580541386046e-05,
        -99.99999999999912,
        0.0,
        0.0,
        99.99999999999912,
        -1.331580541386046e-05,
        0.0,
        -66.42277526855469,
        3.6620259284973145,
        188.5968017578125,
        1.0
      ],
      "name": "Side_Poles"
    },
    {
      "mesh": 1,
      "name": "Side_Poles_Poles_0"
    },
    {
      "children": [
        8
      ],
      "matrix": [
        100.0,
        0.0,
        0.0,
        0.0,
        0.0,
        -1.331580541386046e-05,
        -99.99999999999912,
        0.0,
        0.0,
        99.99999999999912,
        -1.331580541386046e-05,
        0.0,
        66.1573486328125,
        3.6620259284973145,
        97.9118423461914,
        1.0
      ],
      "name": "Center_Poles"
    },
    {
      "mesh": 2,
      "name": "Center_Poles_Poles_0"
    },
    {
      "children": [
        10
      ],
      "matrix": [
        100.0,
        0.0,
        0.0,
        0.0,
        0.0,
        -99.99999999998583,
        5.326322180091256e-05,
        0.0,
        0.0,
        -5.326322180091256e-05,
        -99.99999999998583,
        0.0,
        0.0,
        224.096435546875,
        -0.8531880378723145,
        1.0
      ],
      "name": "Roof"
    },
    {
      "mesh": 3,
      "name": "Roof_Roof_0"
    },
    {
      "children": [
        12
      ],
      "matrix": [
        100.0,
        0.0,
        0.0,
        0.0,
        0.0,
        -1.331580541386046e-05,
        -99.99999999999912,
        0.0,
        0.0,
        99.99999999999912,
        -1.331580541386046e-05,
        0.0,
        66.22704315185547,
        118.1003189086914,
        0.0,
        1.0
      ],
      "name": "Board_center"
    },
    {
      "mesh": 4,
      "name": "Board_center_Boards_0"
    },
    {
      "children": [
        14,
        15
      ],
      "matrix": [
        100.0,
        0.0,
        0.0,
        0.0,
        0.0,
        -1.331580541386046e-05,
        -99.99999999999912,
        0.0,
        0.0,
        99.99999999999912,
        -1.331580541386046e-05,
        0.0,
        41.054630279541016,
        68.515380859375,
        0.0,
        1.0
      ],
      "name": "bench"
    },
    {
      "mesh": 5,
      "name": "bench_Bench_0"
    },
    {
      "children": [
        16
      ],
      "matrix": [
        1.0,
        0.0,
        0.0,
        0.0,
        0.0,
        1.0,
        -7.940933880509066e-23,
        0.0,
        0.0,
        7.940933880509066e-23,
        1.0,
        0.0,
        -0.11657831072807312,
        -1.437389612197876,
        -0.6740520596504211,
        1.0
      ],
      "name": "Cylinder.002"
    },
    {
      "mesh": 6,
      "name": "Cylinder.002_Bench_0"
    },
    {
      "children": [
        18
      ],
      "matrix": [
        63.0419807434082,
        0.0,
        0.0,
        0.0,
        0.0,
        -4.693991066245928e-07,
        -3.5251274108886403,
        0.0,
        0.0,
        77.78629302978446,
        -1.0357871418501493e-05,
        0.0,
        0.0,
        112.73246002197266,
        188.28256225585938,
        1.0
      ],
      "name": "Board_sides"
    },
    {
      "mesh": 7,
      "name": "Board_sides_Boards_0"
    },
    {
      "children": [
        20
      ],
      "matrix": [
        100.0,
        0.0,
        0.0,
        0.0,
        0.0,
        -99.99999999998583,
        5.326322180091256e-05,
        0.0,
        0.0,
        -5.326322180091256e-05,
        -99.99999999998583,
        0.0,
        0.0,
        224.096435546875,
        -0.8531880378723145,
        1.0
      ],
      "name": "Roof.001"
    },
    {
      "mesh": 8,
      "name": "Roof.001_Roof_0"
    },
    {
      "children": [
        22
      ],
      "matrix": [
        100.0,
        0.0,
        0.0,
        0.0,
        -0.0,
        -1.331580541386046e-05,
        -99.99999999999912,
        0.0,
        0.0,
        99.99999999999912,
        -1.331580541386046e-05,
        0.0,
        -65.95040893554688,
        199.98916625976563,
        185.64932250976563,
        1.0
      ],
      "name": "Cube"
    },
    {
      "mesh": 9,
      "name": "Cube_Poles_0"
    },
    {
      "children": [
        24
      ],
      "matrix": [
        2.220446049250313e-14,
        -5.551115123125783e-15,
        -100.0,
        0.0,
        -99.99999999999912,
        -1.331580545826938e-05,
        -1.6653345369377348e-14,
        0.0,
        -1.3315805463820496e-05,
        99.99999999999912,
        0.0,
        0.0,
        62.96149444580078,
        199.98916625976563,
        96.8608169555664,
        1.0
      ],
      "name": "Cube.001"
    },
    {
      "mesh": 10,
      "name": "Cube.001_Poles_0"
    },
    {
      "children": [
        26
      ],
      "matrix": [
        100.0,
        0.0,
        0.0,
        0.0,
        0.0,
        -99.99999999998583,
        5.326322180091256e-05,
        0.0,
        0.0,
        -5.326322180091256e-05,
        -99.99999999998583,
        0.0,
        0.0,
        224.096435546875,
        -0.8531880378723145,
        1.0
      ],
      "name": "Roof.002"
    },
    {
      "mesh": 11,
      "name": "Roof.002_Roof_0"
    },
    {
      "children": [
        28
      ],
      "matrix": [
        100.0,
        0.0,
        0.0,
        0.0,
        -0.0,
        -1.331580541386046e-05,
        -99.99999999999912,
        0.0,
        0.0,
        99.99999999999912,
        -1.331580541386046e-05,
        0.0,
        -66.47945404052734,
        4.014395713806152,
        188.68812561035156,
        1.0
      ],
      "name": "Cube.002"
    },
    {
      "mesh": 12,
      "name": "Cube.002_Poles_0"
    },
    {
      "children": [
        30
      ],
      "matrix": [
        100.0,
        0.0,
        0.0,
        0.0,
        0.0,
        -1.331580541386046e-05,
        -99.99999999999912,
        0.0,
        0.0,
        99.99999999999912,
        -1.331580541386046e-05,
        0.0,
        66.1932144165039,
        4.014395713806152,
        97.80511474609375,
        1.0
      ],
      "name": "Cube.003"
    },
    {
      "mesh": 13,
      "name": "Cube.003_Poles_0"
    },
    {
      "children": [
        32
      ],
      "matrix": [
        100.0,
        0.0,
        0.0,
        0.0,
        0.0,
        -1.331580541386046e-05,
        -99.99999999999912,
        0.0,
        0.0,
        99.99999999999912,
        -1.331580541386046e-05,
        0.0,
        29.452594757080078,
        0.3318532407283783,
        143.60064697265625,
        1.0
      ],
      "name": "Plane"
    },
    {
      "mesh": 14,
      "name": "Plane_Bench_0"
    },
    {
      "children": [
        34
      ],
      "matrix": [
        100.0,
        0.0,
        0.0,
        0.0,
        0.0,
        -99.99999999998583,
        5.326322180091256e-05,
        0.0,
        0.0,
        -5.326322180091256e-05,
        -99.99999999998583,
        0.0,
        -0.5859572887420654,
        264.224609375,
        -32.58173751831055,
        1.0
      ],
      "name": "Roof.003"
    },
    {
      "mesh": 15,
      "name": "Roof.003_Roof_0"
    }
  ],
  "samplers": [
    {
      "magFilter": 9729,
      "minFilter": 9987,
      "wrapS": 10497,
      "wrapT": 10497
    }
  ],
  "scene": 0,
  "scenes": [
    {
      "name": "Sketchfab_Scene",
      "nodes": [
        0
      ]
    }
  ],
  "textures": [
    {
      "sampler": 0,
      "source": 0
    },
    {
      "sampler": 0,
      "source": 1
    },
    {
      "sampler": 0,
      "source": 2
    },
    {
      "sampler": 0,
      "source": 3
    },
    {
      "sampler": 0,
      "source": 4
    },
    {
      "sampler": 0,
      "source": 5
    },
    {
      "sampler": 0,
      "source": 6
    },
    {
      "sampler": 0,
      "source": 7
    },
    {
      "sampler": 0,
      "source": 8
    },
    {
      "sampler": 0,
      "source": 9
    }
  ]
}
