{
  "accessors": [
    {
      "bufferView": 2,
      "componentType": 5126,
      "count": 10504,
      "max": [
        0.30480003356933594,
        0.03478533774614334,
        0.4572000503540039
      ],
      "min": [
        -0.33901432156562805,
        0.0010999944061040878,
        -0.49370038509368896
      ],
      "type": "VEC3"
    },
    {
      "bufferView": 2,
      "byteOffset": 126048,
      "componentType": 5126,
      "count": 10504,
      "max": [
        1.0,
        1.0,
        1.0
      ],
      "min": [
        -1.0,
        -1.0,
        -1.0
      ],
      "type": "VEC3"
    },
    {
      "bufferView": 3,
      "componentType": 5126,
      "count": 10504,
      "max": [
        1.0,
        0.7071054577827454,
        0.6990032196044922,
        1.0
      ],
      "min": [
        -0.7021151781082153,
        -0.7070832848548889,
        -1.0,
        -1.0
      ],
      "type": "VEC4"
    },
    {
      "bufferView": 1,
      "componentType": 5126,
      "count": 10504,
      "max": [
        6.435550689697266,
        5.272495269775391
      ],
      "min": [
        -5.67708683013916,
        -4.725496292114258
      ],
      "type": "VEC2"
    },
    {
      "bufferView": 0,
      "componentType": 5125,
      "count": 15762,
      "type": "SCALAR"
    },
    {
      "bufferView": 2,
      "byteOffset": 252096,
      "componentType": 5126,
      "count": 25,
      "max": [
        0.2743200361728668,
        0.005399998277425766,
        0.4114799499511719
      ],
      "min": [
        -0.2743200361728668,
        0.005399998277425766,
        -0.41148000955581665
      ],
      "type": "VEC3"
    },
    {
      "bufferView": 2,
      "byteOffset": 252396,
      "componentType": 5126,
      "count": 25,
      "max": [
        0.0,
        1.0,
        -0.0
      ],
      "min": [
        -2.285529099310679e-09,
        1.0,
        -0.0
      ],
      "type": "VEC3"
    },
    {
      "bufferView": 3,
      "byteOffset": 168064,
      "componentType": 5126,
      "count": 25,
      "max": [
        7.069406365189934e-06,
        8.712336049996418e-17,
        -1.0,
        1.0
      ],
      "min": [
        -6.359471171890618e-07,
        0.0,
        -1.0,
        1.0
      ],
      "type": "VEC4"
    },
    {
      "bufferView": 1,
      "byteOffset": 84032,
      "componentType": 5126,
      "count": 25,
      "max": [
        1.875,
        1.75
      ],
      "min": [
        -0.3750007152557373,
        -0.5000007152557373
      ],
      "type": "VEC2"
    },
    {
      "bufferView": 0,
      "byteOffset": 63048,
      "componentType": 5125,
      "count": 54,
      "type": "SCALAR"
    },
    {
      "bufferView": 2,
      "byteOffset": 252696,
      "componentType": 5126,
      "count": 240,
      "max": [
        0.3093720078468323,
        0.03478533774614334,
        0.4640580415725708
      ],
      "min": [
        -0.3093720078468323,
        0.001099955290555954,
        -0.4640580117702484
      ],
      "type": "VEC3"
    },
    {
      "bufferView": 2,
      "byteOffset": 255576,
      "componentType": 5126,
      "count": 240,
      "max": [
        1.0,
        1.0,
        1.0
      ],
      "min": [
        -1.0,
        -1.0,
        -1.0
      ],
      "type": "VEC3"
    },
    {
      "bufferView": 3,
      "byteOffset": 168464,
      "componentType": 5126,
      "count": 240,
      "max": [
        1.0,
        0.6653990149497986,
        0.07478872686624527,
        1.0
      ],
      "min": [
        -0.0333147794008255,
        -0.6653966307640076,
        -1.0,
        -1.0
      ],
      "type": "VEC4"
    },
    {
      "bufferView": 1,
      "byteOffset": 84232,
      "componentType": 5126,
      "count": 240,
      "max": [
        0.8333333134651184,
        1.0818603038787842
      ],
      "min": [
        0.08186030387878418,
        0.08186030387878418
      ],
      "type": "VEC2"
    },
    {
      "bufferView": 0,
      "byteOffset": 63264,
      "componentType": 5125,
      "count": 366,
      "type": "SCALAR"
    },
    {
      "bufferView": 2,
      "byteOffset": 258456,
      "componentType": 5126,
      "count": 544,
      "max": [
        0.02539999969303608,
        0.04391923174262047,
        0.02539999969303608
      ],
      "min": [
        -0.02539999969303608,
        0.0,
        -0.02539999969303608
      ],
      "type": "VEC3"
    },
    {
      "bufferView": 2,
      "byteOffset": 264984,
      "componentType": 5126,
      "count": 544,
      "max": [
        1.0,
        1.0,
        1.0
      ],
      "min": [
        -1.0,
        -1.0,
        -1.0
      ],
      "type": "VEC3"
    },
    {
      "bufferView": 1,
      "byteOffset": 86152,
      "componentType": 5126,
      "count": 544,
      "max": [
        0.0,
        0.0
      ],
      "min": [
        0.0,
        0.0
      ],
      "type": "VEC2"
    },
    {
      "bufferView": 0,
      "byteOffset": 64728,
      "componentType": 5125,
      "count": 2676,
      "type": "SCALAR"
    },
    {
      "bufferView": 2,
      "byteOffset": 271512,
      "componentType": 5126,
      "count": 544,
      "max": [
        0.02539999969303608,
        0.04391923174262047,
        0.02539999969303608
      ],
      "min": [
        -0.02539999969303608,
        0.0,
        -0.02539999969303608
      ],
      "type": "VEC3"
    },
    {
      "bufferView": 2,
      "byteOffset": 278040,
      "componentType": 5126,
      "count": 544,
      "max": [
        1.0,
        1.0,
        1.0
      ],
      "min": [
        -1.0,
        -1.0,
        -1.0
      ],
      "type": "VEC3"
    },
    {
      "bufferView": 1,
      "byteOffset": 90504,
      "componentType": 5126,
      "count": 544,
      "max": [
        0.0,
        0.0
      ],
      "min": [
        0.0,
        0.0
      ],
      "type": "VEC2"
    },
    {
      "bufferView": 0,
      "byteOffset": 75432,
      "componentType": 5125,
      "count": 2676,
      "type": "SCALAR"
    },
    {
      "bufferView": 2,
      "byteOffset": 284568,
      "componentType": 5126,
      "count": 544,
      "max": [
        0.02539999969303608,
        0.04391923174262047,
        0.02539999969303608
      ],
      "min": [
        -0.02539999969303608,
        0.0,
        -0.02539999969303608
      ],
      "type": "VEC3"
    },
    {
      "bufferView": 2,
      "byteOffset": 291096,
      "componentType": 5126,
      "count": 544,
      "max": [
        1.0,
        1.0,
        1.0
      ],
      "min": [
        -1.0,
        -1.0,
        -1.0
      ],
      "type": "VEC3"
    },
    {
      "bufferView": 1,
      "byteOffset": 94856,
      "componentType": 5126,
      "count": 544,
      "max": [
        0.0,
        0.0
      ],
      "min": [
        0.0,
        0.0
      ],
      "type": "VEC2"
    },
    {
      "bufferView": 0,
      "byteOffset": 86136,
      "componentType": 5125,
      "count": 2676,
      "type": "SCALAR"
    },
    {
      "bufferView": 2,
      "byteOffset": 297624,
      "componentType": 5126,
      "count": 544,
      "max": [
        0.02539999969303608,
        0.04391923174262047,
        0.02539999969303608
      ],
      "min": [
        -0.02539999969303608,
        0.0,
        -0.02539999969303608
      ],
      "type": "VEC3"
    },
    {
      "bufferView": 2,
      "byteOffset": 304152,
      "componentType": 5126,
      "count": 544,
      "max": [
        1.0,
        1.0,
        1.0
      ],
      "min": [
        -1.0,
        -1.0,
        -1.0
      ],
      "type": "VEC3"
    },
    {
      "bufferView": 1,
      "byteOffset": 99208,
      "componentType": 5126,
      "count": 544,
      "max": [
        0.0,
        0.0
      ],
      "min": [
        0.0,
        0.0
      ],
      "type": "VEC2"
    },
    {
      "bufferView": 0,
      "byteOffset": 96840,
      "componentType": 5125,
      "count": 2676,
      "type": "SCALAR"
    },
    {
      "bufferView": 2,
      "byteOffset": 310680,
      "componentType": 5126,
      "count": 544,
      "max": [
        0.02539999969303608,
        0.04391923174262047,
        0.02539999969303608
      ],
      "min": [
        -0.02539999969303608,
        0.0,
        -0.02539999969303608
      ],
      "type": "VEC3"
    },
    {
      "bufferView": 2,
      "byteOffset": 317208,
      "componentType": 5126,
      "count": 544,
      "max": [
        1.0,
        1.0,
        1.0
      ],
      "min": [
        -1.0,
        -1.0,
        -1.0
      ],
      "type": "VEC3"
    },
    {
      "bufferView": 1,
      "byteOffset": 103560,
      "componentType": 5126,
      "count": 544,
      "max": [
        0.0,
        0.0
      ],
      "min": [
        0.0,
        0.0
      ],
      "type": "VEC2"
    },
    {
      "bufferView": 0,
      "byteOffset": 107544,
      "componentType": 5125,
      "count": 2676,
      "type": "SCALAR"
    },
    {
      "bufferView": 2,
      "byteOffset": 323736,
      "componentType": 5126,
      "count": 544,
      "max": [
        0.02539999969303608,
        0.04391923174262047,
        0.02539999969303608
      ],
      "min": [
        -0.02539999969303608,
        0.0,
        -0.02539999969303608
      ],
      "type": "VEC3"
    },
    {
      "bufferView": 2,
      "byteOffset": 330264,
      "componentType": 5126,
      "count": 544,
      "max": [
        1.0,
        1.0,
        1.0
      ],
      "min": [
        -1.0,
        -1.0,
        -1.0
      ],
      "type": "VEC3"
    },
    {
      "bufferView": 1,
      "byteOffset": 107912,
      "componentType": 5126,
      "count": 544,
      "max": [
        0.0,
        0.0
      ],
      "min": [
        0.0,
        0.0
      ],
      "type": "VEC2"
    },
    {
      "bufferView": 0,
      "byteOffset": 118248,
      "componentType": 5125,
      "count": 2676,
      "type": "SCALAR"
    },
    {
      "bufferView": 2,
      "byteOffset": 336792,
      "componentType": 5126,
      "count": 544,
      "max": [
        0.02539999969303608,
        0.04391923174262047,
        0.02539999969303608
      ],
      "min": [
        -0.02539999969303608,
        0.0,
        -0.02539999969303608
      ],
      "type": "VEC3"
    },
    {
      "bufferView": 2,
      "byteOffset": 343320,
      "componentType": 5126,
      "count": 544,
      "max": [
        1.0,
        1.0,
        1.0
      ],
      "min": [
        -1.0,
        -1.0,
        -1.0
      ],
      "type": "VEC3"
    },
    {
      "bufferView": 1,
      "byteOffset": 112264,
      "componentType": 5126,
      "count": 544,
      "max": [
        0.0,
        0.0
      ],
      "min": [
        0.0,
        0.0
      ],
      "type": "VEC2"
    },
    {
      "bufferView": 0,
      "byteOffset": 128952,
      "componentType": 5125,
      "count": 2676,
      "type": "SCALAR"
    },
    {
      "bufferView": 2,
      "byteOffset": 349848,
      "componentType": 5126,
      "count": 4,
      "max": [
        1.0,
        0.0,
        1.0
      ],
      "min": [
        -1.0,
        0.0,
        -1.0
      ],
      "type": "VEC3"
    },
    {
      "bufferView": 2,
      "byteOffset": 349896,
      "componentType": 5126,
      "count": 4,
      "max": [
        0.0,
        1.0,
        -0.0
      ],
      "min": [
        0.0,
        1.0,
        -0.0
      ],
      "type": "VEC3"
    },
    {
      "bufferView": 1,
      "byteOffset": 116616,
      "componentType": 5126,
      "count": 4,
      "max": [
        0.78125,
        1.0
      ],
      "min": [
        0.21875,
        0.0
      ],
      "type": "VEC2"
    },
    {
      "bufferView": 0,
      "byteOffset": 139656,
      "componentType": 5125,
      "count": 6,
      "type": "SCALAR"
    },
    {
      "bufferView": 2,
      "byteOffset": 349944,
      "componentType": 5126,
      "count": 4,
      "max": [
        1.0,
        0.0,
        1.0
      ],
      "min": [
        -1.0,
        0.0,
        -1.0
      ],
      "type": "VEC3"
    },
    {
      "bufferView": 2,
      "byteOffset": 349992,
      "componentType": 5126,
      "count": 4,
      "max": [
        0.0,
        1.0,
        -0.0
      ],
      "min": [
        0.0,
        1.0,
        -0.0
      ],
      "type": "VEC3"
    },
    {
      "bufferView": 1,
      "byteOffset": 116648,
      "componentType": 5126,
      "count": 4,
      "max": [
        1.0,
        1.0
      ],
      "min": [
        0.0,
        0.0
      ],
      "type": "VEC2"
    },
    {
      "bufferView": 0,
      "byteOffset": 139680,
      "componentType": 5125,
      "count": 6,
      "type": "SCALAR"
    },
    {
      "bufferView": 2,
      "byteOffset": 350040,
      "componentType": 5126,
      "count": 4,
      "max": [
        1.0,
        0.0,
        1.0
      ],
      "min": [
        -1.0,
        0.0,
        -1.0
      ],
      "type": "VEC3"
    },
    {
      "bufferView": 2,
      "byteOffset": 350088,
      "componentType": 5126,
      "count": 4,
      "max": [
        0.0,
        1.0,
        -0.0
      ],
      "min": [
        0.0,
        1.0,
        -0.0
      ],
      "type": "VEC3"
    },
    {
      "bufferView": 1,
      "byteOffset": 116680,
      "componentType": 5126,
      "count": 4,
      "max": [
        1.0,
        1.0
      ],
      "min": [
        0.0,
        0.0
      ],
      "type": "VEC2"
    },
    {
      "bufferView": 0,
      "byteOffset": 139704,
      "componentType": 5125,
      "count": 6,
      "type": "SCALAR"
    },
    {
      "bufferView": 2,
      "byteOffset": 350136,
      "componentType": 5126,
      "count": 4,
      "max": [
        1.0,
        0.0,
        1.0
      ],
      "min": [
        -1.0,
        0.0,
        -1.0
      ],
      "type": "VEC3"
    },
    {
      "bufferView": 2,
      "byteOffset": 350184,
      "componentType": 5126,
      "count": 4,
      "max": [
        0.0,
        1.0,
        -0.0
      ],
      "min": [
        0.0,
        1.0,
        -0.0
      ],
      "type": "VEC3"
    },
    {
      "bufferView": 1,
      "byteOffset": 116712,
      "componentType": 5126,
      "count": 4,
      "max": [
        1.0,
        1.0
      ],
      "min": [
        0.0,
        0.0
      ],
      "type": "VEC2"
    },
    {
      "bufferView": 0,
      "byteOffset": 139728,
      "componentType": 5125,
      "count": 6,
      "type": "SCALAR"
    },
    {
      "bufferView": 2,
      "byteOffset": 350232,
      "componentType": 5126,
      "count": 4,
      "max": [
        1.0,
        0.0,
        1.0
      ],
      "min": [
        -1.0,
        0.0,
        -1.0
      ],
      "type": "VEC3"
    },
    {
      "bufferView": 2,
      "byteOffset": 350280,
      "componentType": 5126,
      "count": 4,
      "max": [
        0.0,
        1.0,
        -0.0
      ],
      "min": [
        0.0,
        1.0,
        -0.0
      ],
      "type": "VEC3"
    },
    {
      "bufferView": 1,
      "byteOffset": 116744,
      "componentType": 5126,
      "count": 4,
      "max": [
        0.78125,
        1.0
      ],
      "min": [
        0.21875,
        0.0
      ],
      "type": "VEC2"
    },
    {
      "bufferView": 0,
      "byteOffset": 139752,
      "componentType": 5125,
      "count": 6,
      "type": "SCALAR"
    },
    {
      "bufferView": 2,
      "byteOffset": 350328,
      "componentType": 5126,
      "count": 4,
      "max": [
        1.0,
        0.0,
        1.0
      ],
      "min": [
        -1.0,
        0.0,
        -1.0
      ],
      "type": "VEC3"
    },
    {
      "bufferView": 2,
      "byteOffset": 350376,
      "componentType": 5126,
      "count": 4,
      "max": [
        0.0,
        1.0,
        -0.0
      ],
      "min": [
        0.0,
        1.0,
        -0.0
      ],
      "type": "VEC3"
    },
    {
      "bufferView": 1,
      "byteOffset": 116776,
      "componentType": 5126,
      "count": 4,
      "max": [
        0.994999885559082,
        1.0
      ],
      "min": [
        0.0,
        0.0
      ],
      "type": "VEC2"
    },
    {
      "bufferView": 0,
      "byteOffset": 139776,
      "componentType": 5125,
      "count": 6,
      "type": "SCALAR"
    },
    {
      "bufferView": 2,
      "byteOffset": 350424,
      "componentType": 5126,
      "count": 4,
      "max": [
        1.0,
        0.0,
        1.0
      ],
      "min": [
        -1.0,
        0.0,
        -1.0
      ],
      "type": "VEC3"
    },
    {
      "bufferView": 2,
      "byteOffset": 350472,
      "componentType": 5126,
      "count": 4,
      "max": [
        0.0,
        1.0,
        -0.0
      ],
      "min": [
        0.0,
        1.0,
        -0.0
      ],
      "type": "VEC3"
    },
    {
      "bufferView": 1,
      "byteOffset": 116808,
      "componentType": 5126,
      "count": 4,
      "max": [
        0.78125,
        1.0
      ],
      "min": [
        0.21875,
        0.0
      ],
      "type": "VEC2"
    },
    {
      "bufferView": 0,
      "byteOffset": 139800,
      "componentType": 5125,
      "count": 6,
      "type": "SCALAR"
    },
    {
      "bufferView": 2,
      "byteOffset": 350520,
      "componentType": 5126,
      "count": 544,
      "max": [
        0.02539999969303608,
        0.04391923174262047,
        0.02539999969303608
      ],
      "min": [
        -0.02539999969303608,
        0.0,
        -0.02539999969303608
      ],
      "type": "VEC3"
    },
    {
      "bufferView": 2,
      "byteOffset": 357048,
      "componentType": 5126,
      "count": 544,
      "max": [
        1.0,
        1.0,
        1.0
      ],
      "min": [
        -1.0,
        -1.0,
        -1.0
      ],
      "type": "VEC3"
    },
    {
      "bufferView": 1,
      "byteOffset": 116840,
      "componentType": 5126,
      "count": 544,
      "max": [
        0.0,
        0.0
      ],
      "min": [
        0.0,
        0.0
      ],
      "type": "VEC2"
    },
    {
      "bufferView": 0,
      "byteOffset": 139824,
      "componentType": 5125,
      "count": 2676,
      "type": "SCALAR"
    },
    {
      "bufferView": 2,
      "byteOffset": 363576,
      "componentType": 5126,
      "count": 4,
      "max": [
        1.0,
        0.0,
        1.0
      ],
      "min": [
        -1.0,
        0.0,
        -1.0
      ],
      "type": "VEC3"
    },
    {
      "bufferView": 2,
      "byteOffset": 363624,
      "componentType": 5126,
      "count": 4,
      "max": [
        0.0,
        1.0,
        -0.0
      ],
      "min": [
        0.0,
        1.0,
        -0.0
      ],
      "type": "VEC3"
    },
    {
      "bufferView": 1,
      "byteOffset": 121192,
      "componentType": 5126,
      "count": 4,
      "max": [
        0.78125,
        1.0
      ],
      "min": [
        0.21875,
        0.0
      ],
      "type": "VEC2"
    },
    {
      "bufferView": 0,
      "byteOffset": 150528,
      "componentType": 5125,
      "count": 6,
      "type": "SCALAR"
    },
    {
      "bufferView": 2,
      "byteOffset": 363672,
      "componentType": 5126,
      "count": 544,
      "max": [
        0.02539999969303608,
        0.04391923174262047,
        0.02539999969303608
      ],
      "min": [
        -0.02539999969303608,
        0.0,
        -0.02539999969303608
      ],
      "type": "VEC3"
    },
    {
      "bufferView": 2,
      "byteOffset": 370200,
      "componentType": 5126,
      "count": 544,
      "max": [
        1.0,
        1.0,
        1.0
      ],
      "min": [
        -1.0,
        -1.0,
        -1.0
      ],
      "type": "VEC3"
    },
    {
      "bufferView": 1,
      "byteOffset": 121224,
      "componentType": 5126,
      "count": 544,
      "max": [
        0.0,
        0.0
      ],
      "min": [
        0.0,
        0.0
      ],
      "type": "VEC2"
    },
    {
      "bufferView": 0,
      "byteOffset": 150552,
      "componentType": 5125,
      "count": 2676,
      "type": "SCALAR"
    },
    {
      "bufferView": 2,
      "byteOffset": 376728,
      "componentType": 5126,
      "count": 4,
      "max": [
        1.0,
        0.0,
        1.0
      ],
      "min": [
        -1.0,
        0.0,
        -1.0
      ],
      "type": "VEC3"
    },
    {
      "bufferView": 2,
      "byteOffset": 376776,
      "componentType": 5126,
      "count": 4,
      "max": [
        0.0,
        1.0,
        -0.0
      ],
      "min": [
        0.0,
        1.0,
        -0.0
      ],
      "type": "VEC3"
    },
    {
      "bufferView": 1,
      "byteOffset": 125576,
      "componentType": 5126,
      "count": 4,
      "max": [
        0.9987047910690308,
        1.0
      ],
      "min": [
        0.0,
        0.0
      ],
      "type": "VEC2"
    },
    {
      "bufferView": 0,
      "byteOffset": 161256,
      "componentType": 5125,
      "count": 6,
      "type": "SCALAR"
    },
    {
      "bufferView": 2,
      "byteOffset": 376824,
      "componentType": 5126,
      "count": 4,
      "max": [
        1.0,
        0.0,
        1.0
      ],
      "min": [
        -1.0,
        0.0,
        -1.0
      ],
      "type": "VEC3"
    },
    {
      "bufferView": 2,
      "byteOffset": 376872,
      "componentType": 5126,
      "count": 4,
      "max": [
        0.0,
        1.0,
        -0.0
      ],
      "min": [
        0.0,
        1.0,
        -0.0
      ],
      "type": "VEC3"
    },
    {
      "bufferView": 1,
      "byteOffset": 125608,
      "componentType": 5126,
      "count": 4,
      "max": [
        1.001960039138794,
        1.0
      ],
      "min": [
        -0.001960212830454111,
        0.0
      ],
      "type": "VEC2"
    },
    {
      "bufferView": 0,
      "byteOffset": 161280,
      "componentType": 5125,
      "count": 6,
      "type": "SCALAR"
    }
  ],
  "asset": {
    "extras": {
      "author": "cyclonicninja69 (https://sketchfab.com/cyclonicninja69)",
      "license": "CC-BY-4.0 (http://creativecommons.org/licenses/by/4.0/)",
      "source": "https://sketchfab.com/3d-models/preschool-notice-board-c4a5a6abc3fe4c06a50bb470f4883985",
      "title": "Preschool Notice Board"
    },
    "generator": "Sketchfab-15.18.0",
    "version": "2.0"
  },
  "bufferViews": [
    {
      "buffer": 0,
      "byteLength": 161304,
      "name": "floatBufferViews",
      "target": 34963
    },
    {
      "buffer": 0,
      "byteLength": 125640,
      "byteOffset": 161304,
      "byteStride": 8,
      "name": "floatBufferViews",
      "target": 34962
    },
    {
      "buffer": 0,
      "byteLength": 376920,
      "byteOffset": 286944,
      "byteStride": 12,
      "name": "floatBufferViews",
      "target": 34962
    },
    {
      "buffer": 0,
      "byteLength": 172304,
      "byteOffset": 663864,
      "byteStride": 16,
      "name": "floatBufferViews",
      "target": 34962
    }
  ],
  "buffers": [
    {
      "byteLength": 836168,
      "uri": "scene.bin"
    }
  ],
  "images": [
    {
      "uri": "textures/Material_baseColor.jpeg"
    },
    {
      "uri": "textures/Material_metallicRoughness.png"
    },
    {
      "uri": "textures/Material_normal.jpeg"
    },
    {
      "uri": "textures/Material.001_baseColor.jpeg"
    },
    {
      "uri": "textures/Material.002_baseColor.jpeg"
    },
    {
      "uri": "textures/Material.002_metallicRoughness.png"
    },
    {
      "uri": "textures/Material.002_normal.jpeg"
    },
    {
      "uri": "textures/Material.009_baseColor.jpeg"
    },
    {
      "uri": "textures/Material.012_baseColor.jpeg"
    },
    {
      "uri": "textures/Material.013_baseColor.png"
    },
    {
      "uri": "textures/Material.014_baseColor.jpeg"
    },
    {
      "uri": "textures/Material.015_baseColor.jpeg"
    },
    {
      "uri": "textures/Material.018_baseColor.jpeg"
    },
    {
      "uri": "textures/Material.017_baseColor.png"
    }
  ],
  "materials": [
    {
      "doubleSided": true,
      "name": "Material",
      "normalTexture": {
        "index": 2
      },
      "pbrMetallicRoughness": {
        "baseColorTexture": {
          "index": 0
        },
        "metallicRoughnessTexture": {
          "index": 1
        }
      }
    },
    {
      "doubleSided": true,
      "name": "Material.001",
      "normalTexture": {
        "index": 2
      },
      "pbrMetallicRoughness": {
        "baseColorTexture": {
          "index": 3
        },
        "metallicFactor": 0.0
      }
    },
    {
      "doubleSided": true,
      "name": "Material.002",
      "normalTexture": {
        "index": 6
      },
      "pbrMetallicRoughness": {
        "baseColorTexture": {
          "index": 4
        },
        "metallicRoughnessTexture": {
          "index": 5
        }
      }
    },
    {
      "doubleSided": true,
      "name": "Material.003",
      "pbrMetallicRoughness": {
        "baseColorFactor": [
          0.24711799999999987,
          0.7999999999999999,
          0.03569200000000001,
          1.0
        ],
        "metallicFactor": 0.0
      }
    },
    {
      "doubleSided": true,
      "name": "Material.004",
      "pbrMetallicRoughness": {
        "baseColorFactor": [
          0.7999999999999999,
          0.032377199999999995,
          0.021818300000000006,
          1.0
        ],
        "metallicFactor": 0.0
      }
    },
    {
      "doubleSided": true,
      "name": "Material.005",
      "pbrMetallicRoughness": {
        "baseColorFactor": [
          0.07242390000000003,
          0.108625,
          0.7999999999999999,
          1.0
        ],
        "metallicFactor": 0.0
      }
    },
    {
      "doubleSided": true,
      "name": "Material.006",
      "pbrMetallicRoughness": {
        "baseColorFactor": [
          0.0011047000000000019,
          0.6970039999999987,
          0.7999999999999999,
          1.0
        ],
        "metallicFactor": 0.0
      }
    },
    {
      "doubleSided": true,
      "name": "Material.007",
      "pbrMetallicRoughness": {
        "baseColorFactor": [
          0.7999999999999999,
          0.004430920000000004,
          0.4090239999999996,
          1.0
        ],
        "metallicFactor": 0.0
      }
    },
    {
      "doubleSided": true,
      "name": "Material.008",
      "pbrMetallicRoughness": {
        "baseColorFactor": [
          0.77643151479713,
          0.38752403378829525,
          0.38752403378829525,
          1.0
        ],
        "metallicFactor": 0.0,
        "roughnessFactor": 0.5
      }
    },
    {
      "doubleSided": true,
      "name": "Material.009",
      "pbrMetallicRoughness": {
        "baseColorTexture": {
          "index": 7
        },
        "metallicFactor": 0.0,
        "roughnessFactor": 0.5
      }
    },
    {
      "doubleSided": true,
      "name": "Material.010",
      "pbrMetallicRoughness": {
        "baseColorFactor": [
          0.7249309999999998,
          0.7999999999999999,
          0.004469989999999997,
          1.0
        ],
        "metallicFactor": 0.0,
        "roughnessFactor": 0.5
      }
    },
    {
      "doubleSided": true,
      "name": "Material.011",
      "pbrMetallicRoughness": {
        "baseColorFactor": [
          0.8,
          0.752978,
          0.0692408,
          1.0
        ],
        "metallicFactor": 0.0,
        "roughnessFactor": 0.5
      }
    },
    {
      "doubleSided": true,
      "name": "Material.012",
      "pbrMetallicRoughness": {
        "baseColorTexture": {
          "index": 8
        },
        "metallicFactor": 0.0,
        "roughnessFactor": 0.5
      }
    },
    {
      "doubleSided": true,
      "name": "Material.013",
      "pbrMetallicRoughness": {
        "baseColorTexture": {
          "index": 9
        },
        "metallicFactor": 0.0,
        "roughnessFactor": 0.5
      }
    },
    {
      "doubleSided": true,
      "name": "Material.014",
      "pbrMetallicRoughness": {
        "baseColorTexture": {
          "index": 10
        },
        "metallicFactor": 0.0,
        "roughnessFactor": 0.5
      }
    },
    {
      "doubleSided": true,
      "name": "Material.016",
      "pbrMetallicRoughness": {
        "baseColorFactor": [
          0.1643949999999999,
          0.7999999999999999,
          0.16063200000000005,
          1.0
        ],
        "metallicFactor": 0.0
      }
    },
    {
      "doubleSided": true,
      "name": "Material.015",
      "pbrMetallicRoughness": {
        "baseColorTexture": {
          "index": 11
        },
        "metallicFactor": 0.0,
        "roughnessFactor": 0.5
      }
    },
    {
      "doubleSided": true,
      "name": "Material.018",
      "pbrMetallicRoughness": {
        "baseColorTexture": {
          "index": 12
        },
        "metallicFactor": 0.0,
        "roughnessFactor": 0.5
      }
    },
    {
      "doubleSided": true,
      "name": "Material.017",
      "pbrMetallicRoughness": {
        "baseColorTexture": {
          "index": 13
        },
        "metallicFactor": 0.0,
        "roughnessFactor": 0.5
      }
    }
  ],
  "meshes": [
    {
      "name": "Object_0",
      "primitives": [
        {
          "attributes": {
            "NORMAL": 1,
            "POSITION": 0,
            "TANGENT": 2,
            "TEXCOORD_0": 3
          },
          "indices": 4,
          "material": 0,
          "mode": 4
        }
      ]
    },
    {
      "name": "Object_1",
      "primitives": [
        {
          "attributes": {
            "NORMAL": 6,
            "POSITION": 5,
            "TANGENT": 7,
            "TEXCOORD_0": 8
          },
          "indices": 9,
          "material": 1,
          "mode": 4
        }
      ]
    },
    {
      "name": "Object_2",
      "primitives": [
        {
          "attributes": {
            "NORMAL": 11,
            "POSITION": 10,
            "TANGENT": 12,
            "TEXCOORD_0": 13
          },
          "indices": 14,
          "material": 2,
          "mode": 4
        }
      ]
    },
    {
      "name": "Object_3",
      "primitives": [
        {
          "attributes": {
            "NORMAL": 16,
            "POSITION": 15,
            "TEXCOORD_0": 17
          },
          "indices": 18,
          "material": 3,
          "mode": 4
        }
      ]
    },
    {
      "name": "Object_4",
      "primitives": [
        {
          "attributes": {
            "NORMAL": 20,
            "POSITION": 19,
            "TEXCOORD_0": 21
          },
          "indices": 22,
          "material": 4,
          "mode": 4
        }
      ]
    },
    {
      "name": "Object_5",
      "primitives": [
        {
          "attributes": {
            "NORMAL": 24,
            "POSITION": 23,
            "TEXCOORD_0": 25
          },
          "indices": 26,
          "material": 5,
          "mode": 4
        }
      ]
    },
    {
      "name": "Object_6",
      "primitives": [
        {
          "attributes": {
            "NORMAL": 28,
            "POSITION": 27,
            "TEXCOORD_0": 29
          },
          "indices": 30,
          "material": 6,
          "mode": 4
        }
      ]
    },
    {
      "name": "Object_7",
      "primitives": [
        {
          "attributes": {
            "NORMAL": 32,
            "POSITION": 31,
            "TEXCOORD_0": 33
          },
          "indices": 34,
          "material": 6,
          "mode": 4
        }
      ]
    },
    {
      "name": "Object_8",
      "primitives": [
        {
          "attributes": {
            "NORMAL": 36,
            "POSITION": 35,
            "TEXCOORD_0": 37
          },
          "indices": 38,
          "material": 6,
          "mode": 4
        }
      ]
    },
    {
      "name": "Object_9",
      "primitives": [
        {
          "attributes": {
            "NORMAL": 40,
            "POSITION": 39,
            "TEXCOORD_0": 41
          },
          "indices": 42,
          "material": 7,
          "mode": 4
        }
      ]
    },
    {
      "name": "Object_10",
      "primitives": [
        {
          "attributes": {
            "NORMAL": 44,
            "POSITION": 43,
            "TEXCOORD_0": 45
          },
          "indices": 46,
          "material": 8,
          "mode": 4
        }
      ]
    },
    {
      "name": "Object_11",
      "primitives": [
        {
          "attributes": {
            "NORMAL": 48,
            "POSITION": 47,
            "TEXCOORD_0": 49
          },
          "indices": 50,
          "material": 9,
          "mode": 4
        }
      ]
    },
    {
      "name": "Object_12",
      "primitives": [
        {
          "attributes": {
            "NORMAL": 52,
            "POSITION": 51,
            "TEXCOORD_0": 53
          },
          "indices": 54,
          "material": 10,
          "mode": 4
        }
      ]
    },
    {
      "name": "Object_13",
      "primitives": [
        {
          "attributes": {
            "NORMAL": 56,
            "POSITION": 55,
            "TEXCOORD_0": 57
          },
          "indices": 58,
          "material": 11,
          "mode": 4
        }
      ]
    },
    {
      "name": "Object_14",
      "primitives": [
        {
          "attributes": {
            "NORMAL": 60,
            "POSITION": 59,
            "TEXCOORD_0": 61
          },
          "indices": 62,
          "material": 12,
          "mode": 4
        }
      ]
    },
    {
      "name": "Object_15",
      "primitives": [
        {
          "attributes": {
            "NORMAL": 64,
            "POSITION": 63,
            "TEXCOORD_0": 65
          },
          "indices": 66,
          "material": 13,
          "mode": 4
        }
      ]
    },
    {
      "name": "Object_16",
      "primitives": [
        {
          "attributes": {
            "NORMAL": 68,
            "POSITION": 67,
            "TEXCOORD_0": 69
          },
          "indices": 70,
          "material": 14,
          "mode": 4
        }
      ]
    },
    {
      "name": "Object_17",
      "primitives": [
        {
          "attributes": {
            "NORMAL": 72,
            "POSITION": 71,
            "TEXCOORD_0": 73
          },
          "indices": 74,
          "material": 15,
          "mode": 4
        }
      ]
    },
    {
      "name": "Object_18",
      "primitives": [
        {
          "attributes": {
            "NORMAL": 76,
            "POSITION": 75,
            "TEXCOORD_0": 77
          },
          "indices": 78,
          "material": 16,
          "mode": 4
        }
      ]
    },
    {
      "name": "Object_19",
      "primitives": [
        {
          "attributes": {
            "NORMAL": 80,
            "POSITION": 79,
            "TEXCOORD_0": 81
          },
          "indices": 82,
          "material": 15,
          "mode": 4
        }
      ]
    },
    {
      "name": "Object_20",
      "primitives": [
        {
          "attributes": {
            "NORMAL": 84,
            "POSITION": 83,
            "TEXCOORD_0": 85
          },
          "indices": 86,
          "material": 17,
          "mode": 4
        }
      ]
    },
    {
      "name": "Object_21",
      "primitives": [
        {
          "attributes": {
            "NORMAL": 88,
            "POSITION": 87,
            "TEXCOORD_0": 89
          },
          "indices": 90,
          "material": 18,
          "mode": 4
        }
      ]
    }
  ],
  "nodes": [
    {
      "children": [
        1
      ],
      "matrix": [
        1.0,
        0.0,
        0.0,
        0.0,
        0.0,
        2.220446049250313e-16,
        -1.0,
        0.0,
        0.0,
        1.0,
        2.220446049250313e-16,
        0.0,
        0.0,
        0.0,
        0.0,
        1.0
      ],
      "name": "Sketchfab_model"
    },
    {
      "children": [
        2
      ],
      "name": "root"
    },
    {
      "children": [
        3,
        7,
        9,
        11,
        13,
        15,
        17,
        19,
        21,
        23,
        25,
        27,
        29,
        31,
        33,
        35,
        37,
        39,
        41,
        43
      ],
      "matrix": [
        1.0,
        0.0,
        0.0,
        0.0,
        0.0,
        2.220446049250313e-16,
        1.0,
        0.0,
        0.0,
        -1.0,
        2.220446049250313e-16,
        0.0,
        0.0,
        0.0,
        0.0,
        1.0
      ],
      "name": "GLTF_SceneRootNode"
    },
    {
      "children": [
        4,
        5,
        6
      ],
      "matrix": [
        0.0,
        0.0,
        -1.0,
        0.0,
        0.0,
        1.0,
        0.0,
        0.0,
        1.0,
        0.0,
        0.0,
        0.0,
        0.0,
        0.0,
        0.0,
        1.0
      ],
      "name": "Circle_2"
    },
    {
      "mesh": 0,
      "name": "Object_4"
    },
    {
      "mesh": 1,
      "name": "Object_5"
    },
    {
      "mesh": 2,
      "name": "Object_6"
    },
    {
      "children": [
        8
      ],
      "matrix": [
        0.25,
        0.0,
        0.0,
        0.0,
        0.0,
        0.25,
        0.0,
        0.0,
        0.0,
        0.0,
        0.25,
        0.0,
        0.0,
        0.005399823188781738,
        0.0,
        1.0
      ],
      "name": "Circle.001_3"
    },
    {
      "mesh": 3,
      "name": "Object_8"
    },
    {
      "children": [
        10
      ],
      "matrix": [
        0.25,
        0.0,
        0.0,
        0.0,
        0.0,
        0.25,
        0.0,
        0.0,
        0.0,
        0.0,
        0.25,
        0.0,
        -0.17343184351921082,
        0.0053997039794921875,
        -0.13936163485050201,
        1.0
      ],
      "name": "Circle.002_4"
    },
    {
      "mesh": 4,
      "name": "Object_10"
    },
    {
      "children": [
        12
      ],
      "matrix": [
        0.25,
        0.0,
        0.0,
        0.0,
        0.0,
        0.25,
        0.0,
        0.0,
        0.0,
        0.0,
        0.25,
        0.0,
        0.2363966405391693,
        0.00540006160736084,
        -0.07229151576757431,
        1.0
      ],
      "name": "Circle.003_5"
    },
    {
      "mesh": 5,
      "name": "Object_12"
    },
    {
      "children": [
        14
      ],
      "matrix": [
        0.25,
        0.0,
        0.0,
        0.0,
        0.0,
        0.25,
        0.0,
        0.0,
        0.0,
        0.0,
        0.25,
        0.0,
        -0.2662009298801422,
        0.005399942398071289,
        0.07483851164579391,
        1.0
      ],
      "name": "Circle.004_6"
    },
    {
      "mesh": 6,
      "name": "Object_14"
    },
    {
      "children": [
        16
      ],
      "matrix": [
        0.25,
        0.0,
        0.0,
        0.0,
        0.0,
        0.25,
        0.0,
        0.0,
        0.0,
        0.0,
        0.25,
        0.0,
        0.03049314022064209,
        0.00540006160736084,
        0.12019140273332596,
        1.0
      ],
      "name": "Circle.005_7"
    },
    {
      "mesh": 7,
      "name": "Object_16"
    },
    {
      "children": [
        18
      ],
      "matrix": [
        0.25,
        0.0,
        0.0,
        0.0,
        0.0,
        0.25,
        0.0,
        0.0,
        0.0,
        0.0,
        0.25,
        0.0,
        0.14802336692810059,
        0.005399942398071289,
        -0.1485743522644043,
        1.0
      ],
      "name": "Circle.006_8"
    },
    {
      "mesh": 8,
      "name": "Object_18"
    },
    {
      "children": [
        20
      ],
      "matrix": [
        0.25,
        0.0,
        0.0,
        0.0,
        0.0,
        0.25,
        0.0,
        0.0,
        0.0,
        0.0,
        0.25,
        0.0,
        0.21742908656597137,
        0.005399942398071289,
        0.13459575176239014,
        1.0
      ],
      "name": "Circle.007_9"
    },
    {
      "mesh": 9,
      "name": "Object_20"
    },
    {
      "children": [
        22
      ],
      "matrix": [
        0.050000011920928955,
        0.0,
        0.0,
        0.0,
        0.0,
        0.10000002384185791,
        0.0,
        0.0,
        0.0,
        0.0,
        0.043236445635557175,
        0.0,
        0.0,
        0.006255385931581259,
        0.03278126195073128,
        1.0
      ],
      "name": "Plane_10"
    },
    {
      "mesh": 10,
      "name": "Object_22"
    },
    {
      "children": [
        24
      ],
      "matrix": [
        0.050000011920928955,
        0.0,
        0.0,
        0.0,
        0.0,
        0.10000002384185791,
        0.0,
        0.0,
        0.0,
        0.0,
        0.07662954181432724,
        0.0,
        0.028749147430062294,
        0.006255385931581259,
        0.17881423234939575,
        1.0
      ],
      "name": "Plane.001_11"
    },
    {
      "mesh": 11,
      "name": "Object_24"
    },
    {
      "children": [
        26
      ],
      "matrix": [
        0.035239387303590775,
        0.0,
        0.0,
        0.0,
        0.0,
        0.07047877460718155,
        0.0,
        0.0,
        0.0,
        0.0,
        0.05400754138827324,
        0.0,
        0.21205377578735352,
        0.006255385931581259,
        0.17881423234939575,
        1.0
      ],
      "name": "Plane.002_12"
    },
    {
      "mesh": 12,
      "name": "Object_26"
    },
    {
      "children": [
        28
      ],
      "matrix": [
        0.050000011920928955,
        0.0,
        0.0,
        0.0,
        0.0,
        0.10000002384185791,
        0.0,
        0.0,
        0.0,
        0.0,
        0.043236445635557175,
        0.0,
        -0.16322584450244904,
        0.006255385931581259,
        -0.12170875072479248,
        1.0
      ],
      "name": "Plane.003_13"
    },
    {
      "mesh": 13,
      "name": "Object_28"
    },
    {
      "children": [
        30
      ],
      "matrix": [
        0.050000011920928955,
        0.0,
        0.0,
        0.0,
        0.0,
        0.10000002384185791,
        0.0,
        0.0,
        0.0,
        0.0,
        0.043236445635557175,
        0.0,
        0.1524418592453003,
        0.006255385931581259,
        -0.11891213059425354,
        1.0
      ],
      "name": "Plane.004_14"
    },
    {
      "mesh": 14,
      "name": "Object_30"
    },
    {
      "children": [
        32
      ],
      "matrix": [
        0.1250000298023224,
        0.0,
        0.0,
        0.0,
        0.0,
        0.2500000596046448,
        0.0,
        0.0,
        0.0,
        0.0,
        0.10809111595153809,
        0.0,
        -0.19046975672245026,
        0.006255385931581259,
        0.08651946485042572,
        1.0
      ],
      "name": "Plane.005_15"
    },
    {
      "mesh": 15,
      "name": "Object_32"
    },
    {
      "children": [
        34
      ],
      "matrix": [
        0.050000011920928955,
        0.0,
        0.0,
        0.0,
        0.0,
        0.10000002384185791,
        0.0,
        0.0,
        0.0,
        0.0,
        0.043236445635557175,
        0.0,
        0.24509677290916443,
        0.006255385931581259,
        -0.02796100080013275,
        1.0
      ],
      "name": "Plane.006_16"
    },
    {
      "mesh": 16,
      "name": "Object_34"
    },
    {
      "children": [
        36
      ],
      "matrix": [
        0.25,
        0.0,
        0.0,
        0.0,
        0.0,
        0.25,
        0.0,
        0.0,
        0.0,
        0.0,
        0.25,
        0.0,
        0.30412572622299194,
        0.00540006160736084,
        -0.23406082391738892,
        1.0
      ],
      "name": "Circle.008_17"
    },
    {
      "mesh": 17,
      "name": "Object_36"
    },
    {
      "children": [
        38
      ],
      "matrix": [
        0.050000011920928955,
        0.0,
        0.0,
        0.0,
        0.0,
        0.10000002384185791,
        0.0,
        0.0,
        0.0,
        0.0,
        0.043236445635557175,
        0.0,
        0.31282585859298706,
        0.006255385931581259,
        -0.18973031640052795,
        1.0
      ],
      "name": "Plane.007_18"
    },
    {
      "mesh": 18,
      "name": "Object_38"
    },
    {
      "children": [
        40
      ],
      "matrix": [
        0.25,
        0.0,
        0.0,
        0.0,
        0.0,
        0.25,
        0.0,
        0.0,
        0.0,
        0.0,
        0.25,
        0.0,
        -0.014301508665084839,
        0.00540006160736084,
        -0.23406082391738892,
        1.0
      ],
      "name": "Circle.009_19"
    },
    {
      "mesh": 19,
      "name": "Object_40"
    },
    {
      "children": [
        42
      ],
      "matrix": [
        0.0848187580704689,
        0.0,
        0.0,
        0.0,
        0.0,
        0.10000002384185791,
        0.0,
        0.0,
        0.0,
        0.0,
        0.043236445635557175,
        0.0,
        -0.005601376295089722,
        0.006255385931581259,
        -0.18973031640052795,
        1.0
      ],
      "name": "Plane.008_20"
    },
    {
      "mesh": 20,
      "name": "Object_42"
    },
    {
      "children": [
        44
      ],
      "matrix": [
        0.050000011920928955,
        0.0,
        0.0,
        0.0,
        0.0,
        0.10000002384185791,
        0.0,
        0.0,
        0.0,
        0.0,
        0.043236445635557175,
        0.0,
        0.14592397212982178,
        0.006255385931581259,
        0.06595289707183838,
        1.0
      ],
      "name": "Plane.009_21"
    },
    {
      "mesh": 21,
      "name": "Object_44"
    }
  ],
  "samplers": [
    {
      "magFilter": 9729,
      "minFilter": 9987,
      "wrapS": 10497,
      "wrapT": 10497
    }
  ],
  "scene": 0,
  "scenes": [
    {
      "name": "Sketchfab_Scene",
      "nodes": [
        0
      ]
    }
  ],
  "textures": [
    {
      "sampler": 0,
      "source": 0
    },
    {
      "sampler": 0,
      "source": 1
    },
    {
      "sampler": 0,
      "source": 2
    },
    {
      "sampler": 0,
      "source": 3
    },
    {
      "sampler": 0,
      "source": 4
    },
    {
      "sampler": 0,
      "source": 5
    },
    {
      "sampler": 0,
      "source": 6
    },
    {
      "sampler": 0,
      "source": 7
    },
    {
      "sampler": 0,
      "source": 8
    },
    {
      "sampler": 0,
      "source": 9
    },
    {
      "sampler": 0,
      "source": 10
    },
    {
      "sampler": 0,
      "source": 11
    },
    {
      "sampler": 0,
      "source": 12
    },
    {
      "sampler": 0,
      "source": 13
    }
  ]
}
