{
  "accessors": [
    {
      "bufferView": 2,
      "componentType": 5126,
      "count": 625,
      "max": [
        0.2169709950685501,
        -0.10277900099754333,
        1.0
      ],
      "min": [
        -0.21643200516700745,
        -0.3271709978580475,
        -1.0
      ],
      "type": "VEC3"
    },
    {
      "bufferView": 2,
      "byteOffset": 7500,
      "componentType": 5126,
      "count": 625,
      "max": [
        1.0,
        1.0,
        1.0
      ],
      "min": [
        -1.0,
        -1.6292099758175027e-07,
        -1.0
      ],
      "type": "VEC3"
    },
    {
      "bufferView": 3,
      "componentType": 5126,
      "count": 625,
      "max": [
        1.0,
        0.6459681987762451,
        1.0,
        1.0
      ],
      "min": [
        -1.0,
        -0.8083270192146301,
        -1.0,
        -1.0
      ],
      "type": "VEC4"
    },
    {
      "bufferView": 1,
      "componentType": 5126,
      "count": 625,
      "max": [
        0.9999759793281555,
        0.9975450038909912
      ],
      "min": [
        2.394399962213356e-05,
        -0.0007192660123109818
      ],
      "type": "VEC2"
    },
    {
      "bufferView": 0,
      "componentType": 5125,
      "count": 2070,
      "type": "SCALAR"
    },
    {
      "bufferView": 2,
      "byteOffset": 15000,
      "componentType": 5126,
      "count": 1425,
      "max": [
        0.33512699604034424,
        0.17274700105190277,
        1.0
      ],
      "min": [
        -0.34060099720954895,
        -0.3271709978580475,
        -1.0
      ],
      "type": "VEC3"
    },
    {
      "bufferView": 2,
      "byteOffset": 32100,
      "componentType": 5126,
      "count": 1425,
      "max": [
        1.0,
        1.0,
        1.0
      ],
      "min": [
        -1.0,
        -1.0,
        -1.0
      ],
      "type": "VEC3"
    },
    {
      "bufferView": 3,
      "byteOffset": 10000,
      "componentType": 5126,
      "count": 1425,
      "max": [
        1.0,
        0.9856866002082825,
        1.0,
        1.0
      ],
      "min": [
        -1.0,
        -1.0,
        -1.0,
        -1.0
      ],
      "type": "VEC4"
    },
    {
      "bufferView": 1,
      "byteOffset": 5000,
      "componentType": 5126,
      "count": 1425,
      "max": [
        0.9012749791145325,
        0.9808369874954224
      ],
      "min": [
        0.015231800265610218,
        0.029514199122786522
      ],
      "type": "VEC2"
    },
    {
      "bufferView": 0,
      "byteOffset": 8280,
      "componentType": 5125,
      "count": 3669,
      "type": "SCALAR"
    },
    {
      "bufferView": 2,
      "byteOffset": 49200,
      "componentType": 5126,
      "count": 6588,
      "max": [
        0.4221090078353882,
        0.3271709978580475,
        0.6039490103721619
      ],
      "min": [
        -0.4216870069503784,
        -0.3271700143814087,
        0.3070949912071228
      ],
      "type": "VEC3"
    },
    {
      "bufferView": 2,
      "byteOffset": 128256,
      "componentType": 5126,
      "count": 6588,
      "max": [
        1.0,
        1.0,
        1.0
      ],
      "min": [
        -1.0,
        -1.0,
        -1.0
      ],
      "type": "VEC3"
    },
    {
      "bufferView": 3,
      "byteOffset": 32800,
      "componentType": 5126,
      "count": 6588,
      "max": [
        1.0,
        1.0,
        1.0,
        1.0
      ],
      "min": [
        -1.0,
        -1.0,
        -1.0,
        -1.0
      ],
      "type": "VEC4"
    },
    {
      "bufferView": 1,
      "byteOffset": 16400,
      "componentType": 5126,
      "count": 6588,
      "max": [
        0.9956340193748474,
        0.9984620213508606
      ],
      "min": [
        0.0074453698471188545,
        0.002701160032302141
      ],
      "type": "VEC2"
    },
    {
      "bufferView": 0,
      "byteOffset": 22956,
      "componentType": 5125,
      "count": 16311,
      "type": "SCALAR"
    },
    {
      "bufferView": 2,
      "byteOffset": 207312,
      "componentType": 5126,
      "count": 1797,
      "max": [
        0.4637419879436493,
        0.2791689932346344,
        0.6455820202827454
      ],
      "min": [
        -0.4637419879436493,
        -0.3271700143814087,
        -0.6032540202140808
      ],
      "type": "VEC3"
    },
    {
      "bufferView": 2,
      "byteOffset": 228876,
      "componentType": 5126,
      "count": 1797,
      "max": [
        1.0,
        1.0,
        1.0
      ],
      "min": [
        -1.0,
        -1.0,
        -1.0
      ],
      "type": "VEC3"
    },
    {
      "bufferView": 3,
      "byteOffset": 138208,
      "componentType": 5126,
      "count": 1797,
      "max": [
        1.0,
        1.0,
        1.0,
        1.0
      ],
      "min": [
        -1.0,
        -1.0,
        -1.0,
        -1.0
      ],
      "type": "VEC4"
    },
    {
      "bufferView": 1,
      "byteOffset": 69104,
      "componentType": 5126,
      "count": 1797,
      "max": [
        0.9999250173568726,
        0.7919930219650269
      ],
      "min": [
        8.551600103601231e-07,
        -0.18716099858283997
      ],
      "type": "VEC2"
    },
    {
      "bufferView": 0,
      "byteOffset": 88200,
      "componentType": 5125,
      "count": 4788,
      "type": "SCALAR"
    }
  ],
  "asset": {
    "extras": {
      "author": "Andrei CG (https://sketchfab.com/aagames)",
      "license": "CC-BY-4.0 (http://creativecommons.org/licenses/by/4.0/)",
      "source": "https://sketchfab.com/3d-models/medieval-bridge-565a1cd4930d4560947b0e539cf6fed5",
      "title": "Medieval bridge"
    },
    "generator": "Sketchfab-15.25.0",
    "version": "2.0"
  },
  "bufferViews": [
    {
      "buffer": 0,
      "byteLength": 107352,
      "name": "floatBufferViews",
      "target": 34963
    },
    {
      "buffer": 0,
      "byteLength": 83480,
      "byteOffset": 107352,
      "byteStride": 8,
      "name": "floatBufferViews",
      "target": 34962
    },
    {
      "buffer": 0,
      "byteLength": 250440,
      "byteOffset": 190832,
      "byteStride": 12,
      "name": "floatBufferViews",
      "target": 34962
    },
    {
      "buffer": 0,
      "byteLength": 166960,
      "byteOffset": 441272,
      "byteStride": 16,
      "name": "floatBufferViews",
      "target": 34962
    }
  ],
  "buffers": [
    {
      "byteLength": 608232,
      "uri": "scene.bin"
    }
  ],
  "images": [
    {
      "uri": "textures/Towers_baseColor.jpeg"
    },
    {
      "uri": "textures/Towers_metallicRoughness.png"
    },
    {
      "uri": "textures/Towers_normal.jpeg"
    },
    {
      "uri": "textures/Main_baseColor.jpeg"
    },
    {
      "uri": "textures/Main_metallicRoughness.png"
    },
    {
      "uri": "textures/Main_normal.jpeg"
    },
    {
      "uri": "textures/material_baseColor.jpeg"
    },
    {
      "uri": "textures/material_metallicRoughness.png"
    },
    {
      "uri": "textures/material_normal.jpeg"
    },
    {
      "uri": "textures/material_3_baseColor.jpeg"
    },
    {
      "uri": "textures/material_3_normal.jpeg"
    }
  ],
  "materials": [
    {
      "doubleSided": true,
      "name": "Towers",
      "normalTexture": {
        "index": 2
      },
      "pbrMetallicRoughness": {
        "baseColorTexture": {
          "index": 0
        },
        "metallicRoughnessTexture": {
          "index": 1
        }
      }
    },
    {
      "doubleSided": true,
      "name": "Main",
      "normalTexture": {
        "index": 5
      },
      "pbrMetallicRoughness": {
        "baseColorTexture": {
          "index": 3
        },
        "metallicRoughnessTexture": {
          "index": 4
        }
      }
    },
    {
      "doubleSided": true,
      "name": "material",
      "normalTexture": {
        "index": 8
      },
      "pbrMetallicRoughness": {
        "baseColorTexture": {
          "index": 6
        },
        "metallicRoughnessTexture": {
          "index": 7
        }
      }
    },
    {
      "doubleSided": true,
      "name": "material_3",
      "normalTexture": {
        "index": 10
      },
      "pbrMetallicRoughness": {
        "baseColorTexture": {
          "index": 9
        },
        "metallicRoughnessTexture": {
          "index": 7
        }
      }
    }
  ],
  "meshes": [
    {
      "name": "defaultMaterial",
      "primitives": [
        {
          "attributes": {
            "NORMAL": 1,
            "POSITION": 0,
            "TANGENT": 2,
            "TEXCOORD_0": 3
          },
          "indices": 4,
          "material": 3,
          "mode": 4
        }
      ]
    },
    {
      "name": "defaultMaterial",
      "primitives": [
        {
          "attributes": {
            "NORMAL": 6,
            "POSITION": 5,
            "TANGENT": 7,
            "TEXCOORD_0": 8
          },
          "indices": 9,
          "material": 2,
          "mode": 4
        }
      ]
    },
    {
      "name": "defaultMaterial",
      "primitives": [
        {
          "attributes": {
            "NORMAL": 11,
            "POSITION": 10,
            "TANGENT": 12,
            "TEXCOORD_0": 13
          },
          "indices": 14,
          "material": 1,
          "mode": 4
        }
      ]
    },
    {
      "name": "defaultMaterial",
      "primitives": [
        {
          "attributes": {
            "NORMAL": 16,
            "POSITION": 15,
            "TANGENT": 17,
            "TEXCOORD_0": 18
          },
          "indices": 19,
          "material": 0,
          "mode": 4
        }
      ]
    }
  ],
  "nodes": [
    {
      "children": [
        1
      ],
      "matrix": [
        1.0,
        0.0,
        0.0,
        0.0,
        0.0,
        2.220446049250313e-16,
        -1.0,
        0.0,
        0.0,
        1.0,
        2.220446049250313e-16,
        0.0,
        0.0,
        0.0,
        0.0,
        1.0
      ],
      "name": "Sketchfab_model"
    },
    {
      "children": [
        2,
        4,
        6,
        8
      ],
      "matrix": [
        1.0,
        0.0,
        0.0,
        0.0,
        0.0,
        -4.371139006309477e-08,
        0.999999999999999,
        0.0,
        0.0,
        -0.999999999999999,
        -4.371139006309477e-08,
        0.0,
        0.0,
        0.0,
        0.0,
        1.0
      ],
      "name": "Collada visual scene group"
    },
    {
      "children": [
        3
      ],
      "name": "Sketchup"
    },
    {
      "mesh": 0,
      "name": "defaultMaterial"
    },
    {
      "children": [
        5
      ],
      "name": "Sketchup"
    },
    {
      "mesh": 1,
      "name": "defaultMaterial"
    },
    {
      "children": [
        7
      ],
      "name": "Sketchup"
    },
    {
      "mesh": 2,
      "name": "defaultMaterial"
    },
    {
      "children": [
        9
      ],
      "name": "Sketchup"
    },
    {
      "mesh": 3,
      "name": "defaultMaterial"
    }
  ],
  "samplers": [
    {
      "magFilter": 9729,
      "minFilter": 9987,
      "wrapS": 10497,
      "wrapT": 10497
    }
  ],
  "scene": 0,
  "scenes": [
    {
      "name": "Sketchfab_Scene",
      "nodes": [
        0
      ]
    }
  ],
  "textures": [
    {
      "sampler": 0,
      "source": 0
    },
    {
      "sampler": 0,
      "source": 1
    },
    {
      "sampler": 0,
      "source": 2
    },
    {
      "sampler": 0,
      "source": 3
    },
    {
      "sampler": 0,
      "source": 4
    },
    {
      "sampler": 0,
      "source": 5
    },
    {
      "sampler": 0,
      "source": 6
    },
    {
      "sampler": 0,
      "source": 7
    },
    {
      "sampler": 0,
      "source": 8
    },
    {
      "sampler": 0,
      "source": 9
    },
    {
      "sampler": 0,
      "source": 10
    }
  ]
}
