{
  "accessors": [
    {
      "bufferView": 2,
      "componentType": 5126,
      "count": 8,
      "max": [
        103.03685760498047,
        105.26439666748047,
        -0.0
      ],
      "min": [
        -103.03685760498047,
        -105.26439666748047,
        -0.0
      ],
      "type": "VEC3"
    },
    {
      "bufferView": 2,
      "byteOffset": 96,
      "componentType": 5126,
      "count": 8,
      "max": [
        0.0,
        0.0,
        -1.0
      ],
      "min": [
        0.0,
        0.0,
        -1.0
      ],
      "type": "VEC3"
    },
    {
      "bufferView": 1,
      "componentType": 5126,
      "count": 8,
      "max": [
        0.7228460907936096,
        0.999020516872406
      ],
      "min": [
        0.0009794681100174785,
        0.0009795427322387695
      ],
      "type": "VEC2"
    },
    {
      "bufferView": 0,
      "componentType": 5125,
      "count": 12,
      "type": "SCALAR"
    },
    {
      "bufferView": 2,
      "byteOffset": 192,
      "componentType": 5126,
      "count": 4935,
      "max": [
        110.4885025024414,
        267.01129150390625,
        21.356021881103516
      ],
      "min": [
        -1.0,
        0.0,
        -12.108108520507813
      ],
      "type": "VEC3"
    },
    {
      "bufferView": 2,
      "byteOffset": 59412,
      "componentType": 5126,
      "count": 4935,
      "max": [
        1.0,
        1.0,
        1.0
      ],
      "min": [
        -1.0,
        -1.0,
        -1.0
      ],
      "type": "VEC3"
    },
    {
      "bufferView": 3,
      "componentType": 5126,
      "count": 4935,
      "max": [
        1.0,
        1.0,
        1.0,
        -1.0
      ],
      "min": [
        -1.0,
        -1.0,
        -1.0,
        -1.0
      ],
      "type": "VEC4"
    },
    {
      "bufferView": 1,
      "byteOffset": 64,
      "componentType": 5126,
      "count": 4935,
      "max": [
        0.9990218281745911,
        0.9983375668525696
      ],
      "min": [
        0.0009781424887478352,
        0.04150593280792236
      ],
      "type": "VEC2"
    },
    {
      "bufferView": 0,
      "byteOffset": 48,
      "componentType": 5125,
      "count": 17256,
      "type": "SCALAR"
    },
    {
      "bufferView": 2,
      "byteOffset": 118632,
      "componentType": 5126,
      "count": 4934,
      "max": [
        1.0,
        267.01129150390625,
        21.356021881103516
      ],
      "min": [
        -110.4885025024414,
        0.0,
        -12.108108520507813
      ],
      "type": "VEC3"
    },
    {
      "bufferView": 2,
      "byteOffset": 177840,
      "componentType": 5126,
      "count": 4934,
      "max": [
        1.0,
        1.0,
        1.0
      ],
      "min": [
        -1.0,
        -1.0,
        -1.0
      ],
      "type": "VEC3"
    },
    {
      "bufferView": 3,
      "byteOffset": 78960,
      "componentType": 5126,
      "count": 4934,
      "max": [
        1.0,
        1.0,
        1.0,
        1.0
      ],
      "min": [
        -1.0,
        -1.0,
        -1.0,
        1.0
      ],
      "type": "VEC4"
    },
    {
      "bufferView": 1,
      "byteOffset": 39544,
      "componentType": 5126,
      "count": 4934,
      "max": [
        0.9990218281745911,
        0.9983375668525696
      ],
      "min": [
        0.0009781424887478352,
        0.04150593280792236
      ],
      "type": "VEC2"
    },
    {
      "bufferView": 0,
      "byteOffset": 69072,
      "componentType": 5125,
      "count": 17256,
      "type": "SCALAR"
    },
    {
      "bufferView": 2,
      "byteOffset": 237048,
      "componentType": 5126,
      "count": 788,
      "max": [
        147.0874786376953,
        289.311279296875,
        15.0
      ],
      "min": [
        -147.0874786376953,
        0.0,
        -15.0
      ],
      "type": "VEC3"
    },
    {
      "bufferView": 2,
      "byteOffset": 246504,
      "componentType": 5126,
      "count": 788,
      "max": [
        1.0,
        1.0,
        1.0
      ],
      "min": [
        -1.0,
        -1.0,
        -1.0
      ],
      "type": "VEC3"
    },
    {
      "bufferView": 3,
      "byteOffset": 157904,
      "componentType": 5126,
      "count": 788,
      "max": [
        1.0,
        1.0,
        1.0,
        1.0
      ],
      "min": [
        -1.0,
        -1.0,
        -1.0,
        1.0
      ],
      "type": "VEC4"
    },
    {
      "bufferView": 1,
      "byteOffset": 79016,
      "componentType": 5126,
      "count": 788,
      "max": [
        0.9432889819145203,
        0.9990218281745911
      ],
      "min": [
        0.028966674581170082,
        0.041248202323913574
      ],
      "type": "VEC2"
    },
    {
      "bufferView": 0,
      "byteOffset": 138096,
      "componentType": 5125,
      "count": 1674,
      "type": "SCALAR"
    },
    {
      "bufferView": 2,
      "byteOffset": 255960,
      "componentType": 5126,
      "count": 4935,
      "max": [
        110.4885025024414,
        267.01129150390625,
        21.356021881103516
      ],
      "min": [
        -1.0,
        0.0,
        -12.108108520507813
      ],
      "type": "VEC3"
    },
    {
      "bufferView": 2,
      "byteOffset": 315180,
      "componentType": 5126,
      "count": 4935,
      "max": [
        1.0,
        1.0,
        1.0
      ],
      "min": [
        -1.0,
        -1.0,
        -1.0
      ],
      "type": "VEC3"
    },
    {
      "bufferView": 3,
      "byteOffset": 170512,
      "componentType": 5126,
      "count": 4935,
      "max": [
        1.0,
        1.0,
        1.0,
        -1.0
      ],
      "min": [
        -1.0,
        -1.0,
        -1.0,
        -1.0
      ],
      "type": "VEC4"
    },
    {
      "bufferView": 1,
      "byteOffset": 85320,
      "componentType": 5126,
      "count": 4935,
      "max": [
        0.9990218281745911,
        0.9983375668525696
      ],
      "min": [
        0.0009781424887478352,
        0.04150593280792236
      ],
      "type": "VEC2"
    },
    {
      "bufferView": 0,
      "byteOffset": 144792,
      "componentType": 5125,
      "count": 17256,
      "type": "SCALAR"
    },
    {
      "bufferView": 2,
      "byteOffset": 374400,
      "componentType": 5126,
      "count": 4934,
      "max": [
        1.0,
        267.01129150390625,
        21.356021881103516
      ],
      "min": [
        -110.4885025024414,
        0.0,
        -12.108108520507813
      ],
      "type": "VEC3"
    },
    {
      "bufferView": 2,
      "byteOffset": 433608,
      "componentType": 5126,
      "count": 4934,
      "max": [
        1.0,
        1.0,
        1.0
      ],
      "min": [
        -1.0,
        -1.0,
        -1.0
      ],
      "type": "VEC3"
    },
    {
      "bufferView": 3,
      "byteOffset": 249472,
      "componentType": 5126,
      "count": 4934,
      "max": [
        1.0,
        1.0,
        1.0,
        1.0
      ],
      "min": [
        -1.0,
        -1.0,
        -1.0,
        1.0
      ],
      "type": "VEC4"
    },
    {
      "bufferView": 1,
      "byteOffset": 124800,
      "componentType": 5126,
      "count": 4934,
      "max": [
        0.9990218281745911,
        0.9983375668525696
      ],
      "min": [
        0.0009781424887478352,
        0.04150593280792236
      ],
      "type": "VEC2"
    },
    {
      "bufferView": 0,
      "byteOffset": 213816,
      "componentType": 5125,
      "count": 17256,
      "type": "SCALAR"
    },
    {
      "bufferView": 2,
      "byteOffset": 492816,
      "componentType": 5126,
      "count": 788,
      "max": [
        147.0874786376953,
        289.311279296875,
        15.0
      ],
      "min": [
        -147.0874786376953,
        0.0,
        -15.0
      ],
      "type": "VEC3"
    },
    {
      "bufferView": 2,
      "byteOffset": 502272,
      "componentType": 5126,
      "count": 788,
      "max": [
        1.0,
        1.0,
        1.0
      ],
      "min": [
        -1.0,
        -1.0,
        -1.0
      ],
      "type": "VEC3"
    },
    {
      "bufferView": 3,
      "byteOffset": 328416,
      "componentType": 5126,
      "count": 788,
      "max": [
        1.0,
        1.0,
        1.0,
        1.0
      ],
      "min": [
        -1.0,
        -1.0,
        -1.0,
        1.0
      ],
      "type": "VEC4"
    },
    {
      "bufferView": 1,
      "byteOffset": 164272,
      "componentType": 5126,
      "count": 788,
      "max": [
        0.9432889819145203,
        0.9990218281745911
      ],
      "min": [
        0.028966674581170082,
        0.041248202323913574
      ],
      "type": "VEC2"
    },
    {
      "bufferView": 0,
      "byteOffset": 282840,
      "componentType": 5125,
      "count": 1674,
      "type": "SCALAR"
    }
  ],
  "asset": {
    "extras": {
      "author": "Mehdi Shahsavan (https://sketchfab.com/ahmagh2e)",
      "license": "CC-BY-4.0 (http://creativecommons.org/licenses/by/4.0/)",
      "source": "https://sketchfab.com/3d-models/door-white-wooden-4mb-533db2542eac4bdc96aaccb39c626c1b",
      "title": "Door white wooden - 4MB"
    },
    "generator": "Sketchfab-16.15.0",
    "version": "2.0"
  },
  "bufferViews": [
    {
      "buffer": 0,
      "byteLength": 289536,
      "name": "floatBufferViews",
      "target": 34963
    },
    {
      "buffer": 0,
      "byteLength": 170576,
      "byteOffset": 289536,
      "byteStride": 8,
      "name": "floatBufferViews",
      "target": 34962
    },
    {
      "buffer": 0,
      "byteLength": 511728,
      "byteOffset": 460112,
      "byteStride": 12,
      "name": "floatBufferViews",
      "target": 34962
    },
    {
      "buffer": 0,
      "byteLength": 341024,
      "byteOffset": 971840,
      "byteStride": 16,
      "name": "floatBufferViews",
      "target": 34962
    }
  ],
  "buffers": [
    {
      "byteLength": 1312864,
      "uri": "scene.bin"
    }
  ],
  "extensionsUsed": [
    "KHR_materials_transmission"
  ],
  "images": [
    {
      "uri": "textures/material_baseColor.png"
    },
    {
      "uri": "textures/material_metallicRoughness.png"
    },
    {
      "uri": "textures/material_normal.png"
    }
  ],
  "materials": [
    {
      "alphaMode": "BLEND",
      "doubleSided": true,
      "extensions": {
        "KHR_materials_transmission": {
          "transmissionFactor": 0.9466665041264888
        }
      },
      "name": "glass",
      "pbrMetallicRoughness": {
        "baseColorFactor": [
          0.603827,
          0.603827,
          0.603827,
          0.25
        ],
        "metallicFactor": 0.0,
        "roughnessFactor": 0.0
      }
    },
    {
      "doubleSided": true,
      "name": "material",
      "normalTexture": {
        "index": 2
      },
      "pbrMetallicRoughness": {
        "baseColorTexture": {
          "index": 0
        },
        "metallicRoughnessTexture": {
          "index": 1
        }
      }
    }
  ],
  "meshes": [
    {
      "name": "Polygon_1_glass_0",
      "primitives": [
        {
          "attributes": {
            "NORMAL": 1,
            "POSITION": 0,
            "TEXCOORD_0": 2
          },
          "indices": 3,
          "material": 0,
          "mode": 4
        }
      ]
    },
    {
      "name": "d_1_1_Mat_0",
      "primitives": [
        {
          "attributes": {
            "NORMAL": 5,
            "POSITION": 4,
            "TANGENT": 6,
            "TEXCOORD_0": 7
          },
          "indices": 8,
          "material": 1,
          "mode": 4
        }
      ]
    },
    {
      "name": "d_1_Mat_0",
      "primitives": [
        {
          "attributes": {
            "NORMAL": 10,
            "POSITION": 9,
            "TANGENT": 11,
            "TEXCOORD_0": 12
          },
          "indices": 13,
          "material": 1,
          "mode": 4
        }
      ]
    },
    {
      "name": "Cylinder_Mat_0",
      "primitives": [
        {
          "attributes": {
            "NORMAL": 15,
            "POSITION": 14,
            "TANGENT": 16,
            "TEXCOORD_0": 17
          },
          "indices": 18,
          "material": 1,
          "mode": 4
        }
      ]
    },
    {
      "name": "d_1_1_2_Mat_0",
      "primitives": [
        {
          "attributes": {
            "NORMAL": 20,
            "POSITION": 19,
            "TANGENT": 21,
            "TEXCOORD_0": 22
          },
          "indices": 23,
          "material": 1,
          "mode": 4
        }
      ]
    },
    {
      "name": "d_1_2_Mat_0",
      "primitives": [
        {
          "attributes": {
            "NORMAL": 25,
            "POSITION": 24,
            "TANGENT": 26,
            "TEXCOORD_0": 27
          },
          "indices": 28,
          "material": 1,
          "mode": 4
        }
      ]
    },
    {
      "name": "Cylinder_2_Mat_0",
      "primitives": [
        {
          "attributes": {
            "NORMAL": 30,
            "POSITION": 29,
            "TANGENT": 31,
            "TEXCOORD_0": 32
          },
          "indices": 33,
          "material": 1,
          "mode": 4
        }
      ]
    }
  ],
  "nodes": [
    {
      "children": [
        1
      ],
      "matrix": [
        1.0,
        0.0,
        0.0,
        0.0,
        0.0,
        2.220446049250313e-16,
        -1.0,
        0.0,
        0.0,
        1.0,
        2.220446049250313e-16,
        0.0,
        0.0,
        0.0,
        0.0,
        1.0
      ],
      "name": "Sketchfab_model"
    },
    {
      "children": [
        2
      ],
      "matrix": [
        0.009999999776482582,
        0.0,
        0.0,
        0.0,
        0.0,
        0.0,
        0.009999999776482582,
        0.0,
        0.0,
        -0.009999999776482582,
        0.0,
        0.0,
        0.0,
        0.0,
        0.0,
        1.0
      ],
      "name": "91ee8625124c4094b94dbddfdf42371e.fbx"
    },
    {
      "children": [
        3,
        5,
        7,
        14
      ],
      "name": "RootNode"
    },
    {
      "children": [
        4
      ],
      "matrix": [
        1.0,
        0.0,
        0.0,
        0.0,
        0.0,
        1.0,
        0.0,
        0.0,
        0.0,
        0.0,
        1.0,
        0.0,
        1.2450344562530518,
        149.58030700683594,
        0.0,
        1.0
      ],
      "name": "Polygon_1"
    },
    {
      "mesh": 0,
      "name": "Polygon_1_glass_0"
    },
    {
      "children": [
        6
      ],
      "matrix": [
        -0.5004580358703961,
        0.049123381920353405,
        0.8643660380194564,
        0.0,
        0.02461390716046844,
        0.9987927179093303,
        -0.042511906868414454,
        0.0,
        -0.865410833019232,
        9.332812300755222e-16,
        -0.5010629602085539,
        0.0,
        338.7013854980469,
        102.90605926513672,
        -617.27978515625,
        1.0
      ],
      "name": "CINEMA_4D_Editor"
    },
    {
      "name": "Object_6"
    },
    {
      "children": [
        8,
        10,
        12
      ],
      "name": "01"
    },
    {
      "children": [
        9
      ],
      "matrix": [
        1.0,
        0.0,
        0.0,
        0.0,
        0.0,
        1.0,
        0.0,
        0.0,
        0.0,
        0.0,
        1.0,
        0.0,
        -111.59905242919922,
        0.0,
        -4.623956680297852,
        1.0
      ],
      "name": "d_1_1"
    },
    {
      "mesh": 1,
      "name": "d_1_1_Mat_0"
    },
    {
      "children": [
        11
      ],
      "matrix": [
        1.0,
        0.0,
        0.0,
        0.0,
        0.0,
        1.0,
        0.0,
        0.0,
        0.0,
        0.0,
        1.0,
        0.0,
        112.49153137207031,
        0.0,
        -4.623956680297852,
        1.0
      ],
      "name": "d_1"
    },
    {
      "mesh": 2,
      "name": "d_1_Mat_0"
    },
    {
      "children": [
        13
      ],
      "matrix": [
        1.0,
        0.0,
        0.0,
        0.0,
        0.0,
        1.0,
        0.0,
        0.0,
        0.0,
        0.0,
        1.0,
        0.0,
        0.5128153562545776,
        0.0,
        -8.881784197001252e-16,
        1.0
      ],
      "name": "Cylinder"
    },
    {
      "mesh": 3,
      "name": "Cylinder_Mat_0"
    },
    {
      "children": [
        15,
        17,
        19
      ],
      "matrix": [
        1.0,
        0.0,
        0.0,
        0.0,
        0.0,
        1.0,
        0.0,
        0.0,
        0.0,
        0.0,
        1.0,
        0.0,
        -431.83447265625,
        0.0,
        0.0,
        1.0
      ],
      "name": "02"
    },
    {
      "children": [
        16
      ],
      "matrix": [
        0.14313402305794543,
        0.0,
        -0.9897033148591792,
        0.0,
        0.0,
        1.0,
        0.0,
        0.0,
        0.9897033148591792,
        0.0,
        0.14313402305794543,
        0.0,
        -111.59905242919922,
        0.0,
        -4.623956680297852,
        1.0
      ],
      "name": "d_1_1_2"
    },
    {
      "mesh": 4,
      "name": "d_1_1_2_Mat_0"
    },
    {
      "children": [
        18
      ],
      "matrix": [
        0.06103996015195656,
        0.0,
        0.9981353231223948,
        0.0,
        0.0,
        1.0,
        0.0,
        0.0,
        -0.9981353231223948,
        0.0,
        0.06103996015195656,
        0.0,
        112.49153137207031,
        0.0,
        -4.623956680297852,
        1.0
      ],
      "name": "d_1_2"
    },
    {
      "mesh": 5,
      "name": "d_1_2_Mat_0"
    },
    {
      "children": [
        20
      ],
      "matrix": [
        1.0,
        0.0,
        0.0,
        0.0,
        0.0,
        1.0,
        0.0,
        0.0,
        0.0,
        0.0,
        1.0,
        0.0,
        0.5128153562545776,
        0.0,
        -8.881784197001252e-16,
        1.0
      ],
      "name": "Cylinder_2"
    },
    {
      "mesh": 6,
      "name": "Cylinder_2_Mat_0"
    }
  ],
  "samplers": [
    {
      "magFilter": 9729,
      "minFilter": 9987,
      "wrapS": 10497,
      "wrapT": 10497
    }
  ],
  "scene": 0,
  "scenes": [
    {
      "name": "Sketchfab_Scene",
      "nodes": [
        0
      ]
    }
  ],
  "textures": [
    {
      "sampler": 0,
      "source": 0
    },
    {
      "sampler": 0,
      "source": 1
    },
    {
      "sampler": 0,
      "source": 2
    }
  ]
}
