{
  "accessors": [
    {
      "bufferView": 2,
      "componentType": 5126,
      "count": 485,
      "max": [
        1.586129903793335,
        4.050857067108154,
        4.985622406005859
      ],
      "min": [
        -1.5690927505493164,
        0.18551547825336456,
        -6.52933406829834
      ],
      "type": "VEC3"
    },
    {
      "bufferView": 2,
      "byteOffset": 5820,
      "componentType": 5126,
      "count": 485,
      "max": [
        1.0,
        1.0,
        1.0
      ],
      "min": [
        -1.0,
        -1.0,
        -1.0
      ],
      "type": "VEC3"
    },
    {
      "bufferView": 1,
      "componentType": 5126,
      "count": 485,
      "max": [
        0.9912173748016357,
        0.9913118481636047
      ],
      "min": [
        0.009347300976514816,
        0.013097044080495834
      ],
      "type": "VEC2"
    },
    {
      "bufferView": 0,
      "componentType": 5125,
      "count": 1215,
      "type": "SCALAR"
    },
    {
      "bufferView": 2,
      "byteOffset": 11640,
      "componentType": 5126,
      "count": 72,
      "max": [
        0.06528329849243164,
        0.3523283004760742,
        0.5403717756271362
      ],
      "min": [
        -0.06528329849243164,
        -0.35232794284820557,
        -0.5403718948364258
      ],
      "type": "VEC3"
    },
    {
      "bufferView": 2,
      "byteOffset": 12504,
      "componentType": 5126,
      "count": 72,
      "max": [
        1.0,
        0.9985999464988708,
        0.9986007809638977
      ],
      "min": [
        -0.9968124032020569,
        -0.9986005425453186,
        -0.9986006617546082
      ],
      "type": "VEC3"
    },
    {
      "bufferView": 1,
      "byteOffset": 3880,
      "componentType": 5126,
      "count": 72,
      "max": [
        0.8705928325653076,
        0.9886194467544556
      ],
      "min": [
        0.2700393795967102,
        0.6010376214981079
      ],
      "type": "VEC2"
    },
    {
      "bufferView": 0,
      "byteOffset": 4860,
      "componentType": 5125,
      "count": 90,
      "type": "SCALAR"
    },
    {
      "bufferView": 2,
      "byteOffset": 13368,
      "componentType": 5126,
      "count": 61,
      "max": [
        0.1699901819229126,
        0.45509469509124756,
        0.0964665412902832
      ],
      "min": [
        -0.1699901819229126,
        -0.45509421825408936,
        -0.0964670181274414
      ],
      "type": "VEC3"
    },
    {
      "bufferView": 2,
      "byteOffset": 14100,
      "componentType": 5126,
      "count": 61,
      "max": [
        0.8306671977043152,
        0.9997261166572571,
        0.9760136604309082
      ],
      "min": [
        -0.9403441548347473,
        -0.9903231859207153,
        -0.9831063747406006
      ],
      "type": "VEC3"
    },
    {
      "bufferView": 1,
      "byteOffset": 4456,
      "componentType": 5126,
      "count": 61,
      "max": [
        0.08647672832012177,
        0.9943618178367615
      ],
      "min": [
        0.013667423278093338,
        0.8798295259475708
      ],
      "type": "VEC2"
    },
    {
      "bufferView": 0,
      "byteOffset": 5220,
      "componentType": 5125,
      "count": 138,
      "type": "SCALAR"
    },
    {
      "bufferView": 2,
      "byteOffset": 14832,
      "componentType": 5126,
      "count": 61,
      "max": [
        0.1699901819229126,
        0.45509469509124756,
        0.0964665412902832
      ],
      "min": [
        -0.1699901819229126,
        -0.45509421825408936,
        -0.0964670181274414
      ],
      "type": "VEC3"
    },
    {
      "bufferView": 2,
      "byteOffset": 15564,
      "componentType": 5126,
      "count": 61,
      "max": [
        0.9403441548347473,
        0.9997261166572571,
        0.9760136604309082
      ],
      "min": [
        -0.8306671977043152,
        -0.9903231859207153,
        -0.9831064939498901
      ],
      "type": "VEC3"
    },
    {
      "bufferView": 1,
      "byteOffset": 4944,
      "componentType": 5126,
      "count": 61,
      "max": [
        0.08885170519351959,
        0.8731058239936829
      ],
      "min": [
        0.014915620908141136,
        0.7567219138145447
      ],
      "type": "VEC2"
    },
    {
      "bufferView": 0,
      "byteOffset": 5772,
      "componentType": 5125,
      "count": 138,
      "type": "SCALAR"
    },
    {
      "bufferView": 2,
      "byteOffset": 16296,
      "componentType": 5126,
      "count": 635,
      "max": [
        1.1861733198165894,
        1.0331999063491821,
        0.2898588180541992
      ],
      "min": [
        -1.1861733198165894,
        -1.0332002639770508,
        -0.2898592948913574
      ],
      "type": "VEC3"
    },
    {
      "bufferView": 2,
      "byteOffset": 23916,
      "componentType": 5126,
      "count": 635,
      "max": [
        1.0,
        1.0,
        1.0
      ],
      "min": [
        -1.0,
        -1.0,
        -1.0
      ],
      "type": "VEC3"
    },
    {
      "bufferView": 1,
      "byteOffset": 5432,
      "componentType": 5126,
      "count": 635,
      "max": [
        0.9896031618118286,
        0.6546563506126404
      ],
      "min": [
        0.041920892894268036,
        0.014014995656907558
      ],
      "type": "VEC2"
    },
    {
      "bufferView": 0,
      "byteOffset": 6324,
      "componentType": 5125,
      "count": 1584,
      "type": "SCALAR"
    },
    {
      "bufferView": 2,
      "byteOffset": 31536,
      "componentType": 5126,
      "count": 116,
      "max": [
        1.186173439025879,
        0.6212055683135986,
        0.8683867454528809
      ],
      "min": [
        -1.186173439025879,
        -0.6212060451507568,
        -0.8683867454528809
      ],
      "type": "VEC3"
    },
    {
      "bufferView": 2,
      "byteOffset": 32928,
      "componentType": 5126,
      "count": 116,
      "max": [
        1.0,
        0.999963641166687,
        1.0
      ],
      "min": [
        -0.9999998807907104,
        -1.0,
        -1.0
      ],
      "type": "VEC3"
    },
    {
      "bufferView": 1,
      "byteOffset": 10512,
      "componentType": 5126,
      "count": 116,
      "max": [
        0.46112528443336487,
        0.2330532670021057
      ],
      "min": [
        0.12161146849393845,
        0.06809619814157486
      ],
      "type": "VEC2"
    },
    {
      "bufferView": 0,
      "byteOffset": 12660,
      "componentType": 5125,
      "count": 300,
      "type": "SCALAR"
    },
    {
      "bufferView": 2,
      "byteOffset": 34320,
      "componentType": 5126,
      "count": 96,
      "max": [
        1.186173439025879,
        0.25092601776123047,
        1.04245126247406
      ],
      "min": [
        -1.186173439025879,
        -0.25092649459838867,
        -1.0424518585205078
      ],
      "type": "VEC3"
    },
    {
      "bufferView": 2,
      "byteOffset": 35472,
      "componentType": 5126,
      "count": 96,
      "max": [
        0.9732994437217712,
        1.0,
        1.0
      ],
      "min": [
        -0.9732990860939026,
        -1.0,
        -1.0
      ],
      "type": "VEC3"
    },
    {
      "bufferView": 1,
      "byteOffset": 11440,
      "componentType": 5126,
      "count": 96,
      "max": [
        0.46178650856018066,
        0.4300910532474518
      ],
      "min": [
        0.19239938259124756,
        0.23246197402477264
      ],
      "type": "VEC2"
    },
    {
      "bufferView": 0,
      "byteOffset": 13860,
      "componentType": 5125,
      "count": 252,
      "type": "SCALAR"
    },
    {
      "bufferView": 2,
      "byteOffset": 36624,
      "componentType": 5126,
      "count": 104,
      "max": [
        1.186173439025879,
        0.2509269714355469,
        1.0948892831802368
      ],
      "min": [
        -1.186173439025879,
        -0.2509269714355469,
        -1.0948896408081055
      ],
      "type": "VEC3"
    },
    {
      "bufferView": 2,
      "byteOffset": 37872,
      "componentType": 5126,
      "count": 104,
      "max": [
        0.9732932448387146,
        1.0,
        1.0
      ],
      "min": [
        -0.9732678532600403,
        -1.0,
        -1.0
      ],
      "type": "VEC3"
    },
    {
      "bufferView": 1,
      "byteOffset": 12208,
      "componentType": 5126,
      "count": 104,
      "max": [
        0.46260932087898254,
        0.6373172402381897
      ],
      "min": [
        0.1934005469083786,
        0.4297839403152466
      ],
      "type": "VEC2"
    },
    {
      "bufferView": 0,
      "byteOffset": 14868,
      "componentType": 5125,
      "count": 276,
      "type": "SCALAR"
    },
    {
      "bufferView": 2,
      "byteOffset": 39120,
      "componentType": 5126,
      "count": 42,
      "max": [
        0.018361806869506836,
        0.5999101400375366,
        1.124064564704895
      ],
      "min": [
        -0.018361687660217285,
        -0.5999103784561157,
        -1.1240651607513428
      ],
      "type": "VEC3"
    },
    {
      "bufferView": 2,
      "byteOffset": 39624,
      "componentType": 5126,
      "count": 42,
      "max": [
        0.9999947547912598,
        0.9999949932098389,
        1.0
      ],
      "min": [
        -0.9999947547912598,
        -0.9999949932098389,
        -0.9999997615814209
      ],
      "type": "VEC3"
    },
    {
      "bufferView": 1,
      "byteOffset": 13040,
      "componentType": 5126,
      "count": 42,
      "max": [
        0.5747734904289246,
        0.28056445717811584
      ],
      "min": [
        0.46108755469322205,
        0.06763626635074615
      ],
      "type": "VEC2"
    },
    {
      "bufferView": 0,
      "byteOffset": 15972,
      "componentType": 5125,
      "count": 72,
      "type": "SCALAR"
    },
    {
      "bufferView": 2,
      "byteOffset": 40128,
      "componentType": 5126,
      "count": 28,
      "max": [
        0.015216827392578125,
        0.22612953186035156,
        1.1240718364715576
      ],
      "min": [
        -0.015216827392578125,
        -0.2261296510696411,
        -1.1240720748901367
      ],
      "type": "VEC3"
    },
    {
      "bufferView": 2,
      "byteOffset": 40464,
      "componentType": 5126,
      "count": 28,
      "max": [
        0.9999998807907104,
        1.0,
        0.6631119847297668
      ],
      "min": [
        -0.9999998807907104,
        -0.9999998807907104,
        -1.0
      ],
      "type": "VEC3"
    },
    {
      "bufferView": 1,
      "byteOffset": 13376,
      "componentType": 5126,
      "count": 28,
      "max": [
        0.1216270849108696,
        0.28163331747055054
      ],
      "min": [
        0.07860814779996872,
        0.06847915798425674
      ],
      "type": "VEC2"
    },
    {
      "bufferView": 0,
      "byteOffset": 16260,
      "componentType": 5125,
      "count": 48,
      "type": "SCALAR"
    },
    {
      "bufferView": 2,
      "byteOffset": 40800,
      "componentType": 5126,
      "count": 22,
      "max": [
        0.015117526054382324,
        0.22612309455871582,
        1.0424511432647705
      ],
      "min": [
        -0.015117526054382324,
        -0.22612309455871582,
        -1.0424511432647705
      ],
      "type": "VEC3"
    },
    {
      "bufferView": 2,
      "byteOffset": 41064,
      "componentType": 5126,
      "count": 22,
      "max": [
        1.0,
        1.0,
        0.999946117401123
      ],
      "min": [
        -1.0,
        -1.0,
        -0.663112461566925
      ],
      "type": "VEC3"
    },
    {
      "bufferView": 1,
      "byteOffset": 13600,
      "componentType": 5126,
      "count": 22,
      "max": [
        0.12266137450933456,
        0.43045181035995483
      ],
      "min": [
        0.07946047186851501,
        0.2330532670021057
      ],
      "type": "VEC2"
    },
    {
      "bufferView": 0,
      "byteOffset": 16452,
      "componentType": 5125,
      "count": 36,
      "type": "SCALAR"
    },
    {
      "bufferView": 2,
      "byteOffset": 41328,
      "componentType": 5126,
      "count": 22,
      "max": [
        0.01627933979034424,
        0.22621774673461914,
        1.0424600839614868
      ],
      "min": [
        -0.01627933979034424,
        -0.22621774673461914,
        -1.0424599647521973
      ],
      "type": "VEC3"
    },
    {
      "bufferView": 2,
      "byteOffset": 41592,
      "componentType": 5126,
      "count": 22,
      "max": [
        0.9999945163726807,
        0.9999947547912598,
        0.9999418258666992
      ],
      "min": [
        -0.9999945163726807,
        -0.9999946355819702,
        -0.6632245779037476
      ],
      "type": "VEC3"
    },
    {
      "bufferView": 1,
      "byteOffset": 13776,
      "componentType": 5126,
      "count": 22,
      "max": [
        0.575078547000885,
        0.4297485053539276
      ],
      "min": [
        0.5318877696990967,
        0.2323727309703827
      ],
      "type": "VEC2"
    },
    {
      "bufferView": 0,
      "byteOffset": 16596,
      "componentType": 5125,
      "count": 36,
      "type": "SCALAR"
    },
    {
      "bufferView": 2,
      "byteOffset": 41856,
      "componentType": 5126,
      "count": 40,
      "max": [
        0.015068411827087402,
        0.599862813949585,
        1.097238302230835
      ],
      "min": [
        -0.015068531036376953,
        -0.5998625755310059,
        -1.0972384214401245
      ],
      "type": "VEC3"
    },
    {
      "bufferView": 2,
      "byteOffset": 42336,
      "componentType": 5126,
      "count": 40,
      "max": [
        1.0,
        1.0,
        1.0
      ],
      "min": [
        -1.0,
        -1.0,
        -1.0
      ],
      "type": "VEC3"
    },
    {
      "bufferView": 1,
      "byteOffset": 13952,
      "componentType": 5126,
      "count": 40,
      "max": [
        0.1934574842453003,
        0.6377736330032349
      ],
      "min": [
        0.08024130016565323,
        0.4300910532474518
      ],
      "type": "VEC2"
    },
    {
      "bufferView": 0,
      "byteOffset": 16740,
      "componentType": 5125,
      "count": 72,
      "type": "SCALAR"
    },
    {
      "bufferView": 2,
      "byteOffset": 42816,
      "componentType": 5126,
      "count": 40,
      "max": [
        0.017053604125976563,
        0.5999102592468262,
        1.0871617794036865
      ],
      "min": [
        -0.017053604125976563,
        -0.5999100208282471,
        -1.087161898612976
      ],
      "type": "VEC3"
    },
    {
      "bufferView": 2,
      "byteOffset": 43296,
      "componentType": 5126,
      "count": 40,
      "max": [
        0.9999949932098389,
        0.999995231628418,
        1.0
      ],
      "min": [
        -0.9999949932098389,
        -0.999995231628418,
        -1.0
      ],
      "type": "VEC3"
    },
    {
      "bufferView": 1,
      "byteOffset": 14272,
      "componentType": 5126,
      "count": 40,
      "max": [
        0.5754914283752441,
        0.6351244449615479
      ],
      "min": [
        0.46178650856018066,
        0.4291744828224182
      ],
      "type": "VEC2"
    },
    {
      "bufferView": 0,
      "byteOffset": 17028,
      "componentType": 5125,
      "count": 72,
      "type": "SCALAR"
    },
    {
      "bufferView": 2,
      "byteOffset": 43776,
      "componentType": 5126,
      "count": 72,
      "max": [
        1.248913288116455,
        0.16596829891204834,
        0.18997764587402344
      ],
      "min": [
        -1.248913288116455,
        -0.16596770286560059,
        -0.18997764587402344
      ],
      "type": "VEC3"
    },
    {
      "bufferView": 2,
      "byteOffset": 44640,
      "componentType": 5126,
      "count": 72,
      "max": [
        0.9480957388877869,
        0.9999994039535522,
        1.0
      ],
      "min": [
        -0.9480950236320496,
        -1.0,
        -0.9987545013427734
      ],
      "type": "VEC3"
    },
    {
      "bufferView": 1,
      "byteOffset": 14592,
      "componentType": 5126,
      "count": 72,
      "max": [
        0.1955723762512207,
        0.9926759600639343
      ],
      "min": [
        0.1064840704202652,
        0.7576448321342468
      ],
      "type": "VEC2"
    },
    {
      "bufferView": 0,
      "byteOffset": 17316,
      "componentType": 5125,
      "count": 132,
      "type": "SCALAR"
    },
    {
      "bufferView": 2,
      "byteOffset": 45504,
      "componentType": 5126,
      "count": 18,
      "max": [
        1.1925783157348633,
        -1.9572134017944336,
        2.5508382320404053
      ],
      "min": [
        -1.1797685623168945,
        -3.135342836380005,
        1.8033432960510254
      ],
      "type": "VEC3"
    },
    {
      "bufferView": 2,
      "byteOffset": 45720,
      "componentType": 5126,
      "count": 18,
      "max": [
        1.0,
        0.0007332455134019256,
        0.07256480306386948
      ],
      "min": [
        -0.9999995231628418,
        -0.9973637461662292,
        -0.0016731631476432085
      ],
      "type": "VEC3"
    },
    {
      "bufferView": 1,
      "byteOffset": 15168,
      "componentType": 5126,
      "count": 18,
      "max": [
        0.5332349538803101,
        0.8607692122459412
      ],
      "min": [
        0.12428896874189377,
        0.6422359943389893
      ],
      "type": "VEC2"
    },
    {
      "bufferView": 0,
      "byteOffset": 17844,
      "componentType": 5125,
      "count": 36,
      "type": "SCALAR"
    },
    {
      "bufferView": 2,
      "byteOffset": 45936,
      "componentType": 5126,
      "count": 50,
      "max": [
        1.1925784349441528,
        4.675369739532471,
        2.5508384704589844
      ],
      "min": [
        -1.179768443107605,
        -1.902594804763794,
        1.8033432960510254
      ],
      "type": "VEC3"
    },
    {
      "bufferView": 2,
      "byteOffset": 46536,
      "componentType": 5126,
      "count": 50,
      "max": [
        1.0,
        1.0,
        0.002906603505834937
      ],
      "min": [
        -0.9999984502792358,
        0.0,
        -0.007065671496093273
      ],
      "type": "VEC3"
    },
    {
      "bufferView": 1,
      "byteOffset": 15312,
      "componentType": 5126,
      "count": 50,
      "max": [
        0.981540858745575,
        0.6377736330032349
      ],
      "min": [
        0.12142924219369888,
        0.06781628727912903
      ],
      "type": "VEC2"
    },
    {
      "bufferView": 0,
      "byteOffset": 17988,
      "componentType": 5125,
      "count": 96,
      "type": "SCALAR"
    },
    {
      "bufferView": 2,
      "byteOffset": 47136,
      "componentType": 5126,
      "count": 178,
      "max": [
        0.8533514142036438,
        0.6093435287475586,
        0.7100141048431396
      ],
      "min": [
        -0.8533514142036438,
        -0.6093431115150452,
        -0.7100141048431396
      ],
      "type": "VEC3"
    },
    {
      "bufferView": 2,
      "byteOffset": 49272,
      "componentType": 5126,
      "count": 178,
      "max": [
        1.0,
        0.9987488985061646,
        0.9996107220649719
      ],
      "min": [
        -1.0,
        -1.0,
        -1.0
      ],
      "type": "VEC3"
    },
    {
      "bufferView": 1,
      "byteOffset": 15712,
      "componentType": 5126,
      "count": 178,
      "max": [
        0.9935527443885803,
        0.5743198394775391
      ],
      "min": [
        0.6491120457649231,
        0.34498894214630127
      ],
      "type": "VEC2"
    },
    {
      "bufferView": 0,
      "byteOffset": 18372,
      "componentType": 5125,
      "count": 612,
      "type": "SCALAR"
    },
    {
      "bufferView": 2,
      "byteOffset": 51408,
      "componentType": 5126,
      "count": 30,
      "max": [
        1.181793451309204,
        0.1724427342414856,
        0.2824430465698242
      ],
      "min": [
        -1.181793451309204,
        -0.17244327068328857,
        -0.282442569732666
      ],
      "type": "VEC3"
    },
    {
      "bufferView": 2,
      "byteOffset": 51768,
      "componentType": 5126,
      "count": 30,
      "max": [
        0.9999994039535522,
        1.0,
        1.0
      ],
      "min": [
        -0.9999947547912598,
        -1.0,
        -1.0
      ],
      "type": "VEC3"
    },
    {
      "bufferView": 1,
      "byteOffset": 17136,
      "componentType": 5126,
      "count": 30,
      "max": [
        0.9911394119262695,
        0.8742290735244751
      ],
      "min": [
        0.009266896173357964,
        0.012870079837739468
      ],
      "type": "VEC2"
    },
    {
      "bufferView": 0,
      "byteOffset": 20820,
      "componentType": 5125,
      "count": 54,
      "type": "SCALAR"
    },
    {
      "bufferView": 2,
      "byteOffset": 52128,
      "componentType": 5126,
      "count": 100,
      "max": [
        0.3739148676395416,
        0.5369618535041809,
        0.5369616150856018
      ],
      "min": [
        -0.15591716766357422,
        -0.5369609594345093,
        -0.5369616150856018
      ],
      "type": "VEC3"
    },
    {
      "bufferView": 2,
      "byteOffset": 53328,
      "componentType": 5126,
      "count": 100,
      "max": [
        1.0,
        0.875845193862915,
        0.8758451342582703
      ],
      "min": [
        -1.0,
        -0.8758454918861389,
        -0.8758450150489807
      ],
      "type": "VEC3"
    },
    {
      "bufferView": 1,
      "byteOffset": 17376,
      "componentType": 5126,
      "count": 100,
      "max": [
        0.7962061166763306,
        0.98653644323349
      ],
      "min": [
        0.45412948727607727,
        0.7480162382125854
      ],
      "type": "VEC2"
    },
    {
      "bufferView": 0,
      "byteOffset": 21036,
      "componentType": 5125,
      "count": 348,
      "type": "SCALAR"
    },
    {
      "bufferView": 2,
      "byteOffset": 54528,
      "componentType": 5126,
      "count": 100,
      "max": [
        0.37391504645347595,
        0.5369837880134583,
        0.5369834303855896
      ],
      "min": [
        -0.1559169888496399,
        -0.5369834899902344,
        -0.5369834899902344
      ],
      "type": "VEC3"
    },
    {
      "bufferView": 2,
      "byteOffset": 55728,
      "componentType": 5126,
      "count": 100,
      "max": [
        1.0,
        0.875880777835846,
        0.875880777835846
      ],
      "min": [
        -1.0,
        -0.8758808970451355,
        -0.8758805990219116
      ],
      "type": "VEC3"
    },
    {
      "bufferView": 1,
      "byteOffset": 18176,
      "componentType": 5126,
      "count": 100,
      "max": [
        0.7962061166763306,
        0.98653644323349
      ],
      "min": [
        0.45412948727607727,
        0.7480162382125854
      ],
      "type": "VEC2"
    },
    {
      "bufferView": 0,
      "byteOffset": 22428,
      "componentType": 5125,
      "count": 348,
      "type": "SCALAR"
    },
    {
      "bufferView": 2,
      "byteOffset": 56928,
      "componentType": 5126,
      "count": 100,
      "max": [
        0.15591686964035034,
        0.5369832515716553,
        0.5369834303855896
      ],
      "min": [
        -0.3739151656627655,
        -0.5369831919670105,
        -0.5369834899902344
      ],
      "type": "VEC3"
    },
    {
      "bufferView": 2,
      "byteOffset": 58128,
      "componentType": 5126,
      "count": 100,
      "max": [
        1.0,
        0.875880777835846,
        0.875880777835846
      ],
      "min": [
        -1.0,
        -0.8758808970451355,
        -0.875880777835846
      ],
      "type": "VEC3"
    },
    {
      "bufferView": 1,
      "byteOffset": 18976,
      "componentType": 5126,
      "count": 100,
      "max": [
        0.7962061166763306,
        0.98653644323349
      ],
      "min": [
        0.45412948727607727,
        0.7480162382125854
      ],
      "type": "VEC2"
    },
    {
      "bufferView": 0,
      "byteOffset": 23820,
      "componentType": 5125,
      "count": 348,
      "type": "SCALAR"
    },
    {
      "bufferView": 2,
      "byteOffset": 59328,
      "componentType": 5126,
      "count": 100,
      "max": [
        0.1559169888496399,
        0.5369839668273926,
        0.5369834303855896
      ],
      "min": [
        -0.37391504645347595,
        -0.5369833111763,
        -0.5369834899902344
      ],
      "type": "VEC3"
    },
    {
      "bufferView": 2,
      "byteOffset": 60528,
      "componentType": 5126,
      "count": 100,
      "max": [
        1.0,
        0.875880777835846,
        0.875880777835846
      ],
      "min": [
        -1.0,
        -0.875880777835846,
        -0.8758806586265564
      ],
      "type": "VEC3"
    },
    {
      "bufferView": 1,
      "byteOffset": 19776,
      "componentType": 5126,
      "count": 100,
      "max": [
        0.7962061166763306,
        0.98653644323349
      ],
      "min": [
        0.45412948727607727,
        0.7480162382125854
      ],
      "type": "VEC2"
    },
    {
      "bufferView": 0,
      "byteOffset": 25212,
      "componentType": 5125,
      "count": 348,
      "type": "SCALAR"
    }
  ],
  "asset": {
    "extras": {
      "author": "amogusstrikesback2 (https://sketchfab.com/amogusstrikesback2)",
      "license": "CC-BY-4.0 (http://creativecommons.org/licenses/by/4.0/)",
      "source": "https://sketchfab.com/3d-models/downtown-drift-schoolbus-9980ab8a12c84dc3ae2f1bfe04c72914",
      "title": "downtown drift schoolbus"
    },
    "generator": "Sketchfab-16.67.0",
    "version": "2.0"
  },
  "bufferViews": [
    {
      "buffer": 0,
      "byteLength": 26604,
      "name": "floatBufferViews",
      "target": 34963
    },
    {
      "buffer": 0,
      "byteLength": 20576,
      "byteOffset": 26604,
      "byteStride": 8,
      "name": "floatBufferViews",
      "target": 34962
    },
    {
      "buffer": 0,
      "byteLength": 61728,
      "byteOffset": 47180,
      "byteStride": 12,
      "name": "floatBufferViews",
      "target": 34962
    }
  ],
  "buffers": [
    {
      "byteLength": 108908,
      "uri": "scene.bin"
    }
  ],
  "images": [
    {
      "uri": "textures/Schoolbus_Material_baseColor.png"
    }
  ],
  "materials": [
    {
      "doubleSided": true,
      "name": "Schoolbus_Material",
      "pbrMetallicRoughness": {
        "baseColorTexture": {
          "index": 0
        },
        "metallicFactor": 0.0,
        "roughnessFactor": 0.9577051494623774
      }
    }
  ],
  "meshes": [
    {
      "name": "Schoolbus_Prefab_Schoolbus_Material_0",
      "primitives": [
        {
          "attributes": {
            "NORMAL": 1,
            "POSITION": 0,
            "TEXCOORD_0": 2
          },
          "indices": 3,
          "material": 0,
          "mode": 4
        }
      ]
    },
    {
      "name": "SchoolbusDebris01_Schoolbus_Material_0",
      "primitives": [
        {
          "attributes": {
            "NORMAL": 5,
            "POSITION": 4,
            "TEXCOORD_0": 6
          },
          "indices": 7,
          "material": 0,
          "mode": 4
        }
      ]
    },
    {
      "name": "SchoolbusDebris02_Schoolbus_Material_0",
      "primitives": [
        {
          "attributes": {
            "NORMAL": 9,
            "POSITION": 8,
            "TEXCOORD_0": 10
          },
          "indices": 11,
          "material": 0,
          "mode": 4
        }
      ]
    },
    {
      "name": "SchoolbusDebris03_Schoolbus_Material_0",
      "primitives": [
        {
          "attributes": {
            "NORMAL": 13,
            "POSITION": 12,
            "TEXCOORD_0": 14
          },
          "indices": 15,
          "material": 0,
          "mode": 4
        }
      ]
    },
    {
      "name": "SchoolbusDebris04_Schoolbus_Material_0",
      "primitives": [
        {
          "attributes": {
            "NORMAL": 17,
            "POSITION": 16,
            "TEXCOORD_0": 18
          },
          "indices": 19,
          "material": 0,
          "mode": 4
        }
      ]
    },
    {
      "name": "SchoolbusDebris05_Schoolbus_Material_0",
      "primitives": [
        {
          "attributes": {
            "NORMAL": 21,
            "POSITION": 20,
            "TEXCOORD_0": 22
          },
          "indices": 23,
          "material": 0,
          "mode": 4
        }
      ]
    },
    {
      "name": "SchoolbusDebris06_Schoolbus_Material_0",
      "primitives": [
        {
          "attributes": {
            "NORMAL": 25,
            "POSITION": 24,
            "TEXCOORD_0": 26
          },
          "indices": 27,
          "material": 0,
          "mode": 4
        }
      ]
    },
    {
      "name": "SchoolbusDebris07_Schoolbus_Material_0",
      "primitives": [
        {
          "attributes": {
            "NORMAL": 29,
            "POSITION": 28,
            "TEXCOORD_0": 30
          },
          "indices": 31,
          "material": 0,
          "mode": 4
        }
      ]
    },
    {
      "name": "SchoolbusDebris08_Schoolbus_Material_0",
      "primitives": [
        {
          "attributes": {
            "NORMAL": 33,
            "POSITION": 32,
            "TEXCOORD_0": 34
          },
          "indices": 35,
          "material": 0,
          "mode": 4
        }
      ]
    },
    {
      "name": "SchoolbusDebris09_Schoolbus_Material_0",
      "primitives": [
        {
          "attributes": {
            "NORMAL": 37,
            "POSITION": 36,
            "TEXCOORD_0": 38
          },
          "indices": 39,
          "material": 0,
          "mode": 4
        }
      ]
    },
    {
      "name": "SchoolbusDebris10_Schoolbus_Material_0",
      "primitives": [
        {
          "attributes": {
            "NORMAL": 41,
            "POSITION": 40,
            "TEXCOORD_0": 42
          },
          "indices": 43,
          "material": 0,
          "mode": 4
        }
      ]
    },
    {
      "name": "SchoolbusDebris11_Schoolbus_Material_0",
      "primitives": [
        {
          "attributes": {
            "NORMAL": 45,
            "POSITION": 44,
            "TEXCOORD_0": 46
          },
          "indices": 47,
          "material": 0,
          "mode": 4
        }
      ]
    },
    {
      "name": "SchoolbusDebris12_Schoolbus_Material_0",
      "primitives": [
        {
          "attributes": {
            "NORMAL": 49,
            "POSITION": 48,
            "TEXCOORD_0": 50
          },
          "indices": 51,
          "material": 0,
          "mode": 4
        }
      ]
    },
    {
      "name": "SchoolbusDebris13_Schoolbus_Material_0",
      "primitives": [
        {
          "attributes": {
            "NORMAL": 53,
            "POSITION": 52,
            "TEXCOORD_0": 54
          },
          "indices": 55,
          "material": 0,
          "mode": 4
        }
      ]
    },
    {
      "name": "SchoolbusFrontBumper_Schoolbus_Material_0",
      "primitives": [
        {
          "attributes": {
            "NORMAL": 57,
            "POSITION": 56,
            "TEXCOORD_0": 58
          },
          "indices": 59,
          "material": 0,
          "mode": 4
        }
      ]
    },
    {
      "name": "SchoolbusGlass_Schoolbus_Material_0",
      "primitives": [
        {
          "attributes": {
            "NORMAL": 61,
            "POSITION": 60,
            "TEXCOORD_0": 62
          },
          "indices": 63,
          "material": 0,
          "mode": 4
        }
      ]
    },
    {
      "name": "SchoolbusGlass2_Schoolbus_Material_0",
      "primitives": [
        {
          "attributes": {
            "NORMAL": 65,
            "POSITION": 64,
            "TEXCOORD_0": 66
          },
          "indices": 67,
          "material": 0,
          "mode": 4
        }
      ]
    },
    {
      "name": "SchoolbusHood_Schoolbus_Material_0",
      "primitives": [
        {
          "attributes": {
            "NORMAL": 69,
            "POSITION": 68,
            "TEXCOORD_0": 70
          },
          "indices": 71,
          "material": 0,
          "mode": 4
        }
      ]
    },
    {
      "name": "SchoolbusRearBumper_Schoolbus_Material_0",
      "primitives": [
        {
          "attributes": {
            "NORMAL": 73,
            "POSITION": 72,
            "TEXCOORD_0": 74
          },
          "indices": 75,
          "material": 0,
          "mode": 4
        }
      ]
    },
    {
      "name": "SchoolbusWheel_LB_Schoolbus_Material_0",
      "primitives": [
        {
          "attributes": {
            "NORMAL": 77,
            "POSITION": 76,
            "TEXCOORD_0": 78
          },
          "indices": 79,
          "material": 0,
          "mode": 4
        }
      ]
    },
    {
      "name": "SchoolbusWheel_LF_Schoolbus_Material_0",
      "primitives": [
        {
          "attributes": {
            "NORMAL": 81,
            "POSITION": 80,
            "TEXCOORD_0": 82
          },
          "indices": 83,
          "material": 0,
          "mode": 4
        }
      ]
    },
    {
      "name": "SchoolbusWheel_RB_Schoolbus_Material_0",
      "primitives": [
        {
          "attributes": {
            "NORMAL": 85,
            "POSITION": 84,
            "TEXCOORD_0": 86
          },
          "indices": 87,
          "material": 0,
          "mode": 4
        }
      ]
    },
    {
      "name": "SchoolbusWheel_RF_Schoolbus_Material_0",
      "primitives": [
        {
          "attributes": {
            "NORMAL": 89,
            "POSITION": 88,
            "TEXCOORD_0": 90
          },
          "indices": 91,
          "material": 0,
          "mode": 4
        }
      ]
    }
  ],
  "nodes": [
    {
      "children": [
        1
      ],
      "matrix": [
        1.0,
        0.0,
        0.0,
        0.0,
        0.0,
        2.220446049250313e-16,
        -1.0,
        0.0,
        0.0,
        1.0,
        2.220446049250313e-16,
        0.0,
        0.0,
        0.0,
        0.0,
        1.0
      ],
      "name": "Sketchfab_model"
    },
    {
      "children": [
        2
      ],
      "matrix": [
        0.009999999776482582,
        0.0,
        0.0,
        0.0,
        0.0,
        0.0,
        0.009999999776482582,
        0.0,
        0.0,
        -0.009999999776482582,
        0.0,
        0.0,
        0.0,
        0.0,
        0.0,
        1.0
      ],
      "name": "Schoolbus_Prefab.fbx"
    },
    {
      "children": [
        3
      ],
      "name": "RootNode"
    },
    {
      "children": [
        4,
        5,
        7,
        9,
        11,
        13,
        15,
        17,
        19,
        21,
        23,
        25,
        27,
        29,
        31,
        33,
        35,
        37,
        39,
        41,
        43,
        45,
        47
      ],
      "matrix": [
        1.0,
        0.0,
        0.0,
        0.0,
        0.0,
        0.9999999999999971,
        -7.54978987587787e-08,
        0.0,
        0.0,
        7.54978987587787e-08,
        0.9999999999999971,
        0.0,
        0.0,
        6.036248123564292e-08,
        0.0,
        1.0
      ],
      "name": "Schoolbus_Prefab"
    },
    {
      "mesh": 0,
      "name": "Schoolbus_Prefab_Schoolbus_Material_0"
    },
    {
      "children": [
        6
      ],
      "matrix": [
        1.3299999237060547,
        0.0,
        0.0,
        0.0,
        0.0,
        1.3299999237060547,
        -1.3234889800848438e-23,
        0.0,
        0.0,
        1.3234889800848438e-23,
        1.3299999237060547,
        0.0,
        1.5958034992218018,
        1.8283491134643555,
        1.5239250659942627,
        1.0
      ],
      "name": "SchoolbusDebris01"
    },
    {
      "mesh": 1,
      "name": "SchoolbusDebris01_Schoolbus_Material_0"
    },
    {
      "children": [
        8
      ],
      "matrix": [
        1.3299999237060547,
        0.0,
        0.0,
        0.0,
        0.0,
        1.3299999237060547,
        -1.3234889800848438e-23,
        0.0,
        0.0,
        1.3234889800848438e-23,
        1.3299999237060547,
        0.0,
        1.6992987394332886,
        2.6467034816741943,
        2.7882816791534424,
        1.0
      ],
      "name": "SchoolbusDebris02"
    },
    {
      "mesh": 2,
      "name": "SchoolbusDebris02_Schoolbus_Material_0"
    },
    {
      "children": [
        10
      ],
      "matrix": [
        1.3299999237060547,
        0.0,
        0.0,
        0.0,
        0.0,
        1.3299999237060547,
        -1.3234889800848438e-23,
        0.0,
        0.0,
        1.3234889800848438e-23,
        1.3299999237060547,
        0.0,
        -1.709585189819336,
        2.6467034816741943,
        2.7882823944091797,
        1.0
      ],
      "name": "SchoolbusDebris03"
    },
    {
      "mesh": 3,
      "name": "SchoolbusDebris03_Schoolbus_Material_0"
    },
    {
      "children": [
        12
      ],
      "matrix": [
        1.3299999237060547,
        0.0,
        0.0,
        0.0,
        0.0,
        1.3299999237060547,
        -1.3234889800848438e-23,
        0.0,
        0.0,
        1.3234889800848438e-23,
        1.3299999237060547,
        0.0,
        0.008518802933394909,
        2.6569862365722656,
        -6.912938594818115,
        1.0
      ],
      "name": "SchoolbusDebris04"
    },
    {
      "mesh": 4,
      "name": "SchoolbusDebris04_Schoolbus_Material_0"
    },
    {
      "children": [
        14
      ],
      "matrix": [
        1.3299999237060547,
        0.0,
        0.0,
        0.0,
        0.0,
        1.3299999237060547,
        -1.3234889800848438e-23,
        0.0,
        0.0,
        1.3234889800848438e-23,
        1.3299999237060547,
        0.0,
        0.008518644608557224,
        3.2246499061584473,
        -5.372836112976074,
        1.0
      ],
      "name": "SchoolbusDebris05"
    },
    {
      "mesh": 5,
      "name": "SchoolbusDebris05_Schoolbus_Material_0"
    },
    {
      "children": [
        16
      ],
      "matrix": [
        1.3299999237060547,
        0.0,
        0.0,
        0.0,
        0.0,
        1.3299999237060547,
        -1.3234889800848438e-23,
        0.0,
        0.0,
        1.3234889800848438e-23,
        1.3299999237060547,
        0.0,
        0.008518644608557224,
        3.71712327003479,
        -2.831782579421997,
        1.0
      ],
      "name": "SchoolbusDebris06"
    },
    {
      "mesh": 6,
      "name": "SchoolbusDebris06_Schoolbus_Material_0"
    },
    {
      "children": [
        18
      ],
      "matrix": [
        1.3299999237060547,
        0.0,
        0.0,
        0.0,
        0.0,
        1.3299999237060547,
        -1.3234889800848438e-23,
        0.0,
        0.0,
        1.3234889800848438e-23,
        1.3299999237060547,
        0.0,
        0.008518644608557224,
        3.7171239852905273,
        0.010879533365368843,
        1.0
      ],
      "name": "SchoolbusDebris07"
    },
    {
      "mesh": 7,
      "name": "SchoolbusDebris07_Schoolbus_Material_0"
    },
    {
      "children": [
        20
      ],
      "matrix": [
        1.3299999237060547,
        0.0,
        0.0,
        0.0,
        0.0,
        1.3299999237060547,
        -1.3234889800848438e-23,
        0.0,
        0.0,
        1.3234889800848438e-23,
        1.3299999237060547,
        0.0,
        -1.5446709394454956,
        2.594733953475952,
        -5.0343217849731445,
        1.0
      ],
      "name": "SchoolbusDebris08"
    },
    {
      "mesh": 8,
      "name": "SchoolbusDebris08_Schoolbus_Material_0"
    },
    {
      "children": [
        22
      ],
      "matrix": [
        1.3299999237060547,
        0.0,
        0.0,
        0.0,
        0.0,
        1.3299999237060547,
        -1.3234889800848438e-23,
        0.0,
        0.0,
        1.3234889800848438e-23,
        1.3299999237060547,
        0.0,
        1.5658905506134033,
        2.097731828689575,
        -5.034317493438721,
        1.0
      ],
      "name": "SchoolbusDebris09"
    },
    {
      "mesh": 9,
      "name": "SchoolbusDebris09_Schoolbus_Material_0"
    },
    {
      "children": [
        24
      ],
      "matrix": [
        1.3299999237060547,
        0.0,
        0.0,
        0.0,
        0.0,
        1.3299999237060547,
        -1.3234889800848438e-23,
        0.0,
        0.0,
        1.3234889800848438e-23,
        1.3299999237060547,
        0.0,
        1.5660229921340942,
        2.0977237224578857,
        -2.831780433654785,
        1.0
      ],
      "name": "SchoolbusDebris10"
    },
    {
      "mesh": 10,
      "name": "SchoolbusDebris10_Schoolbus_Material_0"
    },
    {
      "children": [
        26
      ],
      "matrix": [
        1.3299999237060547,
        0.0,
        0.0,
        0.0,
        0.0,
        1.3299999237060547,
        -1.3234889800848438e-23,
        0.0,
        0.0,
        1.3234889800848438e-23,
        1.3299999237060547,
        0.0,
        -1.5439534187316895,
        2.0977232456207275,
        -2.8317646980285645,
        1.0
      ],
      "name": "SchoolbusDebris11"
    },
    {
      "mesh": 11,
      "name": "SchoolbusDebris11_Schoolbus_Material_0"
    },
    {
      "children": [
        28
      ],
      "matrix": [
        1.3299999237060547,
        0.0,
        0.0,
        0.0,
        0.0,
        1.3299999237060547,
        -1.3234889800848438e-23,
        0.0,
        0.0,
        1.3234889800848438e-23,
        1.3299999237060547,
        0.0,
        1.566088318824768,
        2.594797134399414,
        0.007755464408546686,
        1.0
      ],
      "name": "SchoolbusDebris12"
    },
    {
      "mesh": 12,
      "name": "SchoolbusDebris12_Schoolbus_Material_0"
    },
    {
      "children": [
        30
      ],
      "matrix": [
        1.3299999237060547,
        0.0,
        0.0,
        0.0,
        0.0,
        1.3299999237060547,
        -1.3234889800848438e-23,
        0.0,
        0.0,
        1.3234889800848438e-23,
        1.3299999237060547,
        0.0,
        -1.5464106798171997,
        2.5947341918945313,
        -0.005871053319424391,
        1.0
      ],
      "name": "SchoolbusDebris13"
    },
    {
      "mesh": 13,
      "name": "SchoolbusDebris13_Schoolbus_Material_0"
    },
    {
      "children": [
        32
      ],
      "matrix": [
        1.3299999237060547,
        0.0,
        0.0,
        0.0,
        0.0,
        1.3299999237060547,
        -1.3234889800848438e-23,
        0.0,
        0.0,
        1.3234889800848438e-23,
        1.3299999237060547,
        0.0,
        0.008518247865140438,
        0.9583107829093933,
        4.90229606628418,
        1.0
      ],
      "name": "SchoolbusFrontBumper"
    },
    {
      "mesh": 14,
      "name": "SchoolbusFrontBumper_Schoolbus_Material_0"
    },
    {
      "children": [
        34
      ],
      "matrix": [
        1.3299999237060547,
        0.0,
        0.0,
        0.0,
        0.0,
        -1.7710020184519081e-07,
        -1.329999923706043,
        0.0,
        0.0,
        1.329999923706043,
        -1.7710020184519081e-07,
        0.0,
        0.0,
        -5.070116060323926e-08,
        -1.063368558883667,
        1.0
      ],
      "name": "SchoolbusGlass"
    },
    {
      "mesh": 15,
      "name": "SchoolbusGlass_Schoolbus_Material_0"
    },
    {
      "children": [
        36
      ],
      "matrix": [
        1.3299999237060547,
        0.0,
        0.0,
        0.0,
        0.0,
        -8.855010115885085e-07,
        -1.32999992370576,
        0.0,
        0.0,
        1.32999992370576,
        -8.855010115885085e-07,
        0.0,
        0.0,
        0.0,
        -1.063368797302246,
        1.0
      ],
      "name": "SchoolbusGlass2"
    },
    {
      "mesh": 16,
      "name": "SchoolbusGlass2_Schoolbus_Material_0"
    },
    {
      "children": [
        38
      ],
      "matrix": [
        1.3299999237060547,
        0.0,
        0.0,
        0.0,
        0.0,
        1.3299999237060547,
        -1.3234889800848438e-23,
        0.0,
        0.0,
        1.3234889800848438e-23,
        1.3299999237060547,
        0.0,
        0.008518406189978123,
        1.751448154449463,
        4.041303634643555,
        1.0
      ],
      "name": "SchoolbusHood"
    },
    {
      "mesh": 17,
      "name": "SchoolbusHood_Schoolbus_Material_0"
    },
    {
      "children": [
        40
      ],
      "matrix": [
        1.3299999237060547,
        0.0,
        0.0,
        0.0,
        0.0,
        1.3299999237060547,
        -1.3234889800848438e-23,
        0.0,
        0.0,
        1.3234889800848438e-23,
        1.3299999237060547,
        0.0,
        0.013273905962705612,
        1.053511381149292,
        -6.904975891113281,
        1.0
      ],
      "name": "SchoolbusRearBumper"
    },
    {
      "mesh": 18,
      "name": "SchoolbusRearBumper_Schoolbus_Material_0"
    },
    {
      "children": [
        42
      ],
      "matrix": [
        -1.3299999237060396,
        -1.6287802205051332e-16,
        -2.0082439917828555e-07,
        0.0,
        -2.0082439917828372e-07,
        -1.7710020214051012e-07,
        1.3299999237060278,
        0.0,
        -2.6904264264049952e-14,
        1.329999923706043,
        1.7710020199285047e-07,
        0.0,
        1.372436285018921,
        0.7086431384086609,
        -3.5464327335357666,
        1.0
      ],
      "name": "SchoolbusWheel_LB"
    },
    {
      "mesh": 19,
      "name": "SchoolbusWheel_LB_Schoolbus_Material_0"
    },
    {
      "children": [
        44
      ],
      "matrix": [
        -1.3299999237060396,
        -1.6287802205051332e-16,
        -2.0082439917828555e-07,
        0.0,
        -2.0082439917828372e-07,
        -1.7710020214051012e-07,
        1.3299999237060278,
        0.0,
        -2.6904264264049952e-14,
        1.329999923706043,
        1.7710020199285047e-07,
        0.0,
        1.3724370002746582,
        0.7086433172225952,
        3.8504536151885986,
        1.0
      ],
      "name": "SchoolbusWheel_LF"
    },
    {
      "mesh": 20,
      "name": "SchoolbusWheel_LF_Schoolbus_Material_0"
    },
    {
      "children": [
        46
      ],
      "matrix": [
        -1.3299999237060396,
        -1.6287802205051332e-16,
        -2.0082439917828555e-07,
        0.0,
        -2.0082439917828372e-07,
        -1.7710020214051012e-07,
        1.3299999237060278,
        0.0,
        -2.6904264264049952e-14,
        1.329999923706043,
        1.7710020199285047e-07,
        0.0,
        -1.2891489267349243,
        0.7086430788040161,
        -3.546431303024292,
        1.0
      ],
      "name": "SchoolbusWheel_RB"
    },
    {
      "mesh": 21,
      "name": "SchoolbusWheel_RB_Schoolbus_Material_0"
    },
    {
      "children": [
        48
      ],
      "matrix": [
        -1.3299999237060396,
        -1.6287802205051332e-16,
        -2.0082439917828555e-07,
        0.0,
        -2.0082439917828372e-07,
        -1.7710020214051012e-07,
        1.3299999237060278,
        0.0,
        -2.6904264264049952e-14,
        1.329999923706043,
        1.7710020199285047e-07,
        0.0,
        -1.2891474962234497,
        0.7086433172225952,
        3.850454092025757,
        1.0
      ],
      "name": "SchoolbusWheel_RF"
    },
    {
      "mesh": 22,
      "name": "SchoolbusWheel_RF_Schoolbus_Material_0"
    }
  ],
  "samplers": [
    {
      "magFilter": 9729,
      "minFilter": 9987,
      "wrapS": 10497,
      "wrapT": 10497
    }
  ],
  "scene": 0,
  "scenes": [
    {
      "name": "Sketchfab_Scene",
      "nodes": [
        0
      ]
    }
  ],
  "textures": [
    {
      "sampler": 0,
      "source": 0
    }
  ]
}
